<svg width="1255" height="602" viewBox="0 0 1255 602" fill="none" xmlns="http://www.w3.org/2000/svg">
<path d="M3.51041 105.938C1.57167 94.1954 9.51957 83.1041 21.2626 81.1654L377.41 22.3659C389.153 20.4272 400.245 28.3751 402.183 40.1181L480.572 514.919C482.511 526.662 474.563 537.753 462.82 539.692L106.672 598.491C94.9292 600.43 83.838 592.482 81.8992 580.739L3.51041 105.938Z" fill="#FE6213"/>
<path d="M103.867 519.866L101.219 520.335L101.476 493.303L104.123 492.834L104.04 501.227L103.968 501.24L103.858 510.853L103.931 510.84L103.867 519.866ZM112.606 518.316L109.959 518.786L110.005 509.763L110.077 509.75L110.187 500.137L110.114 500.15L110.215 491.753L112.862 491.284L112.606 518.316ZM117.278 510.175L97.0249 513.767L97.0814 511.026L102.466 510.071L102.479 510.144L111.237 508.591L111.224 508.518L117.335 507.435L117.278 510.175ZM117.246 500.288L111.335 501.336L111.322 501.263L102.618 502.807L102.613 502.882L96.9742 503.882L97.0306 501.142L117.302 497.547L117.246 500.288ZM123.268 516.426L118.628 490.262L134.512 487.445L135.033 490.382L122.413 492.62L124.008 501.614L135.594 499.559L136.108 502.46L124.522 504.515L126.531 515.847L123.268 516.426ZM142.886 512.947L138.247 486.783L154.457 483.909L154.978 486.846L142.031 489.141L143.52 497.536L155.795 495.36L156.31 498.261L144.034 500.438L145.629 509.431L158.575 507.135L159.096 510.073L142.886 512.947ZM172.536 508.138C171.328 508.353 170.097 508.34 168.845 508.101C167.591 507.849 166.391 507.302 165.244 506.458C164.109 505.612 163.104 504.412 162.231 502.859C161.367 501.292 160.719 499.293 160.289 496.863L160.282 496.827C159.761 493.89 159.715 491.311 160.145 489.09C160.584 486.856 161.461 485.054 162.777 483.686C164.105 482.316 165.833 481.443 167.96 481.065C169.447 480.802 170.83 480.831 172.109 481.153C173.398 481.46 174.526 482.021 175.493 482.834C176.46 483.648 177.201 484.663 177.716 485.881L177.813 486.107L174.494 486.695L174.386 486.509C174.004 485.829 173.519 485.273 172.931 484.841C172.343 484.409 171.668 484.117 170.906 483.965C170.153 483.8 169.33 483.796 168.435 483.955C166.815 484.242 165.588 484.946 164.751 486.067C163.915 487.187 163.393 488.564 163.184 490.197C162.986 491.828 163.027 493.566 163.304 495.412C163.313 495.535 163.329 495.657 163.35 495.778C163.37 495.887 163.39 496.002 163.411 496.123L164.953 500.282C165.15 501.394 165.59 502.363 166.273 503.19C166.965 504.002 167.813 504.6 168.816 504.983C169.817 505.354 170.874 505.441 171.986 505.244C173.098 505.047 174.061 504.608 174.875 503.927C175.688 503.235 176.281 502.394 176.654 501.405C177.027 500.416 177.116 499.372 176.921 498.272L176.915 498.236C176.713 497.099 176.28 496.135 175.616 495.343C174.952 494.55 174.129 493.985 173.146 493.648C172.162 493.299 171.095 493.227 169.947 493.43C168.811 493.632 167.827 494.062 166.997 494.72C166.178 495.377 165.58 496.187 165.202 497.152C164.837 498.114 164.753 499.152 164.95 500.264L164.953 500.282L163.865 500.475L163.077 496.032L163.458 495.965C163.671 495.129 164.067 494.336 164.645 493.585C165.232 492.82 165.976 492.164 166.877 491.618C167.775 491.06 168.817 490.676 170.001 490.466C171.669 490.17 173.223 490.281 174.661 490.799C176.099 491.317 177.309 492.162 178.29 493.335C179.283 494.505 179.926 495.919 180.22 497.575L180.226 497.611C180.531 499.327 180.397 500.928 179.825 502.414C179.263 503.885 178.355 505.13 177.102 506.151C175.847 507.159 174.325 507.821 172.536 508.138ZM185.913 505.318L185.514 503.069L193.021 491.826C193.987 490.383 194.708 489.208 195.183 488.301C195.668 487.38 195.968 486.578 196.084 485.897C196.213 485.213 196.212 484.509 196.084 483.784L196.077 483.747C195.919 482.853 195.567 482.099 195.021 481.485C194.488 480.869 193.819 480.433 193.013 480.176C192.217 479.906 191.341 479.856 190.386 480.025C189.299 480.218 188.366 480.62 187.589 481.232C186.81 481.831 186.241 482.555 185.88 483.405C185.52 484.254 185.423 485.15 185.59 486.093L185.606 486.184L182.451 486.743L182.432 486.635C182.164 485.124 182.318 483.706 182.893 482.382C183.467 481.046 184.359 479.922 185.568 479.009C186.788 478.082 188.207 477.475 189.827 477.188C191.411 476.907 192.876 476.978 194.222 477.4C195.569 477.822 196.69 478.521 197.586 479.496C198.495 480.47 199.07 481.64 199.312 483.006L199.319 483.042C199.488 483.997 199.47 484.954 199.266 485.912C199.075 486.869 198.637 487.988 197.954 489.268C197.269 490.537 196.268 492.136 194.952 494.065L189.077 502.699L189.681 500.516L190.038 502.529L188.916 501.793L202.66 499.356L203.174 502.257L185.913 505.318ZM213.618 500.405L209.593 477.704L209.521 477.717L203.449 483.768L202.868 480.486L208.943 474.247L212.134 473.681L216.773 499.846L213.618 500.405ZM232.299 497.542C230.498 497.861 228.872 497.831 227.421 497.453C225.969 497.074 224.756 496.417 223.779 495.48C222.815 494.542 222.15 493.394 221.785 492.037L221.728 491.823L224.865 491.267L224.915 491.445C225.164 492.286 225.606 492.987 226.242 493.547C226.889 494.106 227.688 494.494 228.637 494.712C229.583 494.919 230.637 494.919 231.797 494.713C232.946 494.509 233.914 494.132 234.701 493.581C235.501 493.028 236.08 492.358 236.439 491.571C236.796 490.772 236.893 489.913 236.73 488.994L236.724 488.958C236.439 487.351 235.682 486.213 234.454 485.545C233.236 484.864 231.709 484.686 229.871 485.012L226.589 485.594L226.101 482.837L229.238 482.281C230.277 482.097 231.162 481.741 231.891 481.212C232.618 480.672 233.145 480.024 233.472 479.267C233.797 478.499 233.883 477.68 233.728 476.81L233.722 476.773C233.559 475.855 233.227 475.109 232.727 474.537C232.226 473.965 231.572 473.576 230.762 473.371C229.965 473.163 229.034 473.153 227.97 473.342C226.943 473.524 226.055 473.862 225.308 474.357C224.57 474.836 224.016 475.44 223.646 476.166C223.276 476.892 223.121 477.705 223.181 478.605L223.195 478.789L220.058 479.346L220.044 479.161C219.936 477.709 220.163 476.385 220.723 475.188C221.296 473.989 222.153 472.983 223.293 472.17C224.445 471.355 225.837 470.803 227.469 470.513C229.137 470.218 230.639 470.251 231.975 470.612C233.321 470.96 234.422 471.581 235.279 472.476C236.146 473.357 236.697 474.463 236.933 475.792L236.939 475.829C237.13 476.905 237.064 477.901 236.74 478.819C236.417 479.737 235.887 480.547 235.152 481.251C234.416 481.955 233.525 482.518 232.478 482.941L232.491 483.014C234.428 482.832 236.084 483.205 237.458 484.134C238.842 485.048 239.699 486.436 240.029 488.297L240.036 488.334C240.293 489.784 240.13 491.153 239.548 492.441C238.966 493.729 238.051 494.826 236.803 495.733C235.553 496.628 234.052 497.231 232.299 497.542Z" fill="white"/>
<path d="M102.647 461.386C100.169 461.825 97.9259 461.656 95.9176 460.877C93.9215 460.097 92.2549 458.784 90.9178 456.939C89.5808 455.094 88.6668 452.787 88.176 450.019L88.1696 449.983C87.6787 447.214 87.745 444.74 88.3683 442.56C89.0016 440.366 90.1212 438.559 91.7273 437.139C93.3454 435.718 95.3874 434.789 97.8533 434.351C100.319 433.914 102.55 434.086 104.546 434.866C106.543 435.647 108.209 436.96 109.546 438.805C110.881 440.638 111.794 442.938 112.285 445.707L112.291 445.743C112.782 448.511 112.717 450.991 112.096 453.183C111.475 455.376 110.361 457.182 108.755 458.601C107.161 460.018 105.125 460.946 102.647 461.386ZM102.113 458.376C103.914 458.057 105.386 457.353 106.527 456.265C107.678 455.164 108.465 453.765 108.887 452.069C109.31 450.373 109.332 448.462 108.955 446.334L108.949 446.298C108.569 444.159 107.884 442.366 106.892 440.921C105.912 439.474 104.694 438.443 103.239 437.829C101.781 437.202 100.164 437.046 98.387 437.361C96.6101 437.676 95.139 438.38 93.9736 439.472C92.8181 440.549 92.0231 441.937 91.5886 443.635C91.1519 445.321 91.1243 447.239 91.5058 449.391L91.5122 449.427C91.8916 451.567 92.5772 453.359 93.569 454.804C94.5609 456.249 95.7856 457.285 97.2433 457.912C98.701 458.538 100.324 458.693 102.113 458.376ZM118.181 458.182L114.838 439.325L117.993 438.766L118.558 441.957L118.631 441.944C118.752 440.801 119.143 439.84 119.803 439.062C120.463 438.284 121.325 437.801 122.389 437.612C122.667 437.563 122.918 437.537 123.142 437.535C123.376 437.518 123.555 437.512 123.68 437.514L124.224 440.579C124.094 440.552 123.869 440.548 123.549 440.567C123.24 440.585 122.892 440.628 122.505 440.696C121.695 440.84 121.014 441.148 120.462 441.62C119.922 442.089 119.544 442.699 119.328 443.448C119.121 444.183 119.103 445.027 119.272 445.982L121.336 457.623L118.181 458.182ZM134.854 455.6C133.609 455.821 132.474 455.779 131.447 455.475C130.421 455.171 129.565 454.637 128.881 453.873C128.209 453.107 127.773 452.155 127.571 451.019L127.565 450.983C127.374 449.907 127.475 448.929 127.867 448.049C128.272 447.167 128.941 446.406 129.875 445.767C130.821 445.125 132.006 444.635 133.43 444.295L140.34 442.658L140.774 445.106L134.226 446.678C132.982 446.974 132.056 447.45 131.45 448.106C130.855 448.76 130.636 449.528 130.792 450.411L130.799 450.447C130.959 451.353 131.425 452.013 132.197 452.424C132.98 452.834 133.94 452.938 135.076 452.737C136.067 452.561 136.919 452.198 137.632 451.648C138.355 451.083 138.882 450.398 139.212 449.591C139.555 448.782 139.646 447.924 139.485 447.018L138.498 441.451C138.295 440.303 137.772 439.467 136.931 438.942C136.1 438.404 135.026 438.252 133.709 438.485C132.5 438.7 131.568 439.139 130.913 439.804C130.267 440.454 129.929 441.219 129.898 442.097L129.891 442.267L126.844 442.807L126.827 442.604C126.74 441.548 126.923 440.543 127.377 439.589C127.844 438.634 128.571 437.813 129.559 437.127C130.545 436.428 131.775 435.948 133.25 435.687C134.736 435.423 136.063 435.45 137.229 435.767C138.407 436.081 139.374 436.652 140.132 437.477C140.887 438.291 141.376 439.326 141.599 440.584L143.91 453.62L140.755 454.18L140.212 451.115L140.14 451.128C139.899 451.882 139.523 452.572 139.011 453.199C138.496 453.814 137.884 454.334 137.174 454.759C136.474 455.17 135.701 455.45 134.854 455.6ZM147.917 452.91L144.574 434.053L147.729 433.493L148.205 436.177L148.277 436.164C148.628 435.191 149.237 434.335 150.103 433.596C150.968 432.844 152.113 432.342 153.539 432.089C155.606 431.722 157.319 432.067 158.678 433.123C160.048 434.164 160.923 435.761 161.304 437.912L163.475 450.151L160.32 450.711L158.249 439.034C157.977 437.499 157.406 436.39 156.537 435.709C155.679 435.014 154.524 434.794 153.073 435.052C152.082 435.227 151.257 435.604 150.599 436.182C149.939 436.748 149.474 437.466 149.205 438.337C148.947 439.206 148.914 440.178 149.105 441.254L151.072 452.35L147.917 452.91ZM176.667 454.732C175.12 455.006 173.727 455.022 172.487 454.781C171.261 454.549 170.225 454.116 169.376 453.481C168.542 452.856 167.94 452.096 167.57 451.202L167.504 451.045L170.677 450.482L170.779 450.633C171.201 451.256 171.876 451.685 172.802 451.92C173.744 452.164 174.855 452.173 176.136 451.946C177.792 451.652 178.997 450.996 179.752 449.977C180.508 448.97 180.757 447.735 180.497 446.272L180.07 443.861L179.997 443.874C179.747 444.641 179.371 445.331 178.868 445.944C178.366 446.557 177.754 447.077 177.032 447.504C176.319 447.917 175.51 448.204 174.603 448.365C173.02 448.646 171.553 448.494 170.203 447.911C168.862 447.313 167.725 446.349 166.791 445.019C165.867 443.674 165.231 442.022 164.884 440.064L164.881 440.046C164.534 438.088 164.571 436.329 164.993 434.771C165.425 433.198 166.174 431.906 167.241 430.894C168.309 429.881 169.64 429.234 171.236 428.951C172.13 428.792 172.979 428.798 173.782 428.967C174.585 429.136 175.324 429.436 175.998 429.865C176.685 430.291 177.284 430.821 177.795 431.454L177.868 431.441L177.302 428.249L180.457 427.69L183.707 446.021C183.966 447.484 183.853 448.813 183.367 450.009C182.883 451.217 182.071 452.227 180.931 453.041C179.793 453.866 178.372 454.429 176.667 454.732ZM174.797 445.45C175.873 445.26 176.76 444.81 177.457 444.1C178.164 443.376 178.649 442.455 178.911 441.336C179.186 440.215 179.201 438.959 178.954 437.569L178.951 437.551C178.705 436.161 178.261 434.993 177.619 434.047C176.99 433.099 176.22 432.412 175.309 431.988C174.398 431.563 173.411 431.445 172.347 431.634C171.235 431.831 170.319 432.287 169.597 433.001C168.874 433.702 168.38 434.607 168.115 435.713C167.862 436.818 167.86 438.072 168.108 439.474L168.111 439.492C168.364 440.918 168.801 442.113 169.42 443.075C170.049 444.023 170.826 444.708 171.748 445.131C172.669 445.541 173.685 445.648 174.797 445.45ZM195.705 444.81C193.904 445.13 192.28 445.006 190.833 444.44C189.398 443.871 188.201 442.924 187.243 441.598C186.294 440.257 185.646 438.602 185.296 436.632L185.293 436.614C184.948 434.667 184.995 432.895 185.435 431.296C185.872 429.685 186.653 428.356 187.776 427.309C188.898 426.249 190.316 425.568 192.033 425.263C193.749 424.959 195.295 425.096 196.669 425.676C198.054 426.241 199.205 427.177 200.122 428.486C201.04 429.794 201.666 431.391 202.001 433.277L202.206 434.437L187.012 437.132L186.575 434.666L200.21 432.248L199.019 434.816L198.804 433.601C198.545 432.138 198.107 430.969 197.49 430.093C196.886 429.216 196.156 428.616 195.301 428.293C194.443 427.959 193.513 427.881 192.51 428.059C191.507 428.237 190.65 428.644 189.94 429.281C189.228 429.906 188.728 430.743 188.44 431.792C188.15 432.828 188.13 434.047 188.378 435.449L188.594 436.664C188.829 437.994 189.254 439.09 189.869 439.954C190.495 440.815 191.271 441.426 192.195 441.786C193.117 442.134 194.146 442.207 195.282 442.005C196.08 441.864 196.772 441.616 197.357 441.263C197.943 440.91 198.41 440.484 198.758 439.986C199.106 439.488 199.322 438.951 199.407 438.375L199.433 438.202L202.533 437.652L202.529 437.84C202.509 438.642 202.336 439.42 202.008 440.177C201.693 440.931 201.237 441.629 200.64 442.271C200.042 442.901 199.327 443.439 198.496 443.885C197.662 444.32 196.732 444.628 195.705 444.81Z" fill="white"/>
<path d="M185.604 163.645C187.818 147.204 206.999 139.325 220.131 149.462L345.703 246.402C358.835 256.539 356.068 277.091 340.723 283.395L193.984 343.673C178.639 349.977 162.225 337.305 164.438 320.864L185.604 163.645Z" fill="white" fill-opacity="0.2"/>
<g clip-path="url(#clip0_1070_24298)">
<path d="M447.204 39.3785C448.795 27.5833 459.647 19.3113 471.442 20.9023L829.171 69.1566C840.967 70.7477 849.239 81.5993 847.648 93.3944L783.317 570.303C781.726 582.098 770.874 590.37 759.079 588.779L401.35 540.525C389.555 538.934 381.283 528.082 382.874 516.287L447.204 39.3785Z" fill="#1A1C29"/>
<path d="M429.472 479.372L426.82 478.929L436.102 453.539L438.754 453.982L435.869 461.864L435.797 461.852L432.478 470.876L432.551 470.888L429.472 479.372ZM438.227 480.835L435.575 480.392L438.636 471.904L438.708 471.916L442.027 462.893L441.954 462.881L444.857 455.002L447.509 455.445L438.227 480.835ZM445.352 474.725L425.064 471.336L426.034 468.772L431.428 469.673L431.416 469.746L440.189 471.211L440.201 471.139L446.322 472.161L445.352 474.725ZM448.628 465.396L442.707 464.407L442.719 464.334L434.001 462.878L433.971 462.947L428.322 462.004L429.292 459.44L449.598 462.832L448.628 465.396ZM455.173 483.665L458.971 460.925L458.899 460.913L451.153 464.586L451.703 461.298L459.515 457.45L462.711 457.984L458.333 484.193L455.173 483.665ZM463.31 485.025L477.441 460.445L479.857 460.848L479.202 464.772L478.366 464.632L466.743 485.598L463.31 485.025ZM469.031 478.27L470.585 475.673L482.209 477.615L482.835 480.576L469.031 478.27ZM482.599 488.247L478.439 464.644L479.094 460.721L480.674 460.985L486.032 488.82L482.599 488.247ZM493.86 490.128L497.658 467.388L497.586 467.376L489.841 471.048L490.39 467.761L498.202 463.913L501.398 464.447L497.02 490.656L493.86 490.128ZM514.965 494.102C512.543 493.697 510.523 492.787 508.905 491.372C507.299 489.958 506.175 488.159 505.532 485.973C504.891 483.775 504.8 481.301 505.259 478.553L505.262 478.534C505.721 475.786 506.61 473.482 507.929 471.624C509.247 469.766 510.895 468.435 512.871 467.633C514.849 466.818 517.055 466.614 519.489 467.021C521.305 467.324 522.9 467.945 524.274 468.884C525.648 469.823 526.729 470.993 527.515 472.394C528.314 473.797 528.738 475.355 528.788 477.069L528.794 477.256L525.488 476.704L525.428 476.283C525.267 475.161 524.909 474.174 524.354 473.322C523.814 472.46 523.093 471.749 522.191 471.187C521.289 470.626 520.22 470.242 518.985 470.036C517.242 469.744 515.649 469.926 514.208 470.582C512.781 471.227 511.578 472.277 510.601 473.732C509.638 475.177 508.978 476.965 508.622 479.096L508.619 479.114C508.265 481.233 508.307 483.144 508.744 484.848C509.196 486.541 509.996 487.932 511.146 489.02C512.296 490.109 513.737 490.797 515.469 491.087C516.692 491.291 517.815 491.273 518.838 491.033C519.874 490.796 520.801 490.347 521.621 489.687C522.442 489.015 523.137 488.136 523.705 487.048L523.786 486.894L527.092 487.446L527.025 487.621C526.419 489.238 525.516 490.587 524.314 491.668C523.115 492.737 521.714 493.487 520.112 493.916C518.509 494.345 516.793 494.407 514.965 494.102ZM529.205 496.032L529.581 493.78L540.416 485.695C541.809 484.658 542.881 483.792 543.632 483.096C544.397 482.39 544.948 481.735 545.286 481.132C545.635 480.53 545.87 479.866 545.992 479.14L545.998 479.103C546.148 478.207 546.068 477.379 545.76 476.618C545.463 475.859 544.978 475.224 544.304 474.713C543.644 474.192 542.836 473.852 541.88 473.692C540.79 473.51 539.777 473.577 538.84 473.894C537.906 474.198 537.126 474.69 536.502 475.37C535.879 476.05 535.488 476.862 535.33 477.807L535.315 477.898L532.154 477.37L532.173 477.261C532.426 475.747 533.045 474.463 534.03 473.408C535.017 472.34 536.233 471.579 537.679 471.123C539.138 470.658 540.679 470.56 542.302 470.831C543.888 471.096 545.245 471.653 546.373 472.501C547.501 473.349 548.324 474.383 548.842 475.602C549.372 476.823 549.523 478.118 549.295 479.486L549.288 479.522C549.129 480.479 548.792 481.375 548.279 482.21C547.779 483.048 546.992 483.956 545.92 484.934C544.85 485.9 543.372 487.073 541.487 488.45L533.062 494.623L534.362 492.768L534.025 494.784L533.214 493.715L546.982 496.015L546.496 498.921L529.205 496.032ZM563.952 474.448C565.163 474.65 566.317 475.08 567.415 475.736C568.514 476.38 569.457 477.291 570.244 478.468C571.043 479.647 571.587 481.119 571.877 482.885C572.181 484.641 572.13 486.736 571.724 489.17L571.718 489.206C571.226 492.149 570.4 494.599 569.238 496.559C568.091 498.508 566.669 499.907 564.971 500.756C563.274 501.605 561.353 501.851 559.21 501.493C557.733 501.246 556.439 500.756 555.33 500.023C554.22 499.29 553.344 498.384 552.703 497.306C552.063 496.216 551.705 495.011 551.626 493.691L551.611 493.446L554.935 494.001L554.974 494.213C555.121 494.972 555.393 495.658 555.788 496.272C556.198 496.876 556.729 497.382 557.383 497.789C558.051 498.187 558.833 498.461 559.729 498.611C561.363 498.884 562.756 498.631 563.907 497.852C565.07 497.076 566.017 495.952 566.748 494.481C567.493 493 568.043 491.349 568.396 489.529C568.429 489.41 568.454 489.296 568.472 489.187C568.492 489.066 568.513 488.945 568.533 488.824L568.471 484.388C568.659 483.262 568.563 482.201 568.182 481.204C567.813 480.208 567.219 479.369 566.399 478.684C565.594 477.99 564.629 477.548 563.503 477.36C562.389 477.174 561.333 477.272 560.336 477.653C559.341 478.022 558.502 478.61 557.82 479.417C557.137 480.224 556.704 481.178 556.52 482.28L556.514 482.316C556.324 483.455 556.409 484.508 556.77 485.477C557.131 486.446 557.717 487.259 558.528 487.918C559.341 488.564 560.323 488.983 561.473 489.175C562.623 489.367 563.694 489.291 564.685 488.946C565.676 488.602 566.505 488.037 567.171 487.252C567.85 486.469 568.282 485.521 568.468 484.407L568.471 484.388L569.561 484.571L568.817 489.02L568.436 488.957C567.955 489.673 567.316 490.294 566.519 490.821C565.724 491.335 564.803 491.704 563.758 491.928C562.726 492.141 561.617 492.149 560.431 491.951C558.772 491.674 557.345 491.05 556.151 490.078C554.968 489.109 554.105 487.907 553.561 486.472C553.028 485.039 552.901 483.493 553.178 481.834L553.184 481.797C553.471 480.078 554.125 478.619 555.147 477.421C556.183 476.212 557.461 475.343 558.981 474.812C560.503 474.27 562.16 474.149 563.952 474.448Z" fill="white"/>
<path d="M444.987 418.72L449.365 392.511L452.544 393.042L465.621 420.598L462.147 415.911L463.6 416.154L467.056 395.466L470.289 396.006L465.911 422.215L462.732 421.684L449.655 394.127L453.129 398.815L451.676 398.572L448.22 419.26L444.987 418.72ZM475.422 424.177C474.175 423.969 473.118 423.55 472.253 422.92C471.387 422.29 470.76 421.5 470.371 420.552C469.993 419.605 469.9 418.563 470.09 417.424L470.096 417.388C470.276 416.31 470.698 415.423 471.363 414.724C472.039 414.028 472.924 413.535 474.018 413.245C475.124 412.957 476.405 412.891 477.86 413.047L484.919 413.815L484.51 416.267L477.814 415.559C476.542 415.422 475.511 415.561 474.72 415.976C473.94 416.393 473.477 417.044 473.329 417.928L473.323 417.964C473.171 418.873 473.39 419.65 473.979 420.296C474.58 420.944 475.45 421.363 476.588 421.553C477.581 421.719 478.506 421.662 479.361 421.382C480.231 421.091 480.957 420.621 481.539 419.972C482.132 419.324 482.505 418.546 482.657 417.638L483.588 412.062C483.78 410.912 483.568 409.949 482.95 409.174C482.347 408.388 481.386 407.885 480.066 407.665C478.855 407.463 477.83 407.565 476.99 407.973C476.164 408.37 475.59 408.977 475.267 409.794L475.203 409.952L472.152 409.442L472.203 409.245C472.474 408.22 472.983 407.334 473.73 406.588C474.489 405.843 475.449 405.313 476.61 404.997C477.772 404.668 479.092 404.627 480.569 404.874C482.059 405.123 483.3 405.591 484.293 406.28C485.297 406.971 486.019 407.832 486.456 408.863C486.896 409.882 487.01 411.022 486.8 412.281L484.618 425.34L481.458 424.812L481.971 421.743L481.898 421.731C481.42 422.36 480.834 422.885 480.142 423.304C479.451 423.712 478.701 423.997 477.889 424.16C477.092 424.313 476.269 424.319 475.422 424.177ZM493.954 426.9L490.153 406.848L493.477 407.403L496.096 423.804L496.168 423.816L503.993 409.16L507.281 409.709L497.187 427.44L493.954 426.9ZM507.368 435.675C507.066 435.624 506.76 435.555 506.451 435.466C506.152 435.391 505.903 435.318 505.703 435.247L506.134 432.668C506.263 432.715 506.411 432.764 506.576 432.817C506.754 432.871 506.939 432.915 507.133 432.947C508.138 433.115 508.967 433.073 509.619 432.821C510.283 432.571 510.891 431.945 511.445 430.942L512.005 429.934L508.153 409.855L511.531 410.419L514.231 427.785L513.68 426.946L514.625 427.104L513.832 427.718L522.047 412.176L525.371 412.731L514.644 431.57C513.996 432.693 513.33 433.59 512.645 434.26C511.961 434.93 511.195 435.381 510.347 435.612C509.499 435.844 508.506 435.865 507.368 435.675ZM534.458 433.666L534.94 430.778L542.714 432.076C544.675 432.404 546.23 432.265 547.376 431.66C548.537 431.045 549.243 429.987 549.493 428.485L549.499 428.449C549.669 427.432 549.575 426.545 549.216 425.788C548.857 425.031 548.234 424.404 547.346 423.907C546.47 423.412 545.336 423.049 543.943 422.816L536.478 421.569L536.949 418.754L543.487 419.846C545.425 420.17 546.965 420.041 548.107 419.46C549.262 418.882 549.957 417.884 550.194 416.467L550.2 416.431C550.417 415.135 550.152 414.077 549.405 413.255C548.661 412.421 547.495 411.872 545.909 411.607L538.353 410.344L538.836 407.457L547.136 408.843C548.638 409.094 549.906 409.586 550.941 410.319C551.976 411.052 552.727 411.961 553.192 413.047C553.658 414.133 553.782 415.33 553.564 416.638L553.557 416.674C553.406 417.582 553.055 418.414 552.506 419.168C551.957 419.923 551.277 420.525 550.468 420.975C549.661 421.413 548.792 421.622 547.861 421.604L547.849 421.676C549.084 422.032 550.107 422.576 550.918 423.309C551.729 424.042 552.3 424.909 552.631 425.91C552.963 426.899 553.033 427.975 552.838 429.138L552.832 429.174C552.575 430.712 551.998 431.972 551.099 432.954C550.215 433.927 549.063 434.6 547.644 434.972C546.227 435.333 544.587 435.358 542.722 435.046L534.458 433.666ZM532.823 433.393L537.201 407.183L540.471 407.73L536.092 433.939L532.823 433.393ZM554.982 437.094L559.36 410.885L562.52 411.413L558.142 437.622L554.982 437.094ZM568.798 439.776C567.417 439.545 566.284 439.063 565.398 438.33C564.525 437.599 563.915 436.67 563.568 435.541C563.235 434.403 563.188 433.119 563.427 431.69L565.475 419.43L568.635 419.958L566.682 431.655C566.425 433.193 566.585 434.433 567.162 435.376C567.753 436.309 568.775 436.896 570.228 437.139C570.978 437.265 571.672 437.25 572.307 437.095C572.955 436.941 573.536 436.671 574.048 436.284C574.563 435.884 574.99 435.377 575.33 434.762C575.671 434.134 575.908 433.421 576.042 432.622L577.899 421.506L581.059 422.034L577.904 440.923L574.743 440.395L575.192 437.707L575.12 437.695C574.683 438.22 574.154 438.666 573.533 439.036C572.923 439.407 572.221 439.663 571.425 439.804C570.63 439.945 569.754 439.935 568.798 439.776ZM589.74 443.274C587.935 442.972 586.446 442.313 585.272 441.295C584.11 440.28 583.299 438.987 582.839 437.416C582.394 435.836 582.336 434.059 582.666 432.085L582.669 432.067C582.994 430.117 583.632 428.463 584.581 427.103C585.532 425.731 586.712 424.739 588.121 424.128C589.532 423.505 591.097 423.337 592.817 423.624C594.536 423.912 595.947 424.558 597.048 425.563C598.164 426.559 598.935 427.827 599.363 429.367C599.79 430.907 599.846 432.621 599.53 434.51L599.336 435.673L584.115 433.13L584.528 430.66L598.187 432.942L596.206 434.963L596.409 433.746C596.654 432.281 596.632 431.033 596.344 430.001C596.068 428.972 595.581 428.162 594.883 427.573C594.187 426.971 593.336 426.586 592.331 426.418C591.326 426.251 590.383 426.348 589.5 426.711C588.62 427.062 587.869 427.683 587.247 428.575C586.628 429.455 586.2 430.597 585.966 432.002L585.762 433.218C585.54 434.55 585.574 435.726 585.864 436.745C586.166 437.767 586.693 438.601 587.443 439.25C588.196 439.886 589.141 440.299 590.279 440.489C591.079 440.622 591.813 440.621 592.483 440.484C593.153 440.347 593.736 440.102 594.23 439.749C594.725 439.396 595.109 438.962 595.381 438.447L595.463 438.293L598.569 438.812L598.502 438.987C598.215 439.736 597.791 440.412 597.23 441.015C596.681 441.62 596.018 442.126 595.241 442.531C594.465 442.924 593.612 443.192 592.679 443.335C591.749 443.466 590.769 443.446 589.74 443.274Z" fill="white"/>
<path d="M617.197 133.154C623.391 131 630.229 131.783 635.776 135.283L692.358 170.982C697.905 174.482 701.556 180.317 702.278 186.835L709.646 253.332C710.368 259.85 708.082 266.343 703.436 270.972L656.041 318.192C651.395 322.82 644.894 325.082 638.378 324.335L571.909 316.721C565.394 315.975 559.572 312.302 556.093 306.742L520.604 250.028C517.125 244.468 516.367 237.627 518.545 231.441L540.759 168.333C542.936 162.146 547.812 157.288 554.007 155.134L617.197 133.154Z" fill="white" fill-opacity="0.2"/>
</g>
<path d="M780.374 81.5459C778.599 69.777 786.702 58.798 798.471 57.0237L1155.41 3.21297C1167.18 1.43871 1178.15 9.54101 1179.93 21.31L1251.67 497.161C1253.44 508.93 1245.34 519.909 1233.57 521.683L876.634 575.494C864.865 577.268 853.886 569.166 852.112 557.397L780.374 81.5459Z" fill="#4A5565"/>
<path d="M883.118 515.341L880.479 515.855L880.28 488.822L882.919 488.308L882.978 496.702L882.906 496.716L882.958 506.33L883.03 506.316L883.118 515.341ZM891.83 513.645L889.191 514.159L889.085 505.137L889.158 505.122L889.105 495.509L889.033 495.523L888.992 487.126L891.631 486.612L891.83 513.645ZM896.365 505.426L876.175 509.358L876.185 506.617L881.553 505.572L881.567 505.644L890.298 503.944L890.284 503.871L896.375 502.685L896.365 505.426ZM896.165 495.541L890.273 496.688L890.259 496.616L881.583 498.305L881.579 498.381L875.958 499.476L875.968 496.735L896.176 492.8L896.165 495.541ZM914.442 509.241L913.386 503.819L900.282 506.371L899.708 503.424C900.237 502.096 900.767 500.767 901.296 499.438C901.837 498.107 902.372 496.777 902.901 495.448C903.443 494.117 903.978 492.787 904.507 491.459C905.036 490.13 905.565 488.801 906.094 487.472C906.636 486.141 907.171 484.811 907.7 483.483L912.508 482.546L915.975 500.35L919.663 499.632L920.219 502.488L916.531 503.206L917.587 508.629L914.442 509.241ZM902.943 502.888L912.83 500.963L909.905 485.942L909.797 485.963C909.341 487.09 908.885 488.217 908.429 489.344C907.971 490.459 907.513 491.58 907.058 492.707C906.599 493.821 906.136 494.943 905.668 496.073C905.212 497.2 904.756 498.326 904.3 499.453C903.842 500.568 903.385 501.689 902.929 502.816L902.943 502.888ZM922.757 507.622L927.384 479.649L929.788 479.181L930.548 483.085L929.717 483.247L926.173 506.957L922.757 507.622ZM925.75 499.291L926.296 496.314L937.864 494.062L939.487 496.616L925.75 499.291ZM941.953 503.884L929.789 483.233L929.029 479.329L930.601 479.023L945.369 503.218L941.953 503.884ZM957.003 501.403C955.34 501.727 953.796 501.696 952.37 501.311C950.957 500.923 949.75 500.251 948.751 499.295C947.752 498.339 947.049 497.169 946.642 495.785L946.585 495.59L949.784 494.967L949.83 495.108C950.105 495.942 950.57 496.659 951.224 497.257C951.876 497.843 952.657 498.253 953.565 498.489C954.474 498.725 955.447 498.742 956.483 498.54C957.664 498.31 958.657 497.854 959.462 497.172C960.268 496.49 960.836 495.654 961.169 494.663C961.499 493.661 961.55 492.575 961.323 491.407L961.316 491.37C961.093 490.226 960.636 489.264 959.947 488.485C959.267 487.692 958.432 487.129 957.442 486.797C956.452 486.464 955.378 486.411 954.221 486.636C953.342 486.807 952.548 487.099 951.841 487.512C951.143 487.911 950.556 488.432 950.081 489.075C949.894 489.336 949.717 489.614 949.55 489.91C949.394 490.203 949.261 490.516 949.151 490.85L946.277 491.41L944.718 476.274L959.648 473.366L960.211 476.258L947.956 478.645L948.778 487.584L948.85 487.57C949.145 486.899 949.555 486.307 950.08 485.792C950.605 485.277 951.221 484.844 951.928 484.494C952.635 484.143 953.411 483.886 954.254 483.722C955.929 483.396 957.484 483.481 958.919 483.977C960.366 484.47 961.583 485.296 962.572 486.454C963.57 487.598 964.232 489.008 964.559 490.683L964.566 490.719C964.903 492.454 964.805 494.068 964.27 495.56C963.735 497.053 962.843 498.315 961.593 499.346C960.341 500.365 958.811 501.051 957.003 501.403ZM978.657 497.186C976.994 497.51 975.45 497.479 974.024 497.094C972.61 496.706 971.404 496.035 970.405 495.078C969.406 494.122 968.703 492.952 968.296 491.568L968.239 491.373L971.438 490.75L971.484 490.891C971.759 491.725 972.224 492.442 972.878 493.04C973.53 493.626 974.311 494.036 975.219 494.272C976.128 494.508 977.101 494.525 978.137 494.323C979.318 494.093 980.311 493.637 981.116 492.955C981.922 492.273 982.49 491.437 982.823 490.446C983.153 489.444 983.204 488.359 982.977 487.19L982.97 487.154C982.747 486.009 982.29 485.047 981.601 484.268C980.921 483.475 980.086 482.912 979.096 482.58C978.106 482.247 977.032 482.194 975.875 482.419C974.996 482.59 974.202 482.883 973.495 483.295C972.797 483.694 972.21 484.215 971.735 484.858C971.548 485.119 971.371 485.397 971.204 485.693C971.048 485.986 970.915 486.299 970.805 486.633L967.931 487.193L966.372 472.057L981.302 469.149L981.865 472.041L969.61 474.428L970.432 483.367L970.504 483.353C970.799 482.682 971.209 482.09 971.734 481.575C972.259 481.06 972.875 480.627 973.582 480.277C974.289 479.926 975.065 479.669 975.908 479.505C977.583 479.179 979.138 479.264 980.573 479.76C982.02 480.253 983.237 481.079 984.226 482.237C985.224 483.381 985.886 484.791 986.212 486.466L986.22 486.502C986.557 488.237 986.459 489.851 985.924 491.343C985.389 492.836 984.497 494.098 983.247 495.129C981.995 496.148 980.465 496.834 978.657 497.186ZM1000.78 492.878C999.576 493.112 998.346 493.12 997.09 492.902C995.832 492.672 994.623 492.145 993.461 491.32C992.312 490.493 991.288 489.311 990.388 487.773C989.498 486.22 988.817 484.233 988.345 481.81L988.338 481.774C987.768 478.846 987.679 476.268 988.07 474.041C988.472 471.799 989.319 469.983 990.611 468.593C991.916 467.201 993.629 466.298 995.75 465.885C997.232 465.597 998.615 465.602 999.899 465.903C1001.19 466.189 1002.33 466.73 1003.31 467.527C1004.29 468.324 1005.05 469.327 1005.59 470.536L1005.69 470.761L1002.38 471.405L1002.27 471.22C1001.87 470.546 1001.38 469.998 1000.78 469.576C1000.19 469.154 999.509 468.874 998.744 468.735C997.988 468.582 997.165 468.593 996.273 468.766C994.659 469.081 993.443 469.805 992.626 470.94C991.808 472.075 991.309 473.46 991.127 475.096C990.958 476.73 991.027 478.468 991.336 480.309C991.347 480.432 991.365 480.553 991.388 480.674C991.409 480.782 991.432 480.897 991.455 481.017L993.066 485.15C993.282 486.258 993.739 487.22 994.435 488.035C995.141 488.835 995.999 489.419 997.008 489.785C998.015 490.139 999.073 490.208 1000.18 489.993C1001.29 489.777 1002.25 489.322 1003.05 488.627C1003.85 487.921 1004.43 487.071 1004.78 486.076C1005.14 485.081 1005.21 484.035 1005 482.938L1004.99 482.902C1004.77 481.77 1004.32 480.813 1003.65 480.032C1002.97 479.251 1002.13 478.7 1001.15 478.379C1000.16 478.047 999.089 477.992 997.945 478.215C996.812 478.436 995.836 478.882 995.016 479.555C994.209 480.225 993.624 481.045 993.263 482.016C992.914 482.984 992.847 484.023 993.063 485.132L993.066 485.15L991.982 485.361L991.12 480.933L991.499 480.859C991.698 480.019 992.08 479.22 992.645 478.459C993.22 477.684 993.953 477.016 994.844 476.455C995.733 475.882 996.768 475.48 997.949 475.25C999.612 474.926 1001.17 475.011 1002.61 475.505C1004.06 475.999 1005.28 476.823 1006.28 477.979C1007.3 479.133 1007.96 480.535 1008.29 482.186L1008.29 482.222C1008.63 483.933 1008.52 485.536 1007.97 487.031C1007.44 488.511 1006.55 489.772 1005.31 490.813C1004.08 491.842 1002.56 492.53 1000.78 492.878ZM1023.16 488.52C1021.5 488.844 1019.95 488.813 1018.53 488.428C1017.11 488.04 1015.9 487.368 1014.91 486.412C1013.91 485.456 1013.2 484.286 1012.8 482.902L1012.74 482.707L1015.94 482.084L1015.99 482.225C1016.26 483.059 1016.72 483.775 1017.38 484.373C1018.03 484.959 1018.81 485.37 1019.72 485.606C1020.63 485.842 1021.6 485.859 1022.64 485.657C1023.82 485.427 1024.81 484.971 1025.62 484.289C1026.42 483.607 1026.99 482.77 1027.32 481.78C1027.65 480.778 1027.71 479.692 1027.48 478.523L1027.47 478.487C1027.25 477.343 1026.79 476.381 1026.1 475.602C1025.42 474.809 1024.59 474.246 1023.6 473.914C1022.61 473.581 1021.53 473.528 1020.38 473.753C1019.5 473.924 1018.7 474.216 1018 474.629C1017.3 475.028 1016.71 475.549 1016.24 476.191C1016.05 476.453 1015.87 476.731 1015.7 477.027C1015.55 477.319 1015.42 477.633 1015.31 477.967L1012.43 478.527L1010.87 463.391L1025.8 460.483L1026.37 463.375L1014.11 465.762L1014.93 474.7L1015 474.686C1015.3 474.016 1015.71 473.424 1016.23 472.909C1016.76 472.394 1017.38 471.961 1018.08 471.611C1018.79 471.26 1019.57 471.003 1020.41 470.839C1022.08 470.512 1023.64 470.597 1025.07 471.093C1026.52 471.587 1027.74 472.413 1028.73 473.571C1029.72 474.715 1030.39 476.125 1030.71 477.8L1030.72 477.836C1031.06 479.571 1030.96 481.185 1030.43 482.677C1029.89 484.17 1029 485.431 1027.75 486.463C1026.5 487.482 1024.97 488.168 1023.16 488.52Z" fill="white"/>
<path d="M873.593 452.278C871.773 452.632 870.067 452.639 868.475 452.299C866.881 451.947 865.443 451.276 864.162 450.287C862.894 449.296 861.813 448.018 860.921 446.453C860.04 444.886 859.398 443.067 858.995 440.994L858.991 440.976C858.461 438.253 858.49 435.802 859.079 433.623C859.68 431.443 860.766 429.637 862.338 428.205C863.92 426.758 865.922 425.8 868.344 425.328C870.345 424.938 872.143 424.957 873.74 425.384C875.346 425.797 876.737 426.52 877.914 427.554C879.089 428.576 880.025 429.819 880.723 431.284L880.881 431.61L877.464 432.276L877.353 432.091C876.429 430.557 875.253 429.461 873.823 428.801C872.392 428.129 870.76 427.972 868.929 428.328C867.145 428.676 865.69 429.391 864.562 430.473C863.433 431.544 862.669 432.918 862.27 434.597C861.884 436.273 861.899 438.183 862.317 440.328L862.32 440.346C862.64 441.985 863.126 443.423 863.779 444.659C864.43 445.883 865.22 446.886 866.148 447.668C867.085 448.436 868.132 448.964 869.289 449.251C870.443 449.527 871.683 449.535 873.008 449.277C874.551 448.977 875.847 448.406 876.896 447.564C877.955 446.707 878.702 445.661 879.136 444.426C879.583 443.188 879.665 441.84 879.381 440.382L879.289 439.912L871.933 441.345L871.376 438.489L881.987 436.423L882.469 438.899C882.811 440.658 882.865 442.28 882.628 443.764C882.404 445.246 881.911 446.568 881.149 447.73C880.385 448.879 879.365 449.84 878.09 450.614C876.827 451.385 875.328 451.94 873.593 452.278ZM888.258 448.972L884.597 430.174L887.742 429.561L888.361 432.742L888.434 432.728C888.536 431.583 888.91 430.616 889.557 429.827C890.204 429.038 891.057 428.54 892.118 428.334C892.395 428.28 892.646 428.25 892.87 428.244C893.103 428.223 893.283 428.213 893.408 428.214L894.003 431.269C893.873 431.244 893.648 431.244 893.327 431.269C893.019 431.291 892.672 431.34 892.286 431.415C891.479 431.572 890.803 431.892 890.259 432.373C889.727 432.852 889.359 433.467 889.156 434.22C888.962 434.958 888.957 435.803 889.143 436.755L891.403 448.359L888.258 448.972ZM904.885 446.109C903.644 446.351 902.507 446.328 901.476 446.041C900.444 445.754 899.58 445.235 898.883 444.482C898.199 443.728 897.746 442.784 897.525 441.651L897.518 441.615C897.31 440.543 897.394 439.563 897.772 438.677C898.161 437.788 898.818 437.016 899.741 436.361C900.676 435.703 901.852 435.193 903.27 434.829L910.151 433.077L910.626 435.517L904.106 437.199C902.867 437.515 901.95 438.007 901.354 438.673C900.771 439.337 900.564 440.109 900.736 440.989L900.743 441.025C900.919 441.928 901.396 442.58 902.174 442.979C902.964 443.375 903.925 443.463 905.058 443.242C906.046 443.05 906.892 442.673 907.595 442.11C908.309 441.534 908.824 440.839 909.141 440.027C909.47 439.213 909.547 438.353 909.371 437.45L908.29 431.901C908.067 430.756 907.531 429.929 906.681 429.419C905.841 428.894 904.764 428.76 903.451 429.016C902.246 429.251 901.321 429.706 900.677 430.381C900.043 431.043 899.718 431.813 899.702 432.691L899.697 432.861L896.66 433.452L896.64 433.25C896.534 432.195 896.701 431.187 897.139 430.226C897.589 429.263 898.303 428.43 899.279 427.727C900.253 427.012 901.475 426.512 902.945 426.225C904.427 425.937 905.754 425.941 906.925 426.238C908.108 426.533 909.085 427.087 909.856 427.9C910.625 428.701 911.131 429.728 911.375 430.981L913.906 443.977L910.761 444.589L910.166 441.535L910.094 441.549C909.866 442.306 909.501 443.002 909 443.638C908.496 444.261 907.892 444.792 907.19 445.229C906.497 445.651 905.728 445.945 904.885 446.109ZM920.94 449.173C920.639 449.232 920.328 449.274 920.008 449.299C919.702 449.333 919.443 449.352 919.231 449.356L918.731 446.789C918.868 446.788 919.024 446.782 919.197 446.774C919.383 446.763 919.572 446.738 919.765 446.701C920.765 446.506 921.526 446.176 922.048 445.712C922.583 445.245 922.934 444.445 923.101 443.312L923.272 442.172L912.631 424.714L915.993 424.059L924.605 439.379L923.795 438.787L924.735 438.604L924.207 439.457L926.459 422.021L929.766 421.377L926.317 442.779C926.104 444.059 925.794 445.132 925.387 446C924.981 446.867 924.421 447.557 923.709 448.071C922.996 448.585 922.073 448.953 920.94 449.173Z" fill="white"/>
<path d="M984.901 134.109C993.029 125.735 1005.63 123.548 1016.1 128.691L1091.12 165.52C1101.59 170.663 1107.56 181.967 1105.91 193.52L1094.06 276.244C1092.41 287.796 1083.51 296.97 1072.01 298.966L989.671 313.264C978.173 315.26 966.697 309.626 961.245 299.307L922.204 225.419C916.752 215.101 918.564 202.445 926.693 194.071L984.901 134.109Z" fill="white" fill-opacity="0.2"/>
<defs>
<clipPath id="clip0_1070_24298">
<path d="M447.204 39.3785C448.795 27.5833 459.647 19.3113 471.442 20.9023L829.171 69.1566C840.967 70.7477 849.239 81.5993 847.648 93.3944L783.317 570.303C781.726 582.098 770.874 590.37 759.079 588.779L401.35 540.525C389.555 538.934 381.283 528.082 382.874 516.287L447.204 39.3785Z" fill="white"/>
</clipPath>
</defs>
</svg>
