<svg width="748" height="700" viewBox="0 0 748 700" fill="none" xmlns="http://www.w3.org/2000/svg">
<g filter="url(#filter0_d_1070_22490)">
<rect x="16" y="12.7998" width="716" height="668" rx="56" fill="#F9F9F9" shape-rendering="crispEdges"/>
<path d="M69.8711 59.7998V45.1631H64.668V42.8896H77.6992V45.1631H72.4961V59.7998H69.8711ZM80.0195 59.7998V42.8896H82.6562V59.7998H80.0195ZM85.9727 59.7998V42.8896H89.0195L94.4688 56.3662H94.5742L100.023 42.8896H103.059V59.7998H100.656V47.3428H99.4375L102.18 43.3584L95.4883 59.7998H93.5547L86.8633 43.3584L89.6055 47.3428H88.375V59.7998H85.9727ZM106.387 59.7998V42.8896H117.133V45.1631H109.023V50.085H116.699V52.2881H109.023V57.5264H117.133V59.7998H106.387ZM120.027 59.7998V42.8896H122.664V57.5264H130.551V59.7998H120.027ZM132.988 59.7998V42.8896H135.625V59.7998H132.988ZM138.941 59.7998V42.8896H141.367L151.574 57.5146L148.973 55.335H150.145V42.8896H152.746V59.7998H150.332L140.125 45.1514L142.727 47.3311H141.555V59.7998H138.941ZM156.074 59.7998V42.8896H166.82V45.1631H158.711V50.085H166.387V52.2881H158.711V57.5264H166.82V59.7998H156.074Z" fill="#101828"/>
<rect x="40" y="80.7998" width="668" height="576" rx="32" fill="white"/>
<g clip-path="url(#clip0_1070_22490)">
<rect x="64" y="104.8" width="48" height="48" rx="24" fill="#FE6213"/>
<path fill-rule="evenodd" clip-rule="evenodd" d="M98.192 119.579L83.872 133.399L80.072 129.339C79.372 128.679 78.272 128.639 77.472 129.199C76.692 129.779 76.472 130.799 76.952 131.619L81.452 138.939C81.892 139.619 82.652 140.039 83.512 140.039C84.332 140.039 85.112 139.619 85.552 138.939C86.272 137.999 100.012 121.619 100.012 121.619C101.812 119.779 99.632 118.159 98.192 119.559V119.579Z" fill="#FBFAFA"/>
</g>
<rect x="86" y="160.8" width="4" height="68" rx="2" fill="#FE6213"/>
<path d="M146.363 139.128C144.458 139.128 142.813 138.718 141.428 137.897C140.042 137.068 138.976 135.892 138.229 134.37C137.481 132.839 137.107 131.03 137.107 128.942V128.915C137.107 126.828 137.481 125.023 138.229 123.501C138.985 121.979 140.056 120.808 141.441 119.987C142.827 119.158 144.467 118.743 146.363 118.743C148.25 118.743 149.886 119.158 151.271 119.987C152.657 120.817 153.723 121.993 154.471 123.515C155.218 125.028 155.592 126.828 155.592 128.915V128.942C155.592 131.03 155.218 132.834 154.471 134.356C153.723 135.879 152.657 137.054 151.271 137.884C149.895 138.713 148.259 139.128 146.363 139.128ZM146.363 136.407C147.621 136.407 148.706 136.102 149.617 135.491C150.529 134.881 151.23 134.015 151.723 132.894C152.215 131.772 152.461 130.455 152.461 128.942V128.915C152.461 127.393 152.21 126.076 151.709 124.964C151.217 123.843 150.51 122.981 149.59 122.38C148.678 121.769 147.603 121.464 146.363 121.464C145.115 121.464 144.03 121.765 143.109 122.366C142.198 122.968 141.492 123.829 140.99 124.95C140.489 126.062 140.238 127.384 140.238 128.915V128.942C140.238 130.465 140.489 131.786 140.99 132.907C141.492 134.028 142.198 134.894 143.109 135.505C144.021 136.106 145.105 136.407 146.363 136.407ZM158.148 138.8V124.417H161.129V126.878H161.184C161.411 126.03 161.817 125.365 162.4 124.882C162.984 124.39 163.686 124.144 164.506 124.144C164.725 124.144 164.921 124.157 165.094 124.185C165.276 124.203 165.422 124.226 165.531 124.253V127.001C165.413 126.955 165.235 126.919 164.998 126.892C164.761 126.855 164.497 126.837 164.205 126.837C163.576 126.837 163.029 126.974 162.564 127.247C162.1 127.511 161.744 127.899 161.498 128.409C161.252 128.91 161.129 129.517 161.129 130.228V138.8H158.148ZM172.148 139.087C170.927 139.087 169.865 138.782 168.963 138.171C168.061 137.56 167.363 136.699 166.871 135.587C166.379 134.466 166.133 133.14 166.133 131.608V131.595C166.133 130.063 166.379 128.742 166.871 127.63C167.372 126.518 168.07 125.661 168.963 125.06C169.865 124.449 170.918 124.144 172.121 124.144C172.796 124.144 173.424 124.253 174.008 124.472C174.591 124.69 175.106 125.005 175.553 125.415C176.008 125.816 176.378 126.299 176.66 126.864H176.715V119.071H179.695V138.8H176.715V136.366H176.66C176.378 136.931 176.013 137.414 175.566 137.815C175.129 138.216 174.623 138.531 174.049 138.759C173.475 138.978 172.841 139.087 172.148 139.087ZM172.928 136.53C173.675 136.53 174.331 136.33 174.896 135.929C175.471 135.519 175.917 134.944 176.236 134.206C176.564 133.468 176.729 132.602 176.729 131.608V131.595C176.729 130.601 176.564 129.74 176.236 129.011C175.908 128.272 175.462 127.703 174.896 127.302C174.331 126.892 173.675 126.687 172.928 126.687C172.153 126.687 171.483 126.887 170.918 127.288C170.353 127.68 169.915 128.245 169.605 128.983C169.305 129.713 169.154 130.583 169.154 131.595V131.608C169.154 132.62 169.305 133.5 169.605 134.247C169.915 134.985 170.353 135.55 170.918 135.942C171.483 136.334 172.153 136.53 172.928 136.53ZM188.855 139.087C187.452 139.087 186.24 138.786 185.219 138.185C184.207 137.574 183.428 136.713 182.881 135.601C182.343 134.479 182.074 133.162 182.074 131.649V131.636C182.074 130.141 182.348 128.833 182.895 127.712C183.441 126.582 184.212 125.707 185.205 125.087C186.199 124.458 187.365 124.144 188.705 124.144C190.054 124.144 191.212 124.444 192.178 125.046C193.153 125.638 193.905 126.481 194.434 127.575C194.962 128.66 195.227 129.922 195.227 131.362V132.36H183.537V130.269H193.791L192.328 132.224V131.075C192.328 130.063 192.173 129.225 191.863 128.56C191.562 127.885 191.139 127.384 190.592 127.056C190.054 126.728 189.43 126.563 188.719 126.563C188.017 126.563 187.388 126.737 186.832 127.083C186.276 127.429 185.839 127.94 185.52 128.614C185.201 129.28 185.041 130.1 185.041 131.075V132.224C185.041 133.153 185.196 133.951 185.506 134.616C185.825 135.272 186.276 135.778 186.859 136.134C187.443 136.48 188.131 136.653 188.924 136.653C189.507 136.653 190.022 136.567 190.469 136.394C190.915 136.211 191.285 135.974 191.576 135.683C191.877 135.382 192.087 135.049 192.205 134.685L192.246 134.575H195.062L195.035 134.726C194.917 135.291 194.693 135.833 194.365 136.353C194.037 136.872 193.609 137.341 193.08 137.761C192.561 138.171 191.945 138.494 191.234 138.731C190.523 138.968 189.73 139.087 188.855 139.087ZM197.496 138.8V124.417H200.477V126.878H200.531C200.759 126.03 201.165 125.365 201.748 124.882C202.331 124.39 203.033 124.144 203.854 124.144C204.072 124.144 204.268 124.157 204.441 124.185C204.624 124.203 204.77 124.226 204.879 124.253V127.001C204.76 126.955 204.583 126.919 204.346 126.892C204.109 126.855 203.844 126.837 203.553 126.837C202.924 126.837 202.377 126.974 201.912 127.247C201.447 127.511 201.092 127.899 200.846 128.409C200.6 128.91 200.477 129.517 200.477 130.228V138.8H197.496ZM212.371 143.585V124.417H215.352V126.878H215.42C215.702 126.313 216.062 125.825 216.5 125.415C216.947 125.005 217.457 124.69 218.031 124.472C218.605 124.253 219.234 124.144 219.918 124.144C221.139 124.144 222.201 124.449 223.104 125.06C224.006 125.661 224.703 126.522 225.195 127.644C225.688 128.756 225.934 130.077 225.934 131.608V131.622C225.934 133.153 225.683 134.475 225.182 135.587C224.689 136.699 223.997 137.56 223.104 138.171C222.21 138.782 221.162 139.087 219.959 139.087C219.285 139.087 218.651 138.978 218.059 138.759C217.475 138.54 216.96 138.23 216.514 137.829C216.067 137.419 215.698 136.936 215.406 136.38H215.352V143.585H212.371ZM219.139 136.53C219.913 136.53 220.583 136.334 221.148 135.942C221.714 135.541 222.146 134.972 222.447 134.233C222.748 133.495 222.898 132.625 222.898 131.622V131.608C222.898 130.588 222.748 129.708 222.447 128.97C222.146 128.231 221.714 127.666 221.148 127.274C220.583 126.882 219.913 126.687 219.139 126.687C218.391 126.687 217.73 126.892 217.156 127.302C216.582 127.703 216.131 128.272 215.803 129.011C215.484 129.74 215.324 130.606 215.324 131.608V131.622C215.324 132.616 215.488 133.481 215.816 134.22C216.145 134.949 216.591 135.519 217.156 135.929C217.73 136.33 218.391 136.53 219.139 136.53ZM228.326 138.8V119.071H231.293V138.8H228.326ZM238.566 139.06C237.609 139.06 236.771 138.877 236.051 138.513C235.331 138.148 234.77 137.638 234.369 136.981C233.968 136.325 233.768 135.569 233.768 134.712V134.685C233.768 133.846 233.977 133.126 234.396 132.524C234.816 131.914 235.422 131.431 236.215 131.075C237.017 130.72 237.983 130.51 239.113 130.446L244.555 130.118V132.196L239.51 132.511C238.626 132.565 237.942 132.78 237.459 133.153C236.985 133.518 236.748 134.006 236.748 134.616V134.644C236.748 135.272 236.985 135.769 237.459 136.134C237.942 136.498 238.58 136.681 239.373 136.681C240.066 136.681 240.686 136.539 241.232 136.257C241.788 135.974 242.226 135.587 242.545 135.095C242.864 134.593 243.023 134.033 243.023 133.413V129.134C243.023 128.341 242.777 127.721 242.285 127.274C241.793 126.819 241.087 126.591 240.166 126.591C239.318 126.591 238.635 126.773 238.115 127.138C237.605 127.502 237.286 127.972 237.158 128.546L237.131 128.669H234.342L234.355 128.519C234.428 127.689 234.706 126.946 235.189 126.29C235.673 125.625 236.342 125.101 237.199 124.718C238.056 124.335 239.072 124.144 240.248 124.144C241.424 124.144 242.44 124.34 243.297 124.731C244.154 125.123 244.819 125.675 245.293 126.386C245.767 127.097 246.004 127.931 246.004 128.888V138.8H243.023V136.53H242.969C242.686 137.05 242.322 137.501 241.875 137.884C241.428 138.257 240.923 138.549 240.357 138.759C239.801 138.959 239.204 139.06 238.566 139.06ZM255.041 139.087C253.646 139.087 252.434 138.782 251.404 138.171C250.383 137.56 249.595 136.694 249.039 135.573C248.492 134.452 248.219 133.126 248.219 131.595V131.581C248.219 130.059 248.497 128.742 249.053 127.63C249.618 126.518 250.411 125.661 251.432 125.06C252.452 124.449 253.646 124.144 255.014 124.144C256.244 124.144 257.306 124.381 258.199 124.854C259.102 125.319 259.808 125.939 260.318 126.714C260.829 127.489 261.125 128.327 261.207 129.229L261.221 129.339H258.391L258.363 129.216C258.208 128.514 257.853 127.908 257.297 127.397C256.75 126.878 255.993 126.618 255.027 126.618C254.271 126.618 253.605 126.823 253.031 127.233C252.466 127.634 252.024 128.209 251.705 128.956C251.395 129.703 251.24 130.588 251.24 131.608V131.622C251.24 132.67 251.4 133.568 251.719 134.315C252.038 135.054 252.48 135.619 253.045 136.011C253.619 136.403 254.289 136.599 255.055 136.599C255.966 136.599 256.7 136.362 257.256 135.888C257.821 135.405 258.195 134.776 258.377 134.001L258.391 133.892H261.234V133.987C261.125 134.944 260.797 135.81 260.25 136.585C259.712 137.351 258.997 137.961 258.104 138.417C257.219 138.864 256.199 139.087 255.041 139.087ZM269.492 139.087C268.089 139.087 266.876 138.786 265.855 138.185C264.844 137.574 264.064 136.713 263.518 135.601C262.98 134.479 262.711 133.162 262.711 131.649V131.636C262.711 130.141 262.984 128.833 263.531 127.712C264.078 126.582 264.848 125.707 265.842 125.087C266.835 124.458 268.002 124.144 269.342 124.144C270.691 124.144 271.848 124.444 272.814 125.046C273.79 125.638 274.542 126.481 275.07 127.575C275.599 128.66 275.863 129.922 275.863 131.362V132.36H264.174V130.269H274.428L272.965 132.224V131.075C272.965 130.063 272.81 129.225 272.5 128.56C272.199 127.885 271.775 127.384 271.229 127.056C270.691 126.728 270.066 126.563 269.355 126.563C268.654 126.563 268.025 126.737 267.469 127.083C266.913 127.429 266.475 127.94 266.156 128.614C265.837 129.28 265.678 130.1 265.678 131.075V132.224C265.678 133.153 265.833 133.951 266.143 134.616C266.462 135.272 266.913 135.778 267.496 136.134C268.079 136.48 268.768 136.653 269.561 136.653C270.144 136.653 270.659 136.567 271.105 136.394C271.552 136.211 271.921 135.974 272.213 135.683C272.514 135.382 272.723 135.049 272.842 134.685L272.883 134.575H275.699L275.672 134.726C275.553 135.291 275.33 135.833 275.002 136.353C274.674 136.872 274.245 137.341 273.717 137.761C273.197 138.171 272.582 138.494 271.871 138.731C271.16 138.968 270.367 139.087 269.492 139.087ZM283.52 139.087C282.298 139.087 281.236 138.782 280.334 138.171C279.432 137.56 278.734 136.699 278.242 135.587C277.75 134.466 277.504 133.14 277.504 131.608V131.595C277.504 130.063 277.75 128.742 278.242 127.63C278.743 126.518 279.441 125.661 280.334 125.06C281.236 124.449 282.289 124.144 283.492 124.144C284.167 124.144 284.796 124.253 285.379 124.472C285.962 124.69 286.477 125.005 286.924 125.415C287.38 125.816 287.749 126.299 288.031 126.864H288.086V119.071H291.066V138.8H288.086V136.366H288.031C287.749 136.931 287.384 137.414 286.938 137.815C286.5 138.216 285.994 138.531 285.42 138.759C284.846 138.978 284.212 139.087 283.52 139.087ZM284.299 136.53C285.046 136.53 285.702 136.33 286.268 135.929C286.842 135.519 287.288 134.944 287.607 134.206C287.936 133.468 288.1 132.602 288.1 131.608V131.595C288.1 130.601 287.936 129.74 287.607 129.011C287.279 128.272 286.833 127.703 286.268 127.302C285.702 126.892 285.046 126.687 284.299 126.687C283.524 126.687 282.854 126.887 282.289 127.288C281.724 127.68 281.286 128.245 280.977 128.983C280.676 129.713 280.525 130.583 280.525 131.595V131.608C280.525 132.62 280.676 133.5 280.977 134.247C281.286 134.985 281.724 135.55 282.289 135.942C282.854 136.334 283.524 136.53 284.299 136.53Z" fill="#101010"/>
<path d="M141.742 177.8V163.151H141.672L137.23 166.269V164.124L141.73 160.89H143.793V177.8H141.742ZM154.07 160.585C154.852 160.585 155.621 160.733 156.379 161.03C157.137 161.319 157.824 161.796 158.441 162.46C159.066 163.116 159.562 163.983 159.93 165.062C160.305 166.132 160.492 167.456 160.492 169.034V169.058C160.492 170.964 160.23 172.593 159.707 173.944C159.191 175.288 158.445 176.319 157.469 177.038C156.492 177.749 155.312 178.104 153.93 178.104C152.984 178.104 152.125 177.933 151.352 177.589C150.578 177.245 149.934 176.765 149.418 176.147C148.91 175.53 148.559 174.812 148.363 173.991L148.328 173.839H150.473L150.52 173.968C150.691 174.429 150.934 174.831 151.246 175.175C151.566 175.511 151.953 175.772 152.406 175.96C152.867 176.14 153.383 176.229 153.953 176.229C155.008 176.229 155.855 175.929 156.496 175.327C157.145 174.718 157.621 173.913 157.926 172.913C158.238 171.913 158.41 170.823 158.441 169.644C158.449 169.558 158.453 169.476 158.453 169.397C158.453 169.319 158.453 169.237 158.453 169.151L157.949 166.362C157.949 165.636 157.777 164.979 157.434 164.394C157.098 163.8 156.637 163.331 156.051 162.987C155.473 162.636 154.82 162.46 154.094 162.46C153.383 162.46 152.734 162.632 152.148 162.976C151.562 163.312 151.098 163.772 150.754 164.358C150.41 164.937 150.238 165.581 150.238 166.292V166.315C150.238 167.058 150.402 167.714 150.73 168.284C151.059 168.854 151.512 169.304 152.09 169.632C152.668 169.96 153.324 170.124 154.059 170.124C154.801 170.124 155.465 169.964 156.051 169.644C156.637 169.315 157.098 168.87 157.434 168.308C157.777 167.745 157.949 167.101 157.949 166.374V166.362H158.652V169.269H158.371C158.152 169.761 157.82 170.214 157.375 170.628C156.938 171.034 156.406 171.362 155.781 171.612C155.156 171.854 154.461 171.976 153.695 171.976C152.633 171.976 151.676 171.733 150.824 171.249C149.98 170.757 149.316 170.089 148.832 169.245C148.348 168.401 148.105 167.44 148.105 166.362V166.339C148.105 165.229 148.363 164.241 148.879 163.374C149.395 162.507 150.102 161.827 151 161.335C151.898 160.835 152.922 160.585 154.07 160.585ZM168.625 177.8V160.89H174.332C176.004 160.89 177.434 161.226 178.621 161.897C179.809 162.562 180.719 163.522 181.352 164.78C181.992 166.03 182.312 167.542 182.312 169.315V169.339C182.312 171.112 181.996 172.632 181.363 173.897C180.73 175.163 179.82 176.132 178.633 176.804C177.445 177.468 176.012 177.8 174.332 177.8H168.625ZM170.734 175.901H174.191C175.465 175.901 176.543 175.647 177.426 175.14C178.316 174.632 178.992 173.89 179.453 172.913C179.922 171.937 180.156 170.753 180.156 169.362V169.339C180.156 167.94 179.922 166.753 179.453 165.776C178.992 164.8 178.316 164.058 177.426 163.55C176.543 163.042 175.465 162.788 174.191 162.788H170.734V175.901ZM189.859 178.034C188.688 178.034 187.68 177.776 186.836 177.261C185.992 176.737 185.344 176.003 184.891 175.058C184.438 174.112 184.211 172.999 184.211 171.718V171.706C184.211 170.433 184.438 169.315 184.891 168.354C185.352 167.394 185.992 166.644 186.812 166.104C187.641 165.565 188.613 165.296 189.73 165.296C190.848 165.296 191.809 165.554 192.613 166.069C193.418 166.585 194.035 167.308 194.465 168.237C194.902 169.159 195.121 170.233 195.121 171.46V172.222H185.242V170.628H194.102L193.07 172.104V171.308C193.07 170.354 192.926 169.569 192.637 168.952C192.355 168.327 191.961 167.862 191.453 167.558C190.953 167.253 190.375 167.101 189.719 167.101C189.062 167.101 188.473 167.261 187.949 167.581C187.434 167.901 187.027 168.374 186.73 168.999C186.434 169.624 186.285 170.394 186.285 171.308V172.104C186.285 172.972 186.43 173.714 186.719 174.331C187.016 174.94 187.434 175.409 187.973 175.737C188.52 176.065 189.164 176.229 189.906 176.229C190.43 176.229 190.895 176.151 191.301 175.995C191.715 175.839 192.059 175.628 192.332 175.362C192.605 175.089 192.801 174.784 192.918 174.448L192.953 174.343H194.969L194.945 174.46C194.836 174.944 194.641 175.405 194.359 175.843C194.078 176.272 193.715 176.651 193.27 176.979C192.824 177.308 192.312 177.565 191.734 177.753C191.164 177.94 190.539 178.034 189.859 178.034ZM202.457 178.034C201.301 178.034 200.297 177.772 199.445 177.249C198.594 176.726 197.934 175.987 197.465 175.034C197.004 174.073 196.773 172.944 196.773 171.647V171.636C196.773 170.347 197.008 169.229 197.477 168.284C197.953 167.331 198.613 166.597 199.457 166.081C200.309 165.558 201.301 165.296 202.434 165.296C203.449 165.296 204.32 165.491 205.047 165.882C205.781 166.272 206.359 166.78 206.781 167.405C207.203 168.022 207.461 168.683 207.555 169.386L207.566 169.479H205.562L205.551 169.397C205.395 168.78 205.059 168.245 204.543 167.792C204.035 167.331 203.332 167.101 202.434 167.101C201.723 167.101 201.098 167.288 200.559 167.663C200.027 168.038 199.609 168.565 199.305 169.245C199.008 169.925 198.859 170.729 198.859 171.659V171.671C198.859 172.616 199.012 173.429 199.316 174.108C199.621 174.788 200.039 175.312 200.57 175.679C201.109 176.046 201.738 176.229 202.457 176.229C203.293 176.229 203.973 176.022 204.496 175.608C205.02 175.194 205.371 174.644 205.551 173.956L205.574 173.862H207.578L207.566 173.956C207.449 174.729 207.164 175.425 206.711 176.042C206.258 176.651 205.668 177.136 204.941 177.495C204.223 177.854 203.395 178.034 202.457 178.034ZM214.949 177.8V176.347L220.855 170.136C221.613 169.347 222.191 168.694 222.59 168.179C222.996 167.655 223.277 167.187 223.434 166.772C223.59 166.358 223.668 165.917 223.668 165.448V165.425C223.668 164.839 223.535 164.323 223.27 163.878C223.004 163.425 222.633 163.069 222.156 162.812C221.68 162.554 221.129 162.425 220.504 162.425C219.809 162.425 219.188 162.569 218.641 162.858C218.094 163.147 217.664 163.542 217.352 164.042C217.039 164.534 216.883 165.089 216.883 165.706V165.753H214.844V165.694C214.844 164.718 215.094 163.843 215.594 163.069C216.102 162.296 216.781 161.69 217.633 161.253C218.492 160.808 219.449 160.585 220.504 160.585C221.52 160.585 222.426 160.792 223.223 161.206C224.02 161.62 224.645 162.183 225.098 162.894C225.559 163.604 225.789 164.405 225.789 165.296V165.319C225.789 165.937 225.672 166.538 225.438 167.124C225.211 167.702 224.812 168.354 224.242 169.081C223.672 169.8 222.871 170.69 221.84 171.753L217.246 176.464L217.855 175.222V176.464L217.246 175.925H226.07V177.8H214.949ZM234.555 178.104C233.266 178.104 232.16 177.749 231.238 177.038C230.324 176.319 229.621 175.308 229.129 174.003C228.645 172.698 228.402 171.147 228.402 169.351V169.327C228.402 167.53 228.645 165.979 229.129 164.675C229.621 163.37 230.324 162.362 231.238 161.651C232.16 160.94 233.266 160.585 234.555 160.585C235.844 160.585 236.949 160.94 237.871 161.651C238.793 162.362 239.5 163.37 239.992 164.675C240.492 165.979 240.742 167.53 240.742 169.327V169.351C240.742 171.147 240.492 172.698 239.992 174.003C239.5 175.308 238.793 176.319 237.871 177.038C236.949 177.749 235.844 178.104 234.555 178.104ZM234.555 176.265C235.406 176.265 236.133 175.983 236.734 175.421C237.344 174.858 237.809 174.062 238.129 173.03C238.457 171.999 238.621 170.772 238.621 169.351V169.327C238.621 167.905 238.457 166.683 238.129 165.659C237.809 164.628 237.344 163.835 236.734 163.28C236.133 162.718 235.406 162.437 234.555 162.437C233.711 162.437 232.984 162.718 232.375 163.28C231.773 163.835 231.312 164.628 230.992 165.659C230.68 166.683 230.523 167.905 230.523 169.327V169.351C230.523 170.772 230.68 171.999 230.992 173.03C231.312 174.062 231.773 174.858 232.375 175.421C232.984 175.983 233.711 176.265 234.555 176.265ZM243.191 177.8V176.347L249.098 170.136C249.855 169.347 250.434 168.694 250.832 168.179C251.238 167.655 251.52 167.187 251.676 166.772C251.832 166.358 251.91 165.917 251.91 165.448V165.425C251.91 164.839 251.777 164.323 251.512 163.878C251.246 163.425 250.875 163.069 250.398 162.812C249.922 162.554 249.371 162.425 248.746 162.425C248.051 162.425 247.43 162.569 246.883 162.858C246.336 163.147 245.906 163.542 245.594 164.042C245.281 164.534 245.125 165.089 245.125 165.706V165.753H243.086V165.694C243.086 164.718 243.336 163.843 243.836 163.069C244.344 162.296 245.023 161.69 245.875 161.253C246.734 160.808 247.691 160.585 248.746 160.585C249.762 160.585 250.668 160.792 251.465 161.206C252.262 161.62 252.887 162.183 253.34 162.894C253.801 163.604 254.031 164.405 254.031 165.296V165.319C254.031 165.937 253.914 166.538 253.68 167.124C253.453 167.702 253.055 168.354 252.484 169.081C251.914 169.8 251.113 170.69 250.082 171.753L245.488 176.464L246.098 175.222V176.464L245.488 175.925H254.312V177.8H243.191ZM264.391 177.8V174.284H255.941V172.374C256.426 171.608 256.914 170.843 257.406 170.077C257.898 169.304 258.391 168.534 258.883 167.769C259.383 166.995 259.879 166.226 260.371 165.46C260.863 164.694 261.355 163.933 261.848 163.175C262.348 162.409 262.84 161.647 263.324 160.89H266.43V172.433H268.832V174.284H266.43V177.8H264.391ZM258.039 172.433H264.391V162.718H264.309C263.895 163.358 263.477 163.999 263.055 164.64C262.641 165.272 262.223 165.913 261.801 166.562C261.387 167.202 260.969 167.847 260.547 168.495C260.125 169.144 259.703 169.792 259.281 170.44C258.867 171.081 258.453 171.722 258.039 172.362V172.433ZM270.168 181.292L271.188 175.397H273.367L271.633 181.292H270.168ZM285.062 177.8V163.151H284.992L280.551 166.269V164.124L285.051 160.89H287.113V177.8H285.062ZM295.797 177.8V163.151H295.727L291.285 166.269V164.124L295.785 160.89H297.848V177.8H295.797ZM303.543 175.245C303.16 175.245 302.836 175.112 302.57 174.847C302.305 174.581 302.172 174.257 302.172 173.874C302.172 173.491 302.305 173.167 302.57 172.901C302.836 172.636 303.16 172.503 303.543 172.503C303.926 172.503 304.25 172.636 304.516 172.901C304.781 173.167 304.914 173.491 304.914 173.874C304.914 174.257 304.781 174.581 304.516 174.847C304.25 175.112 303.926 175.245 303.543 175.245ZM303.543 166.175C303.16 166.175 302.836 166.042 302.57 165.776C302.305 165.511 302.172 165.187 302.172 164.804C302.172 164.421 302.305 164.097 302.57 163.831C302.836 163.565 303.16 163.433 303.543 163.433C303.926 163.433 304.25 163.565 304.516 163.831C304.781 164.097 304.914 164.421 304.914 164.804C304.914 165.187 304.781 165.511 304.516 165.776C304.25 166.042 303.926 166.175 303.543 166.175ZM307.809 177.8V176.347L313.715 170.136C314.473 169.347 315.051 168.694 315.449 168.179C315.855 167.655 316.137 167.187 316.293 166.772C316.449 166.358 316.527 165.917 316.527 165.448V165.425C316.527 164.839 316.395 164.323 316.129 163.878C315.863 163.425 315.492 163.069 315.016 162.812C314.539 162.554 313.988 162.425 313.363 162.425C312.668 162.425 312.047 162.569 311.5 162.858C310.953 163.147 310.523 163.542 310.211 164.042C309.898 164.534 309.742 165.089 309.742 165.706V165.753H307.703V165.694C307.703 164.718 307.953 163.843 308.453 163.069C308.961 162.296 309.641 161.69 310.492 161.253C311.352 160.808 312.309 160.585 313.363 160.585C314.379 160.585 315.285 160.792 316.082 161.206C316.879 161.62 317.504 162.183 317.957 162.894C318.418 163.604 318.648 164.405 318.648 165.296V165.319C318.648 165.937 318.531 166.538 318.297 167.124C318.07 167.702 317.672 168.354 317.102 169.081C316.531 169.8 315.73 170.69 314.699 171.753L310.105 176.464L310.715 175.222V176.464L310.105 175.925H318.93V177.8H307.809ZM327.332 178.104C326.262 178.104 325.309 177.897 324.473 177.483C323.637 177.069 322.965 176.503 322.457 175.784C321.949 175.065 321.652 174.249 321.566 173.335L321.555 173.206H323.617L323.629 173.3C323.699 173.854 323.902 174.358 324.238 174.812C324.574 175.257 325.008 175.608 325.539 175.866C326.078 176.124 326.684 176.253 327.355 176.253C328.121 176.253 328.793 176.089 329.371 175.761C329.957 175.425 330.414 174.968 330.742 174.39C331.07 173.804 331.234 173.132 331.234 172.374V172.351C331.234 171.608 331.066 170.952 330.73 170.382C330.402 169.804 329.949 169.351 329.371 169.022C328.801 168.694 328.141 168.53 327.391 168.53C326.82 168.53 326.293 168.616 325.809 168.788C325.324 168.952 324.895 169.206 324.52 169.55C324.371 169.69 324.227 169.843 324.086 170.007C323.953 170.171 323.832 170.351 323.723 170.546H321.871L322.738 160.89H332.371V162.765H324.461L323.887 168.46H323.957C324.223 168.077 324.547 167.757 324.93 167.499C325.32 167.241 325.754 167.046 326.23 166.913C326.715 166.78 327.227 166.714 327.766 166.714C328.844 166.714 329.801 166.956 330.637 167.44C331.473 167.925 332.129 168.589 332.605 169.433C333.09 170.269 333.332 171.229 333.332 172.315V172.339C333.332 173.464 333.074 174.464 332.559 175.339C332.043 176.206 331.332 176.886 330.426 177.378C329.527 177.862 328.496 178.104 327.332 178.104ZM337.07 171.765V169.89H341.559C342.77 169.89 343.707 169.577 344.371 168.952C345.035 168.319 345.367 167.448 345.367 166.339V166.315C345.367 165.198 345.035 164.327 344.371 163.702C343.707 163.077 342.77 162.765 341.559 162.765H337.07V160.89H342.098C343.16 160.89 344.098 161.116 344.91 161.569C345.723 162.022 346.359 162.655 346.82 163.468C347.289 164.28 347.523 165.222 347.523 166.292V166.315C347.523 167.386 347.289 168.331 346.82 169.151C346.359 169.972 345.723 170.612 344.91 171.073C344.098 171.534 343.16 171.765 342.098 171.765H337.07ZM336.016 177.8V160.89H338.125V177.8H336.016ZM350.125 177.8V160.89H352.562L358.41 175.116H358.504L364.352 160.89H366.789V177.8H364.82V164.757H363.848L366.145 161.358L359.348 177.8H357.566L350.77 161.358L353.066 164.757H352.094V177.8H350.125Z" fill="#3B3B3B"/>
<g clip-path="url(#clip1_1070_22490)">
<rect x="64" y="236.8" width="48" height="48" rx="24" fill="#FE6213"/>
<path fill-rule="evenodd" clip-rule="evenodd" d="M98.192 251.579L83.872 265.399L80.072 261.339C79.372 260.679 78.272 260.639 77.472 261.199C76.692 261.779 76.472 262.799 76.952 263.619L81.452 270.939C81.892 271.619 82.652 272.039 83.512 272.039C84.332 272.039 85.112 271.619 85.552 270.939C86.272 269.999 100.012 253.619 100.012 253.619C101.812 251.779 99.632 250.159 98.192 251.559V251.579Z" fill="#FBFAFA"/>
</g>
<rect x="86" y="292.8" width="4" height="68" rx="2" fill="#FE6213"/>
<path d="M137.818 270.8V251.071H140.881V270.8H137.818ZM144.148 270.8V256.417H147.129V258.591H147.184C147.566 257.862 148.127 257.274 148.865 256.827C149.604 256.371 150.515 256.144 151.6 256.144C153.176 256.144 154.398 256.622 155.264 257.579C156.13 258.527 156.562 259.83 156.562 261.489V270.8H153.596V262.063C153.596 260.979 153.34 260.145 152.83 259.562C152.329 258.978 151.568 258.687 150.547 258.687C149.854 258.687 149.248 258.841 148.729 259.151C148.218 259.461 147.822 259.894 147.539 260.45C147.266 261.006 147.129 261.662 147.129 262.419V270.8H144.148ZM166.967 264.06V261.489H172.025C173.347 261.489 174.372 261.147 175.102 260.464C175.84 259.771 176.209 258.814 176.209 257.593V257.565C176.209 256.326 175.84 255.364 175.102 254.681C174.372 253.997 173.347 253.655 172.025 253.655H166.967V251.071H172.791C174.085 251.071 175.22 251.345 176.195 251.892C177.18 252.429 177.95 253.186 178.506 254.161C179.062 255.127 179.34 256.253 179.34 257.538V257.565C179.34 258.851 179.062 259.985 178.506 260.97C177.95 261.945 177.18 262.706 176.195 263.253C175.22 263.791 174.085 264.06 172.791 264.06H166.967ZM165.436 270.8V251.071H168.498V270.8H165.436ZM181.664 270.8V256.417H184.645V258.878H184.699C184.927 258.03 185.333 257.365 185.916 256.882C186.499 256.39 187.201 256.144 188.021 256.144C188.24 256.144 188.436 256.157 188.609 256.185C188.792 256.203 188.938 256.226 189.047 256.253V259.001C188.928 258.955 188.751 258.919 188.514 258.892C188.277 258.855 188.012 258.837 187.721 258.837C187.092 258.837 186.545 258.974 186.08 259.247C185.615 259.511 185.26 259.899 185.014 260.409C184.768 260.91 184.645 261.517 184.645 262.228V270.8H181.664ZM196.484 271.087C195.108 271.087 193.905 270.786 192.875 270.185C191.854 269.574 191.061 268.713 190.496 267.601C189.931 266.479 189.648 265.149 189.648 263.608V263.581C189.648 262.05 189.931 260.728 190.496 259.616C191.07 258.504 191.868 257.647 192.889 257.046C193.919 256.444 195.113 256.144 196.471 256.144C197.838 256.144 199.032 256.444 200.053 257.046C201.083 257.638 201.88 258.491 202.445 259.603C203.02 260.715 203.307 262.041 203.307 263.581V263.608C203.307 265.158 203.02 266.489 202.445 267.601C201.88 268.713 201.087 269.574 200.066 270.185C199.046 270.786 197.852 271.087 196.484 271.087ZM196.498 268.599C197.264 268.599 197.929 268.403 198.494 268.011C199.059 267.619 199.497 267.054 199.807 266.315C200.117 265.568 200.271 264.666 200.271 263.608V263.581C200.271 262.533 200.117 261.64 199.807 260.901C199.497 260.154 199.055 259.589 198.48 259.206C197.906 258.814 197.236 258.618 196.471 258.618C195.714 258.618 195.049 258.814 194.475 259.206C193.91 259.598 193.467 260.163 193.148 260.901C192.829 261.64 192.67 262.533 192.67 263.581V263.608C192.67 264.666 192.825 265.568 193.135 266.315C193.454 267.054 193.9 267.619 194.475 268.011C195.049 268.403 195.723 268.599 196.498 268.599ZM211.92 275.872C210.689 275.872 209.614 275.699 208.693 275.353C207.782 275.006 207.048 274.537 206.492 273.944C205.936 273.352 205.585 272.691 205.439 271.962L205.412 271.839H208.365L208.406 271.948C208.607 272.404 209.008 272.773 209.609 273.056C210.22 273.347 210.986 273.493 211.906 273.493C213.073 273.493 213.971 273.197 214.6 272.604C215.229 272.021 215.543 271.233 215.543 270.239V268.257H215.475C215.201 268.776 214.841 269.228 214.395 269.61C213.957 269.993 213.447 270.289 212.863 270.499C212.28 270.709 211.642 270.813 210.949 270.813C209.746 270.813 208.693 270.517 207.791 269.925C206.889 269.323 206.191 268.476 205.699 267.382C205.207 266.288 204.961 264.994 204.961 263.499V263.485C204.961 261.981 205.212 260.683 205.713 259.589C206.214 258.486 206.916 257.638 207.818 257.046C208.73 256.444 209.792 256.144 211.004 256.144C211.688 256.144 212.312 256.257 212.877 256.485C213.451 256.713 213.957 257.032 214.395 257.442C214.832 257.843 215.192 258.317 215.475 258.864H215.543V256.417H218.51V270.403C218.51 271.497 218.241 272.454 217.703 273.274C217.174 274.095 216.413 274.733 215.42 275.188C214.436 275.644 213.269 275.872 211.92 275.872ZM211.783 268.407C212.54 268.407 213.196 268.207 213.752 267.806C214.317 267.405 214.755 266.84 215.064 266.11C215.383 265.381 215.543 264.524 215.543 263.54V263.526C215.543 262.542 215.383 261.69 215.064 260.97C214.755 260.241 214.317 259.68 213.752 259.288C213.187 258.887 212.531 258.687 211.783 258.687C211.008 258.687 210.334 258.882 209.76 259.274C209.195 259.666 208.757 260.227 208.447 260.956C208.137 261.676 207.982 262.528 207.982 263.513V263.526C207.982 264.538 208.137 265.409 208.447 266.138C208.757 266.858 209.195 267.418 209.76 267.819C210.334 268.211 211.008 268.407 211.783 268.407ZM221.422 270.8V256.417H224.402V258.878H224.457C224.685 258.03 225.09 257.365 225.674 256.882C226.257 256.39 226.959 256.144 227.779 256.144C227.998 256.144 228.194 256.157 228.367 256.185C228.549 256.203 228.695 256.226 228.805 256.253V259.001C228.686 258.955 228.508 258.919 228.271 258.892C228.035 258.855 227.77 258.837 227.479 258.837C226.85 258.837 226.303 258.974 225.838 259.247C225.373 259.511 225.018 259.899 224.771 260.409C224.525 260.91 224.402 261.517 224.402 262.228V270.8H221.422ZM236.188 271.087C234.784 271.087 233.572 270.786 232.551 270.185C231.539 269.574 230.76 268.713 230.213 267.601C229.675 266.479 229.406 265.162 229.406 263.649V263.636C229.406 262.141 229.68 260.833 230.227 259.712C230.773 258.582 231.544 257.707 232.537 257.087C233.531 256.458 234.697 256.144 236.037 256.144C237.386 256.144 238.544 256.444 239.51 257.046C240.485 257.638 241.237 258.481 241.766 259.575C242.294 260.66 242.559 261.922 242.559 263.362V264.36H230.869V262.269H241.123L239.66 264.224V263.075C239.66 262.063 239.505 261.225 239.195 260.56C238.895 259.885 238.471 259.384 237.924 259.056C237.386 258.728 236.762 258.563 236.051 258.563C235.349 258.563 234.72 258.737 234.164 259.083C233.608 259.429 233.171 259.94 232.852 260.614C232.533 261.28 232.373 262.1 232.373 263.075V264.224C232.373 265.153 232.528 265.951 232.838 266.616C233.157 267.272 233.608 267.778 234.191 268.134C234.775 268.48 235.463 268.653 236.256 268.653C236.839 268.653 237.354 268.567 237.801 268.394C238.247 268.211 238.617 267.974 238.908 267.683C239.209 267.382 239.419 267.049 239.537 266.685L239.578 266.575H242.395L242.367 266.726C242.249 267.291 242.025 267.833 241.697 268.353C241.369 268.872 240.941 269.341 240.412 269.761C239.893 270.171 239.277 270.494 238.566 270.731C237.855 270.968 237.062 271.087 236.188 271.087ZM250.242 271.087C249.039 271.087 248.005 270.905 247.139 270.54C246.282 270.166 245.607 269.651 245.115 268.995C244.623 268.33 244.327 267.56 244.227 266.685L244.213 266.562H247.139L247.166 266.698C247.312 267.354 247.635 267.869 248.137 268.243C248.638 268.608 249.34 268.79 250.242 268.79C250.844 268.79 251.354 268.717 251.773 268.571C252.193 268.416 252.516 268.198 252.744 267.915C252.972 267.632 253.086 267.295 253.086 266.903V266.89C253.086 266.425 252.936 266.051 252.635 265.769C252.334 265.486 251.796 265.249 251.021 265.058L248.67 264.524C247.758 264.315 246.997 264.028 246.387 263.663C245.785 263.299 245.334 262.852 245.033 262.323C244.732 261.795 244.582 261.184 244.582 260.491V260.478C244.582 259.612 244.814 258.855 245.279 258.208C245.744 257.552 246.396 257.046 247.234 256.69C248.073 256.326 249.044 256.144 250.146 256.144C251.277 256.144 252.252 256.335 253.072 256.718C253.893 257.101 254.531 257.625 254.986 258.29C255.451 258.946 255.706 259.68 255.752 260.491V260.655H252.977L252.963 260.56C252.881 259.931 252.598 259.42 252.115 259.028C251.632 258.627 250.976 258.427 250.146 258.427C249.618 258.427 249.158 258.504 248.766 258.659C248.374 258.814 248.073 259.037 247.863 259.329C247.654 259.612 247.549 259.944 247.549 260.327V260.341C247.549 260.632 247.617 260.897 247.754 261.134C247.9 261.371 248.132 261.576 248.451 261.749C248.77 261.922 249.18 262.068 249.682 262.187L252.033 262.733C253.501 263.071 254.54 263.549 255.15 264.169C255.77 264.78 256.08 265.604 256.08 266.644V266.657C256.08 267.532 255.829 268.302 255.328 268.968C254.827 269.633 254.134 270.153 253.25 270.526C252.375 270.9 251.372 271.087 250.242 271.087ZM263.777 271.087C262.574 271.087 261.54 270.905 260.674 270.54C259.817 270.166 259.143 269.651 258.65 268.995C258.158 268.33 257.862 267.56 257.762 266.685L257.748 266.562H260.674L260.701 266.698C260.847 267.354 261.171 267.869 261.672 268.243C262.173 268.608 262.875 268.79 263.777 268.79C264.379 268.79 264.889 268.717 265.309 268.571C265.728 268.416 266.051 268.198 266.279 267.915C266.507 267.632 266.621 267.295 266.621 266.903V266.89C266.621 266.425 266.471 266.051 266.17 265.769C265.869 265.486 265.331 265.249 264.557 265.058L262.205 264.524C261.294 264.315 260.533 264.028 259.922 263.663C259.32 263.299 258.869 262.852 258.568 262.323C258.268 261.795 258.117 261.184 258.117 260.491V260.478C258.117 259.612 258.35 258.855 258.814 258.208C259.279 257.552 259.931 257.046 260.77 256.69C261.608 256.326 262.579 256.144 263.682 256.144C264.812 256.144 265.787 256.335 266.607 256.718C267.428 257.101 268.066 257.625 268.521 258.29C268.986 258.946 269.242 259.68 269.287 260.491V260.655H266.512L266.498 260.56C266.416 259.931 266.133 259.42 265.65 259.028C265.167 258.627 264.511 258.427 263.682 258.427C263.153 258.427 262.693 258.504 262.301 258.659C261.909 258.814 261.608 259.037 261.398 259.329C261.189 259.612 261.084 259.944 261.084 260.327V260.341C261.084 260.632 261.152 260.897 261.289 261.134C261.435 261.371 261.667 261.576 261.986 261.749C262.305 261.922 262.715 262.068 263.217 262.187L265.568 262.733C267.036 263.071 268.075 263.549 268.686 264.169C269.305 264.78 269.615 265.604 269.615 266.644V266.657C269.615 267.532 269.365 268.302 268.863 268.968C268.362 269.633 267.669 270.153 266.785 270.526C265.91 270.9 264.908 271.087 263.777 271.087Z" fill="#101010"/>
<path d="M137.465 309.8V308.347L143.371 302.136C144.129 301.347 144.707 300.694 145.105 300.179C145.512 299.655 145.793 299.187 145.949 298.772C146.105 298.358 146.184 297.917 146.184 297.448V297.425C146.184 296.839 146.051 296.323 145.785 295.878C145.52 295.425 145.148 295.069 144.672 294.812C144.195 294.554 143.645 294.425 143.02 294.425C142.324 294.425 141.703 294.569 141.156 294.858C140.609 295.147 140.18 295.542 139.867 296.042C139.555 296.534 139.398 297.089 139.398 297.706V297.753H137.359V297.694C137.359 296.718 137.609 295.843 138.109 295.069C138.617 294.296 139.297 293.69 140.148 293.253C141.008 292.808 141.965 292.585 143.02 292.585C144.035 292.585 144.941 292.792 145.738 293.206C146.535 293.62 147.16 294.183 147.613 294.894C148.074 295.604 148.305 296.405 148.305 297.296V297.319C148.305 297.937 148.188 298.538 147.953 299.124C147.727 299.702 147.328 300.354 146.758 301.081C146.188 301.8 145.387 302.69 144.355 303.753L139.762 308.464L140.371 307.222V308.464L139.762 307.925H148.586V309.8H137.465ZM157.07 310.104C155.781 310.104 154.676 309.749 153.754 309.038C152.84 308.319 152.137 307.308 151.645 306.003C151.16 304.698 150.918 303.147 150.918 301.351V301.327C150.918 299.53 151.16 297.979 151.645 296.675C152.137 295.37 152.84 294.362 153.754 293.651C154.676 292.94 155.781 292.585 157.07 292.585C158.359 292.585 159.465 292.94 160.387 293.651C161.309 294.362 162.016 295.37 162.508 296.675C163.008 297.979 163.258 299.53 163.258 301.327V301.351C163.258 303.147 163.008 304.698 162.508 306.003C162.016 307.308 161.309 308.319 160.387 309.038C159.465 309.749 158.359 310.104 157.07 310.104ZM157.07 308.265C157.922 308.265 158.648 307.983 159.25 307.421C159.859 306.858 160.324 306.062 160.645 305.03C160.973 303.999 161.137 302.772 161.137 301.351V301.327C161.137 299.905 160.973 298.683 160.645 297.659C160.324 296.628 159.859 295.835 159.25 295.28C158.648 294.718 157.922 294.437 157.07 294.437C156.227 294.437 155.5 294.718 154.891 295.28C154.289 295.835 153.828 296.628 153.508 297.659C153.195 298.683 153.039 299.905 153.039 301.327V301.351C153.039 302.772 153.195 303.999 153.508 305.03C153.828 306.062 154.289 306.858 154.891 307.421C155.5 307.983 156.227 308.265 157.07 308.265ZM171.414 309.8V292.89H177.121C178.793 292.89 180.223 293.226 181.41 293.897C182.598 294.562 183.508 295.522 184.141 296.78C184.781 298.03 185.102 299.542 185.102 301.315V301.339C185.102 303.112 184.785 304.632 184.152 305.897C183.52 307.163 182.609 308.132 181.422 308.804C180.234 309.468 178.801 309.8 177.121 309.8H171.414ZM173.523 307.901H176.98C178.254 307.901 179.332 307.647 180.215 307.14C181.105 306.632 181.781 305.89 182.242 304.913C182.711 303.937 182.945 302.753 182.945 301.362V301.339C182.945 299.94 182.711 298.753 182.242 297.776C181.781 296.8 181.105 296.058 180.215 295.55C179.332 295.042 178.254 294.788 176.98 294.788H173.523V307.901ZM192.648 310.034C191.477 310.034 190.469 309.776 189.625 309.261C188.781 308.737 188.133 308.003 187.68 307.058C187.227 306.112 187 304.999 187 303.718V303.706C187 302.433 187.227 301.315 187.68 300.354C188.141 299.394 188.781 298.644 189.602 298.104C190.43 297.565 191.402 297.296 192.52 297.296C193.637 297.296 194.598 297.554 195.402 298.069C196.207 298.585 196.824 299.308 197.254 300.237C197.691 301.159 197.91 302.233 197.91 303.46V304.222H188.031V302.628H196.891L195.859 304.104V303.308C195.859 302.354 195.715 301.569 195.426 300.952C195.145 300.327 194.75 299.862 194.242 299.558C193.742 299.253 193.164 299.101 192.508 299.101C191.852 299.101 191.262 299.261 190.738 299.581C190.223 299.901 189.816 300.374 189.52 300.999C189.223 301.624 189.074 302.394 189.074 303.308V304.104C189.074 304.972 189.219 305.714 189.508 306.331C189.805 306.94 190.223 307.409 190.762 307.737C191.309 308.065 191.953 308.229 192.695 308.229C193.219 308.229 193.684 308.151 194.09 307.995C194.504 307.839 194.848 307.628 195.121 307.362C195.395 307.089 195.59 306.784 195.707 306.448L195.742 306.343H197.758L197.734 306.46C197.625 306.944 197.43 307.405 197.148 307.843C196.867 308.272 196.504 308.651 196.059 308.979C195.613 309.308 195.102 309.565 194.523 309.753C193.953 309.94 193.328 310.034 192.648 310.034ZM205.246 310.034C204.09 310.034 203.086 309.772 202.234 309.249C201.383 308.726 200.723 307.987 200.254 307.034C199.793 306.073 199.562 304.944 199.562 303.647V303.636C199.562 302.347 199.797 301.229 200.266 300.284C200.742 299.331 201.402 298.597 202.246 298.081C203.098 297.558 204.09 297.296 205.223 297.296C206.238 297.296 207.109 297.491 207.836 297.882C208.57 298.272 209.148 298.78 209.57 299.405C209.992 300.022 210.25 300.683 210.344 301.386L210.355 301.479H208.352L208.34 301.397C208.184 300.78 207.848 300.245 207.332 299.792C206.824 299.331 206.121 299.101 205.223 299.101C204.512 299.101 203.887 299.288 203.348 299.663C202.816 300.038 202.398 300.565 202.094 301.245C201.797 301.925 201.648 302.729 201.648 303.659V303.671C201.648 304.616 201.801 305.429 202.105 306.108C202.41 306.788 202.828 307.312 203.359 307.679C203.898 308.046 204.527 308.229 205.246 308.229C206.082 308.229 206.762 308.022 207.285 307.608C207.809 307.194 208.16 306.644 208.34 305.956L208.363 305.862H210.367L210.355 305.956C210.238 306.729 209.953 307.425 209.5 308.042C209.047 308.651 208.457 309.136 207.73 309.495C207.012 309.854 206.184 310.034 205.246 310.034ZM217.738 309.8V308.347L223.645 302.136C224.402 301.347 224.98 300.694 225.379 300.179C225.785 299.655 226.066 299.187 226.223 298.772C226.379 298.358 226.457 297.917 226.457 297.448V297.425C226.457 296.839 226.324 296.323 226.059 295.878C225.793 295.425 225.422 295.069 224.945 294.812C224.469 294.554 223.918 294.425 223.293 294.425C222.598 294.425 221.977 294.569 221.43 294.858C220.883 295.147 220.453 295.542 220.141 296.042C219.828 296.534 219.672 297.089 219.672 297.706V297.753H217.633V297.694C217.633 296.718 217.883 295.843 218.383 295.069C218.891 294.296 219.57 293.69 220.422 293.253C221.281 292.808 222.238 292.585 223.293 292.585C224.309 292.585 225.215 292.792 226.012 293.206C226.809 293.62 227.434 294.183 227.887 294.894C228.348 295.604 228.578 296.405 228.578 297.296V297.319C228.578 297.937 228.461 298.538 228.227 299.124C228 299.702 227.602 300.354 227.031 301.081C226.461 301.8 225.66 302.69 224.629 303.753L220.035 308.464L220.645 307.222V308.464L220.035 307.925H228.859V309.8H217.738ZM237.344 310.104C236.055 310.104 234.949 309.749 234.027 309.038C233.113 308.319 232.41 307.308 231.918 306.003C231.434 304.698 231.191 303.147 231.191 301.351V301.327C231.191 299.53 231.434 297.979 231.918 296.675C232.41 295.37 233.113 294.362 234.027 293.651C234.949 292.94 236.055 292.585 237.344 292.585C238.633 292.585 239.738 292.94 240.66 293.651C241.582 294.362 242.289 295.37 242.781 296.675C243.281 297.979 243.531 299.53 243.531 301.327V301.351C243.531 303.147 243.281 304.698 242.781 306.003C242.289 307.308 241.582 308.319 240.66 309.038C239.738 309.749 238.633 310.104 237.344 310.104ZM237.344 308.265C238.195 308.265 238.922 307.983 239.523 307.421C240.133 306.858 240.598 306.062 240.918 305.03C241.246 303.999 241.41 302.772 241.41 301.351V301.327C241.41 299.905 241.246 298.683 240.918 297.659C240.598 296.628 240.133 295.835 239.523 295.28C238.922 294.718 238.195 294.437 237.344 294.437C236.5 294.437 235.773 294.718 235.164 295.28C234.562 295.835 234.102 296.628 233.781 297.659C233.469 298.683 233.312 299.905 233.312 301.327V301.351C233.312 302.772 233.469 303.999 233.781 305.03C234.102 306.062 234.562 306.858 235.164 307.421C235.773 307.983 236.5 308.265 237.344 308.265ZM245.98 309.8V308.347L251.887 302.136C252.645 301.347 253.223 300.694 253.621 300.179C254.027 299.655 254.309 299.187 254.465 298.772C254.621 298.358 254.699 297.917 254.699 297.448V297.425C254.699 296.839 254.566 296.323 254.301 295.878C254.035 295.425 253.664 295.069 253.188 294.812C252.711 294.554 252.16 294.425 251.535 294.425C250.84 294.425 250.219 294.569 249.672 294.858C249.125 295.147 248.695 295.542 248.383 296.042C248.07 296.534 247.914 297.089 247.914 297.706V297.753H245.875V297.694C245.875 296.718 246.125 295.843 246.625 295.069C247.133 294.296 247.812 293.69 248.664 293.253C249.523 292.808 250.48 292.585 251.535 292.585C252.551 292.585 253.457 292.792 254.254 293.206C255.051 293.62 255.676 294.183 256.129 294.894C256.59 295.604 256.82 296.405 256.82 297.296V297.319C256.82 297.937 256.703 298.538 256.469 299.124C256.242 299.702 255.844 300.354 255.273 301.081C254.703 301.8 253.902 302.69 252.871 303.753L248.277 308.464L248.887 307.222V308.464L248.277 307.925H257.102V309.8H245.98ZM267.18 309.8V306.284H258.73V304.374C259.215 303.608 259.703 302.843 260.195 302.077C260.688 301.304 261.18 300.534 261.672 299.769C262.172 298.995 262.668 298.226 263.16 297.46C263.652 296.694 264.145 295.933 264.637 295.175C265.137 294.409 265.629 293.647 266.113 292.89H269.219V304.433H271.621V306.284H269.219V309.8H267.18ZM260.828 304.433H267.18V294.718H267.098C266.684 295.358 266.266 295.999 265.844 296.64C265.43 297.272 265.012 297.913 264.59 298.562C264.176 299.202 263.758 299.847 263.336 300.495C262.914 301.144 262.492 301.792 262.07 302.44C261.656 303.081 261.242 303.722 260.828 304.362V304.433ZM272.957 313.292L273.977 307.397H276.156L274.422 313.292H272.957ZM289.422 310.104C288.133 310.104 287.027 309.749 286.105 309.038C285.191 308.319 284.488 307.308 283.996 306.003C283.512 304.698 283.27 303.147 283.27 301.351V301.327C283.27 299.53 283.512 297.979 283.996 296.675C284.488 295.37 285.191 294.362 286.105 293.651C287.027 292.94 288.133 292.585 289.422 292.585C290.711 292.585 291.816 292.94 292.738 293.651C293.66 294.362 294.367 295.37 294.859 296.675C295.359 297.979 295.609 299.53 295.609 301.327V301.351C295.609 303.147 295.359 304.698 294.859 306.003C294.367 307.308 293.66 308.319 292.738 309.038C291.816 309.749 290.711 310.104 289.422 310.104ZM289.422 308.265C290.273 308.265 291 307.983 291.602 307.421C292.211 306.858 292.676 306.062 292.996 305.03C293.324 303.999 293.488 302.772 293.488 301.351V301.327C293.488 299.905 293.324 298.683 292.996 297.659C292.676 296.628 292.211 295.835 291.602 295.28C291 294.718 290.273 294.437 289.422 294.437C288.578 294.437 287.852 294.718 287.242 295.28C286.641 295.835 286.18 296.628 285.859 297.659C285.547 298.683 285.391 299.905 285.391 301.327V301.351C285.391 302.772 285.547 303.999 285.859 305.03C286.18 306.062 286.641 306.858 287.242 307.421C287.852 307.983 288.578 308.265 289.422 308.265ZM304.059 310.081C302.863 310.081 301.805 309.874 300.883 309.46C299.961 309.046 299.234 308.476 298.703 307.749C298.18 307.015 297.918 306.175 297.918 305.229V305.206C297.918 304.511 298.07 303.866 298.375 303.272C298.68 302.679 299.105 302.175 299.652 301.761C300.199 301.339 300.832 301.046 301.551 300.882V300.835C300.629 300.546 299.895 300.069 299.348 299.405C298.801 298.741 298.527 297.964 298.527 297.073V297.05C298.527 296.198 298.766 295.44 299.242 294.776C299.719 294.104 300.375 293.577 301.211 293.194C302.047 292.804 302.996 292.608 304.059 292.608C305.129 292.608 306.078 292.804 306.906 293.194C307.742 293.577 308.398 294.104 308.875 294.776C309.352 295.44 309.59 296.198 309.59 297.05V297.073C309.59 297.964 309.316 298.741 308.77 299.405C308.23 300.069 307.496 300.546 306.566 300.835V300.882C307.293 301.046 307.926 301.339 308.465 301.761C309.012 302.175 309.438 302.679 309.742 303.272C310.047 303.866 310.199 304.511 310.199 305.206V305.229C310.199 306.175 309.938 307.015 309.414 307.749C308.891 308.476 308.164 309.046 307.234 309.46C306.312 309.874 305.254 310.081 304.059 310.081ZM304.059 308.241C304.84 308.241 305.527 308.108 306.121 307.843C306.723 307.569 307.195 307.198 307.539 306.729C307.883 306.253 308.055 305.71 308.055 305.101V305.077C308.055 304.46 307.883 303.913 307.539 303.437C307.203 302.96 306.734 302.585 306.133 302.312C305.531 302.038 304.84 301.901 304.059 301.901C303.277 301.901 302.586 302.038 301.984 302.312C301.383 302.585 300.91 302.96 300.566 303.437C300.23 303.913 300.062 304.46 300.062 305.077V305.101C300.062 305.71 300.234 306.253 300.578 306.729C300.922 307.198 301.395 307.569 301.996 307.843C302.598 308.108 303.285 308.241 304.059 308.241ZM304.059 300.05C304.738 300.05 305.336 299.933 305.852 299.698C306.367 299.456 306.77 299.124 307.059 298.702C307.348 298.28 307.492 297.796 307.492 297.249V297.226C307.492 296.679 307.348 296.194 307.059 295.772C306.77 295.351 306.367 295.022 305.852 294.788C305.336 294.546 304.738 294.425 304.059 294.425C303.379 294.425 302.781 294.546 302.266 294.788C301.75 295.022 301.348 295.351 301.059 295.772C300.77 296.194 300.625 296.679 300.625 297.226V297.249C300.625 297.796 300.77 298.28 301.059 298.702C301.348 299.124 301.75 299.456 302.266 299.698C302.781 299.933 303.379 300.05 304.059 300.05ZM314.113 307.245C313.73 307.245 313.406 307.112 313.141 306.847C312.875 306.581 312.742 306.257 312.742 305.874C312.742 305.491 312.875 305.167 313.141 304.901C313.406 304.636 313.73 304.503 314.113 304.503C314.496 304.503 314.82 304.636 315.086 304.901C315.352 305.167 315.484 305.491 315.484 305.874C315.484 306.257 315.352 306.581 315.086 306.847C314.82 307.112 314.496 307.245 314.113 307.245ZM314.113 298.175C313.73 298.175 313.406 298.042 313.141 297.776C312.875 297.511 312.742 297.187 312.742 296.804C312.742 296.421 312.875 296.097 313.141 295.831C313.406 295.565 313.73 295.433 314.113 295.433C314.496 295.433 314.82 295.565 315.086 295.831C315.352 296.097 315.484 296.421 315.484 296.804C315.484 297.187 315.352 297.511 315.086 297.776C314.82 298.042 314.496 298.175 314.113 298.175ZM322.633 309.8V295.151H322.562L318.121 298.269V296.124L322.621 292.89H324.684V309.8H322.633ZM334.938 310.104C333.648 310.104 332.543 309.749 331.621 309.038C330.707 308.319 330.004 307.308 329.512 306.003C329.027 304.698 328.785 303.147 328.785 301.351V301.327C328.785 299.53 329.027 297.979 329.512 296.675C330.004 295.37 330.707 294.362 331.621 293.651C332.543 292.94 333.648 292.585 334.938 292.585C336.227 292.585 337.332 292.94 338.254 293.651C339.176 294.362 339.883 295.37 340.375 296.675C340.875 297.979 341.125 299.53 341.125 301.327V301.351C341.125 303.147 340.875 304.698 340.375 306.003C339.883 307.308 339.176 308.319 338.254 309.038C337.332 309.749 336.227 310.104 334.938 310.104ZM334.938 308.265C335.789 308.265 336.516 307.983 337.117 307.421C337.727 306.858 338.191 306.062 338.512 305.03C338.84 303.999 339.004 302.772 339.004 301.351V301.327C339.004 299.905 338.84 298.683 338.512 297.659C338.191 296.628 337.727 295.835 337.117 295.28C336.516 294.718 335.789 294.437 334.938 294.437C334.094 294.437 333.367 294.718 332.758 295.28C332.156 295.835 331.695 296.628 331.375 297.659C331.062 298.683 330.906 299.905 330.906 301.327V301.351C330.906 302.772 331.062 303.999 331.375 305.03C331.695 306.062 332.156 306.858 332.758 307.421C333.367 307.983 334.094 308.265 334.938 308.265ZM342.637 309.8L348.918 292.89H350.488V295.456H349.926L344.852 309.8H342.637ZM345.508 304.96L346.199 303.167H353.734L354.426 304.96H345.508ZM355.059 309.8L349.996 295.456V292.89H351.004L357.273 309.8H355.059ZM359.406 309.8V292.89H361.844L367.691 307.116H367.785L373.633 292.89H376.07V309.8H374.102V296.757H373.129L375.426 293.358L368.629 309.8H366.848L360.051 293.358L362.348 296.757H361.375V309.8H359.406Z" fill="#3B3B3B"/>
<g clip-path="url(#clip2_1070_22490)">
<rect x="64" y="368.8" width="48" height="48" rx="24" fill="#FE6213"/>
<path fill-rule="evenodd" clip-rule="evenodd" d="M98.192 383.579L83.872 397.399L80.072 393.339C79.372 392.679 78.272 392.639 77.472 393.199C76.692 393.779 76.472 394.799 76.952 395.619L81.452 402.939C81.892 403.619 82.652 404.039 83.512 404.039C84.332 404.039 85.112 403.619 85.552 402.939C86.272 401.999 100.012 385.619 100.012 385.619C101.812 383.779 99.632 382.159 98.192 383.559V383.579Z" fill="#FBFAFA"/>
</g>
<rect x="86" y="424.8" width="4" height="68" rx="2" fill="#FE6213"/>
<path d="M144.545 403.128C143.068 403.128 141.774 402.905 140.662 402.458C139.559 402.011 138.684 401.373 138.037 400.544C137.39 399.705 137.025 398.707 136.943 397.55L136.93 397.345H139.924L139.951 397.522C140.042 398.124 140.293 398.648 140.703 399.095C141.122 399.532 141.669 399.869 142.344 400.106C143.018 400.343 143.793 400.462 144.668 400.462C145.552 400.462 146.313 400.339 146.951 400.093C147.589 399.847 148.081 399.496 148.428 399.04C148.783 398.584 148.961 398.051 148.961 397.44V397.427C148.961 396.634 148.674 396.005 148.1 395.54C147.535 395.066 146.596 394.688 145.283 394.405L143.137 393.954C141.204 393.544 139.764 392.888 138.816 391.985C137.868 391.074 137.395 389.889 137.395 388.431V388.417C137.404 387.296 137.714 386.312 138.324 385.464C138.935 384.607 139.778 383.942 140.854 383.468C141.929 382.985 143.164 382.743 144.559 382.743C145.926 382.743 147.133 382.976 148.182 383.44C149.23 383.905 150.059 384.557 150.67 385.396C151.281 386.225 151.622 387.196 151.695 388.308L151.709 388.526H148.715L148.688 388.349C148.605 387.729 148.378 387.2 148.004 386.763C147.639 386.325 147.161 385.993 146.568 385.765C145.976 385.528 145.288 385.409 144.504 385.409C143.693 385.409 142.986 385.532 142.385 385.778C141.783 386.015 141.318 386.348 140.99 386.776C140.662 387.205 140.498 387.711 140.498 388.294V388.308C140.498 389.046 140.79 389.647 141.373 390.112C141.956 390.577 142.863 390.942 144.094 391.206L146.24 391.671C147.598 391.953 148.706 392.336 149.562 392.819C150.419 393.302 151.053 393.904 151.463 394.624C151.873 395.344 152.078 396.215 152.078 397.235V397.249C152.078 398.452 151.773 399.496 151.162 400.38C150.561 401.255 149.695 401.934 148.564 402.417C147.443 402.891 146.104 403.128 144.545 403.128ZM154.58 402.8V383.071H157.547V390.782H157.615C157.989 389.944 158.554 389.297 159.311 388.841C160.076 388.376 160.997 388.144 162.072 388.144C163.102 388.144 163.995 388.385 164.752 388.868C165.518 389.342 166.11 390.012 166.529 390.878C166.958 391.744 167.172 392.756 167.172 393.913V402.8H164.205V394.474C164.205 393.28 163.918 392.35 163.344 391.685C162.77 391.019 161.963 390.687 160.924 390.687C160.249 390.687 159.657 390.846 159.146 391.165C158.645 391.484 158.253 391.926 157.971 392.491C157.688 393.056 157.547 393.717 157.547 394.474V402.8H154.58ZM170.139 402.8V388.417H173.119V402.8H170.139ZM171.629 386.202C171.155 386.202 170.749 386.038 170.412 385.71C170.075 385.373 169.906 384.972 169.906 384.507C169.906 384.024 170.075 383.618 170.412 383.29C170.749 382.962 171.155 382.798 171.629 382.798C172.112 382.798 172.518 382.962 172.846 383.29C173.183 383.618 173.352 384.024 173.352 384.507C173.352 384.972 173.183 385.373 172.846 385.71C172.518 386.038 172.112 386.202 171.629 386.202ZM176.141 407.585V388.417H179.121V390.878H179.189C179.472 390.313 179.832 389.825 180.27 389.415C180.716 389.005 181.227 388.69 181.801 388.472C182.375 388.253 183.004 388.144 183.688 388.144C184.909 388.144 185.971 388.449 186.873 389.06C187.775 389.661 188.473 390.522 188.965 391.644C189.457 392.756 189.703 394.077 189.703 395.608V395.622C189.703 397.153 189.452 398.475 188.951 399.587C188.459 400.699 187.766 401.56 186.873 402.171C185.98 402.782 184.932 403.087 183.729 403.087C183.054 403.087 182.421 402.978 181.828 402.759C181.245 402.54 180.73 402.23 180.283 401.829C179.837 401.419 179.467 400.936 179.176 400.38H179.121V407.585H176.141ZM182.908 400.53C183.683 400.53 184.353 400.334 184.918 399.942C185.483 399.541 185.916 398.972 186.217 398.233C186.518 397.495 186.668 396.625 186.668 395.622V395.608C186.668 394.588 186.518 393.708 186.217 392.97C185.916 392.231 185.483 391.666 184.918 391.274C184.353 390.882 183.683 390.687 182.908 390.687C182.161 390.687 181.5 390.892 180.926 391.302C180.352 391.703 179.9 392.272 179.572 393.011C179.253 393.74 179.094 394.606 179.094 395.608V395.622C179.094 396.616 179.258 397.481 179.586 398.22C179.914 398.949 180.361 399.519 180.926 399.929C181.5 400.33 182.161 400.53 182.908 400.53ZM191.973 407.585V388.417H194.953V390.878H195.021C195.304 390.313 195.664 389.825 196.102 389.415C196.548 389.005 197.059 388.69 197.633 388.472C198.207 388.253 198.836 388.144 199.52 388.144C200.741 388.144 201.803 388.449 202.705 389.06C203.607 389.661 204.305 390.522 204.797 391.644C205.289 392.756 205.535 394.077 205.535 395.608V395.622C205.535 397.153 205.285 398.475 204.783 399.587C204.291 400.699 203.598 401.56 202.705 402.171C201.812 402.782 200.764 403.087 199.561 403.087C198.886 403.087 198.253 402.978 197.66 402.759C197.077 402.54 196.562 402.23 196.115 401.829C195.669 401.419 195.299 400.936 195.008 400.38H194.953V407.585H191.973ZM198.74 400.53C199.515 400.53 200.185 400.334 200.75 399.942C201.315 399.541 201.748 398.972 202.049 398.233C202.35 397.495 202.5 396.625 202.5 395.622V395.608C202.5 394.588 202.35 393.708 202.049 392.97C201.748 392.231 201.315 391.666 200.75 391.274C200.185 390.882 199.515 390.687 198.74 390.687C197.993 390.687 197.332 390.892 196.758 391.302C196.184 391.703 195.732 392.272 195.404 393.011C195.085 393.74 194.926 394.606 194.926 395.608V395.622C194.926 396.616 195.09 397.481 195.418 398.22C195.746 398.949 196.193 399.519 196.758 399.929C197.332 400.33 197.993 400.53 198.74 400.53ZM213.957 403.087C212.553 403.087 211.341 402.786 210.32 402.185C209.309 401.574 208.529 400.713 207.982 399.601C207.445 398.479 207.176 397.162 207.176 395.649V395.636C207.176 394.141 207.449 392.833 207.996 391.712C208.543 390.582 209.313 389.707 210.307 389.087C211.3 388.458 212.467 388.144 213.807 388.144C215.156 388.144 216.313 388.444 217.279 389.046C218.255 389.638 219.007 390.481 219.535 391.575C220.064 392.66 220.328 393.922 220.328 395.362V396.36H208.639V394.269H218.893L217.43 396.224V395.075C217.43 394.063 217.275 393.225 216.965 392.56C216.664 391.885 216.24 391.384 215.693 391.056C215.156 390.728 214.531 390.563 213.82 390.563C213.118 390.563 212.49 390.737 211.934 391.083C211.378 391.429 210.94 391.94 210.621 392.614C210.302 393.28 210.143 394.1 210.143 395.075V396.224C210.143 397.153 210.298 397.951 210.607 398.616C210.926 399.272 211.378 399.778 211.961 400.134C212.544 400.48 213.232 400.653 214.025 400.653C214.609 400.653 215.124 400.567 215.57 400.394C216.017 400.211 216.386 399.974 216.678 399.683C216.979 399.382 217.188 399.049 217.307 398.685L217.348 398.575H220.164L220.137 398.726C220.018 399.291 219.795 399.833 219.467 400.353C219.139 400.872 218.71 401.341 218.182 401.761C217.662 402.171 217.047 402.494 216.336 402.731C215.625 402.968 214.832 403.087 213.957 403.087ZM227.984 403.087C226.763 403.087 225.701 402.782 224.799 402.171C223.896 401.56 223.199 400.699 222.707 399.587C222.215 398.466 221.969 397.14 221.969 395.608V395.595C221.969 394.063 222.215 392.742 222.707 391.63C223.208 390.518 223.906 389.661 224.799 389.06C225.701 388.449 226.754 388.144 227.957 388.144C228.632 388.144 229.26 388.253 229.844 388.472C230.427 388.69 230.942 389.005 231.389 389.415C231.844 389.816 232.214 390.299 232.496 390.864H232.551V383.071H235.531V402.8H232.551V400.366H232.496C232.214 400.931 231.849 401.414 231.402 401.815C230.965 402.216 230.459 402.531 229.885 402.759C229.311 402.978 228.677 403.087 227.984 403.087ZM228.764 400.53C229.511 400.53 230.167 400.33 230.732 399.929C231.307 399.519 231.753 398.944 232.072 398.206C232.4 397.468 232.564 396.602 232.564 395.608V395.595C232.564 394.601 232.4 393.74 232.072 393.011C231.744 392.272 231.298 391.703 230.732 391.302C230.167 390.892 229.511 390.687 228.764 390.687C227.989 390.687 227.319 390.887 226.754 391.288C226.189 391.68 225.751 392.245 225.441 392.983C225.141 393.713 224.99 394.583 224.99 395.595V395.608C224.99 396.62 225.141 397.5 225.441 398.247C225.751 398.985 226.189 399.55 226.754 399.942C227.319 400.334 227.989 400.53 228.764 400.53Z" fill="#101010"/>
<path d="M137.465 441.8V440.347L143.371 434.136C144.129 433.347 144.707 432.694 145.105 432.179C145.512 431.655 145.793 431.187 145.949 430.772C146.105 430.358 146.184 429.917 146.184 429.448V429.425C146.184 428.839 146.051 428.323 145.785 427.878C145.52 427.425 145.148 427.069 144.672 426.812C144.195 426.554 143.645 426.425 143.02 426.425C142.324 426.425 141.703 426.569 141.156 426.858C140.609 427.147 140.18 427.542 139.867 428.042C139.555 428.534 139.398 429.089 139.398 429.706V429.753H137.359V429.694C137.359 428.718 137.609 427.843 138.109 427.069C138.617 426.296 139.297 425.69 140.148 425.253C141.008 424.808 141.965 424.585 143.02 424.585C144.035 424.585 144.941 424.792 145.738 425.206C146.535 425.62 147.16 426.183 147.613 426.894C148.074 427.604 148.305 428.405 148.305 429.296V429.319C148.305 429.937 148.188 430.538 147.953 431.124C147.727 431.702 147.328 432.354 146.758 433.081C146.188 433.8 145.387 434.69 144.355 435.753L139.762 440.464L140.371 439.222V440.464L139.762 439.925H148.586V441.8H137.465ZM155.5 441.8V427.151H155.43L150.988 430.269V428.124L155.488 424.89H157.551V441.8H155.5ZM167.477 441.8V424.89H173.184C174.855 424.89 176.285 425.226 177.473 425.897C178.66 426.562 179.57 427.522 180.203 428.78C180.844 430.03 181.164 431.542 181.164 433.315V433.339C181.164 435.112 180.848 436.632 180.215 437.897C179.582 439.163 178.672 440.132 177.484 440.804C176.297 441.468 174.863 441.8 173.184 441.8H167.477ZM169.586 439.901H173.043C174.316 439.901 175.395 439.647 176.277 439.14C177.168 438.632 177.844 437.89 178.305 436.913C178.773 435.937 179.008 434.753 179.008 433.362V433.339C179.008 431.94 178.773 430.753 178.305 429.776C177.844 428.8 177.168 428.058 176.277 427.55C175.395 427.042 174.316 426.788 173.043 426.788H169.586V439.901ZM188.711 442.034C187.539 442.034 186.531 441.776 185.688 441.261C184.844 440.737 184.195 440.003 183.742 439.058C183.289 438.112 183.062 436.999 183.062 435.718V435.706C183.062 434.433 183.289 433.315 183.742 432.354C184.203 431.394 184.844 430.644 185.664 430.104C186.492 429.565 187.465 429.296 188.582 429.296C189.699 429.296 190.66 429.554 191.465 430.069C192.27 430.585 192.887 431.308 193.316 432.237C193.754 433.159 193.973 434.233 193.973 435.46V436.222H184.094V434.628H192.953L191.922 436.104V435.308C191.922 434.354 191.777 433.569 191.488 432.952C191.207 432.327 190.812 431.862 190.305 431.558C189.805 431.253 189.227 431.101 188.57 431.101C187.914 431.101 187.324 431.261 186.801 431.581C186.285 431.901 185.879 432.374 185.582 432.999C185.285 433.624 185.137 434.394 185.137 435.308V436.104C185.137 436.972 185.281 437.714 185.57 438.331C185.867 438.94 186.285 439.409 186.824 439.737C187.371 440.065 188.016 440.229 188.758 440.229C189.281 440.229 189.746 440.151 190.152 439.995C190.566 439.839 190.91 439.628 191.184 439.362C191.457 439.089 191.652 438.784 191.77 438.448L191.805 438.343H193.82L193.797 438.46C193.688 438.944 193.492 439.405 193.211 439.843C192.93 440.272 192.566 440.651 192.121 440.979C191.676 441.308 191.164 441.565 190.586 441.753C190.016 441.94 189.391 442.034 188.711 442.034ZM201.309 442.034C200.152 442.034 199.148 441.772 198.297 441.249C197.445 440.726 196.785 439.987 196.316 439.034C195.855 438.073 195.625 436.944 195.625 435.647V435.636C195.625 434.347 195.859 433.229 196.328 432.284C196.805 431.331 197.465 430.597 198.309 430.081C199.16 429.558 200.152 429.296 201.285 429.296C202.301 429.296 203.172 429.491 203.898 429.882C204.633 430.272 205.211 430.78 205.633 431.405C206.055 432.022 206.312 432.683 206.406 433.386L206.418 433.479H204.414L204.402 433.397C204.246 432.78 203.91 432.245 203.395 431.792C202.887 431.331 202.184 431.101 201.285 431.101C200.574 431.101 199.949 431.288 199.41 431.663C198.879 432.038 198.461 432.565 198.156 433.245C197.859 433.925 197.711 434.729 197.711 435.659V435.671C197.711 436.616 197.863 437.429 198.168 438.108C198.473 438.788 198.891 439.312 199.422 439.679C199.961 440.046 200.59 440.229 201.309 440.229C202.145 440.229 202.824 440.022 203.348 439.608C203.871 439.194 204.223 438.644 204.402 437.956L204.426 437.862H206.43L206.418 437.956C206.301 438.729 206.016 439.425 205.562 440.042C205.109 440.651 204.52 441.136 203.793 441.495C203.074 441.854 202.246 442.034 201.309 442.034ZM213.801 441.8V440.347L219.707 434.136C220.465 433.347 221.043 432.694 221.441 432.179C221.848 431.655 222.129 431.187 222.285 430.772C222.441 430.358 222.52 429.917 222.52 429.448V429.425C222.52 428.839 222.387 428.323 222.121 427.878C221.855 427.425 221.484 427.069 221.008 426.812C220.531 426.554 219.98 426.425 219.355 426.425C218.66 426.425 218.039 426.569 217.492 426.858C216.945 427.147 216.516 427.542 216.203 428.042C215.891 428.534 215.734 429.089 215.734 429.706V429.753H213.695V429.694C213.695 428.718 213.945 427.843 214.445 427.069C214.953 426.296 215.633 425.69 216.484 425.253C217.344 424.808 218.301 424.585 219.355 424.585C220.371 424.585 221.277 424.792 222.074 425.206C222.871 425.62 223.496 426.183 223.949 426.894C224.41 427.604 224.641 428.405 224.641 429.296V429.319C224.641 429.937 224.523 430.538 224.289 431.124C224.062 431.702 223.664 432.354 223.094 433.081C222.523 433.8 221.723 434.69 220.691 435.753L216.098 440.464L216.707 439.222V440.464L216.098 439.925H224.922V441.8H213.801ZM233.406 442.104C232.117 442.104 231.012 441.749 230.09 441.038C229.176 440.319 228.473 439.308 227.98 438.003C227.496 436.698 227.254 435.147 227.254 433.351V433.327C227.254 431.53 227.496 429.979 227.98 428.675C228.473 427.37 229.176 426.362 230.09 425.651C231.012 424.94 232.117 424.585 233.406 424.585C234.695 424.585 235.801 424.94 236.723 425.651C237.645 426.362 238.352 427.37 238.844 428.675C239.344 429.979 239.594 431.53 239.594 433.327V433.351C239.594 435.147 239.344 436.698 238.844 438.003C238.352 439.308 237.645 440.319 236.723 441.038C235.801 441.749 234.695 442.104 233.406 442.104ZM233.406 440.265C234.258 440.265 234.984 439.983 235.586 439.421C236.195 438.858 236.66 438.062 236.98 437.03C237.309 435.999 237.473 434.772 237.473 433.351V433.327C237.473 431.905 237.309 430.683 236.98 429.659C236.66 428.628 236.195 427.835 235.586 427.28C234.984 426.718 234.258 426.437 233.406 426.437C232.562 426.437 231.836 426.718 231.227 427.28C230.625 427.835 230.164 428.628 229.844 429.659C229.531 430.683 229.375 431.905 229.375 433.327V433.351C229.375 434.772 229.531 435.999 229.844 437.03C230.164 438.062 230.625 438.858 231.227 439.421C231.836 439.983 232.562 440.265 233.406 440.265ZM242.043 441.8V440.347L247.949 434.136C248.707 433.347 249.285 432.694 249.684 432.179C250.09 431.655 250.371 431.187 250.527 430.772C250.684 430.358 250.762 429.917 250.762 429.448V429.425C250.762 428.839 250.629 428.323 250.363 427.878C250.098 427.425 249.727 427.069 249.25 426.812C248.773 426.554 248.223 426.425 247.598 426.425C246.902 426.425 246.281 426.569 245.734 426.858C245.188 427.147 244.758 427.542 244.445 428.042C244.133 428.534 243.977 429.089 243.977 429.706V429.753H241.938V429.694C241.938 428.718 242.188 427.843 242.688 427.069C243.195 426.296 243.875 425.69 244.727 425.253C245.586 424.808 246.543 424.585 247.598 424.585C248.613 424.585 249.52 424.792 250.316 425.206C251.113 425.62 251.738 426.183 252.191 426.894C252.652 427.604 252.883 428.405 252.883 429.296V429.319C252.883 429.937 252.766 430.538 252.531 431.124C252.305 431.702 251.906 432.354 251.336 433.081C250.766 433.8 249.965 434.69 248.934 435.753L244.34 440.464L244.949 439.222V440.464L244.34 439.925H253.164V441.8H242.043ZM263.242 441.8V438.284H254.793V436.374C255.277 435.608 255.766 434.843 256.258 434.077C256.75 433.304 257.242 432.534 257.734 431.769C258.234 430.995 258.73 430.226 259.223 429.46C259.715 428.694 260.207 427.933 260.699 427.175C261.199 426.409 261.691 425.647 262.176 424.89H265.281V436.433H267.684V438.284H265.281V441.8H263.242ZM256.891 436.433H263.242V426.718H263.16C262.746 427.358 262.328 427.999 261.906 428.64C261.492 429.272 261.074 429.913 260.652 430.562C260.238 431.202 259.82 431.847 259.398 432.495C258.977 433.144 258.555 433.792 258.133 434.44C257.719 435.081 257.305 435.722 256.891 436.362V436.433ZM269.02 445.292L270.039 439.397H272.219L270.484 445.292H269.02ZM285.484 442.104C284.195 442.104 283.09 441.749 282.168 441.038C281.254 440.319 280.551 439.308 280.059 438.003C279.574 436.698 279.332 435.147 279.332 433.351V433.327C279.332 431.53 279.574 429.979 280.059 428.675C280.551 427.37 281.254 426.362 282.168 425.651C283.09 424.94 284.195 424.585 285.484 424.585C286.773 424.585 287.879 424.94 288.801 425.651C289.723 426.362 290.43 427.37 290.922 428.675C291.422 429.979 291.672 431.53 291.672 433.327V433.351C291.672 435.147 291.422 436.698 290.922 438.003C290.43 439.308 289.723 440.319 288.801 441.038C287.879 441.749 286.773 442.104 285.484 442.104ZM285.484 440.265C286.336 440.265 287.062 439.983 287.664 439.421C288.273 438.858 288.738 438.062 289.059 437.03C289.387 435.999 289.551 434.772 289.551 433.351V433.327C289.551 431.905 289.387 430.683 289.059 429.659C288.738 428.628 288.273 427.835 287.664 427.28C287.062 426.718 286.336 426.437 285.484 426.437C284.641 426.437 283.914 426.718 283.305 427.28C282.703 427.835 282.242 428.628 281.922 429.659C281.609 430.683 281.453 431.905 281.453 433.327V433.351C281.453 434.772 281.609 435.999 281.922 437.03C282.242 438.062 282.703 438.858 283.305 439.421C283.914 439.983 284.641 440.265 285.484 440.265ZM294.121 441.8V440.347L300.027 434.136C300.785 433.347 301.363 432.694 301.762 432.179C302.168 431.655 302.449 431.187 302.605 430.772C302.762 430.358 302.84 429.917 302.84 429.448V429.425C302.84 428.839 302.707 428.323 302.441 427.878C302.176 427.425 301.805 427.069 301.328 426.812C300.852 426.554 300.301 426.425 299.676 426.425C298.98 426.425 298.359 426.569 297.812 426.858C297.266 427.147 296.836 427.542 296.523 428.042C296.211 428.534 296.055 429.089 296.055 429.706V429.753H294.016V429.694C294.016 428.718 294.266 427.843 294.766 427.069C295.273 426.296 295.953 425.69 296.805 425.253C297.664 424.808 298.621 424.585 299.676 424.585C300.691 424.585 301.598 424.792 302.395 425.206C303.191 425.62 303.816 426.183 304.27 426.894C304.73 427.604 304.961 428.405 304.961 429.296V429.319C304.961 429.937 304.844 430.538 304.609 431.124C304.383 431.702 303.984 432.354 303.414 433.081C302.844 433.8 302.043 434.69 301.012 435.753L296.418 440.464L297.027 439.222V440.464L296.418 439.925H305.242V441.8H294.121ZM309.168 439.245C308.785 439.245 308.461 439.112 308.195 438.847C307.93 438.581 307.797 438.257 307.797 437.874C307.797 437.491 307.93 437.167 308.195 436.901C308.461 436.636 308.785 436.503 309.168 436.503C309.551 436.503 309.875 436.636 310.141 436.901C310.406 437.167 310.539 437.491 310.539 437.874C310.539 438.257 310.406 438.581 310.141 438.847C309.875 439.112 309.551 439.245 309.168 439.245ZM309.168 430.175C308.785 430.175 308.461 430.042 308.195 429.776C307.93 429.511 307.797 429.187 307.797 428.804C307.797 428.421 307.93 428.097 308.195 427.831C308.461 427.565 308.785 427.433 309.168 427.433C309.551 427.433 309.875 427.565 310.141 427.831C310.406 428.097 310.539 428.421 310.539 428.804C310.539 429.187 310.406 429.511 310.141 429.776C309.875 430.042 309.551 430.175 309.168 430.175ZM321.391 441.8V438.284H312.941V436.374C313.426 435.608 313.914 434.843 314.406 434.077C314.898 433.304 315.391 432.534 315.883 431.769C316.383 430.995 316.879 430.226 317.371 429.46C317.863 428.694 318.355 427.933 318.848 427.175C319.348 426.409 319.84 425.647 320.324 424.89H323.43V436.433H325.832V438.284H323.43V441.8H321.391ZM315.039 436.433H321.391V426.718H321.309C320.895 427.358 320.477 427.999 320.055 428.64C319.641 429.272 319.223 429.913 318.801 430.562C318.387 431.202 317.969 431.847 317.547 432.495C317.125 433.144 316.703 433.792 316.281 434.44C315.867 435.081 315.453 435.722 315.039 436.362V436.433ZM333.871 442.104C332.801 442.104 331.848 441.897 331.012 441.483C330.176 441.069 329.504 440.503 328.996 439.784C328.488 439.065 328.191 438.249 328.105 437.335L328.094 437.206H330.156L330.168 437.3C330.238 437.854 330.441 438.358 330.777 438.812C331.113 439.257 331.547 439.608 332.078 439.866C332.617 440.124 333.223 440.253 333.895 440.253C334.66 440.253 335.332 440.089 335.91 439.761C336.496 439.425 336.953 438.968 337.281 438.39C337.609 437.804 337.773 437.132 337.773 436.374V436.351C337.773 435.608 337.605 434.952 337.27 434.382C336.941 433.804 336.488 433.351 335.91 433.022C335.34 432.694 334.68 432.53 333.93 432.53C333.359 432.53 332.832 432.616 332.348 432.788C331.863 432.952 331.434 433.206 331.059 433.55C330.91 433.69 330.766 433.843 330.625 434.007C330.492 434.171 330.371 434.351 330.262 434.546H328.41L329.277 424.89H338.91V426.765H331L330.426 432.46H330.496C330.762 432.077 331.086 431.757 331.469 431.499C331.859 431.241 332.293 431.046 332.77 430.913C333.254 430.78 333.766 430.714 334.305 430.714C335.383 430.714 336.34 430.956 337.176 431.44C338.012 431.925 338.668 432.589 339.145 433.433C339.629 434.269 339.871 435.229 339.871 436.315V436.339C339.871 437.464 339.613 438.464 339.098 439.339C338.582 440.206 337.871 440.886 336.965 441.378C336.066 441.862 335.035 442.104 333.871 442.104ZM343.609 435.765V433.89H348.098C349.309 433.89 350.246 433.577 350.91 432.952C351.574 432.319 351.906 431.448 351.906 430.339V430.315C351.906 429.198 351.574 428.327 350.91 427.702C350.246 427.077 349.309 426.765 348.098 426.765H343.609V424.89H348.637C349.699 424.89 350.637 425.116 351.449 425.569C352.262 426.022 352.898 426.655 353.359 427.468C353.828 428.28 354.062 429.222 354.062 430.292V430.315C354.062 431.386 353.828 432.331 353.359 433.151C352.898 433.972 352.262 434.612 351.449 435.073C350.637 435.534 349.699 435.765 348.637 435.765H343.609ZM342.555 441.8V424.89H344.664V441.8H342.555ZM356.664 441.8V424.89H359.102L364.949 439.116H365.043L370.891 424.89H373.328V441.8H371.359V428.757H370.387L372.684 425.358L365.887 441.8H364.105L357.309 425.358L359.605 428.757H358.633V441.8H356.664Z" fill="#3B3B3B"/>
<g clip-path="url(#clip3_1070_22490)">
<rect x="64" y="500.8" width="48" height="48" rx="24" fill="#F9FAFB"/>
<circle cx="88" cy="524.8" r="8" fill="#E4E7EC"/>
</g>
<path d="M137.818 534.8V515.071H144.777C146.737 515.071 148.41 515.459 149.795 516.233C151.189 516.999 152.256 518.111 152.994 519.569C153.742 521.028 154.115 522.796 154.115 524.874V524.901C154.115 526.979 153.746 528.761 153.008 530.247C152.27 531.724 151.203 532.854 149.809 533.638C148.423 534.412 146.746 534.8 144.777 534.8H137.818ZM140.881 532.147H144.49C145.885 532.147 147.065 531.869 148.031 531.313C148.997 530.757 149.731 529.942 150.232 528.866C150.734 527.791 150.984 526.478 150.984 524.929V524.901C150.984 523.361 150.729 522.058 150.219 520.991C149.717 519.916 148.984 519.104 148.018 518.558C147.061 518.002 145.885 517.724 144.49 517.724H140.881V532.147ZM162.824 535.087C161.421 535.087 160.208 534.786 159.188 534.185C158.176 533.574 157.396 532.713 156.85 531.601C156.312 530.479 156.043 529.162 156.043 527.649V527.636C156.043 526.141 156.316 524.833 156.863 523.712C157.41 522.582 158.18 521.707 159.174 521.087C160.167 520.458 161.334 520.144 162.674 520.144C164.023 520.144 165.18 520.444 166.146 521.046C167.122 521.638 167.874 522.481 168.402 523.575C168.931 524.66 169.195 525.922 169.195 527.362V528.36H157.506V526.269H167.76L166.297 528.224V527.075C166.297 526.063 166.142 525.225 165.832 524.56C165.531 523.885 165.107 523.384 164.561 523.056C164.023 522.728 163.398 522.563 162.688 522.563C161.986 522.563 161.357 522.737 160.801 523.083C160.245 523.429 159.807 523.94 159.488 524.614C159.169 525.28 159.01 526.1 159.01 527.075V528.224C159.01 529.153 159.165 529.951 159.475 530.616C159.794 531.272 160.245 531.778 160.828 532.134C161.411 532.48 162.1 532.653 162.893 532.653C163.476 532.653 163.991 532.567 164.438 532.394C164.884 532.211 165.253 531.974 165.545 531.683C165.846 531.382 166.055 531.049 166.174 530.685L166.215 530.575H169.031L169.004 530.726C168.885 531.291 168.662 531.833 168.334 532.353C168.006 532.872 167.577 533.341 167.049 533.761C166.529 534.171 165.914 534.494 165.203 534.731C164.492 534.968 163.699 535.087 162.824 535.087ZM171.588 534.8V515.071H174.555V534.8H171.588ZM177.713 534.8V520.417H180.693V534.8H177.713ZM179.203 518.202C178.729 518.202 178.324 518.038 177.986 517.71C177.649 517.373 177.48 516.972 177.48 516.507C177.48 516.024 177.649 515.618 177.986 515.29C178.324 514.962 178.729 514.798 179.203 514.798C179.686 514.798 180.092 514.962 180.42 515.29C180.757 515.618 180.926 516.024 180.926 516.507C180.926 516.972 180.757 517.373 180.42 517.71C180.092 518.038 179.686 518.202 179.203 518.202ZM187.68 534.8L182.498 520.417H185.643L189.252 531.901H189.32L192.916 520.417H196.02L190.865 534.8H187.68ZM203.32 535.087C201.917 535.087 200.704 534.786 199.684 534.185C198.672 533.574 197.893 532.713 197.346 531.601C196.808 530.479 196.539 529.162 196.539 527.649V527.636C196.539 526.141 196.812 524.833 197.359 523.712C197.906 522.582 198.676 521.707 199.67 521.087C200.663 520.458 201.83 520.144 203.17 520.144C204.519 520.144 205.676 520.444 206.643 521.046C207.618 521.638 208.37 522.481 208.898 523.575C209.427 524.66 209.691 525.922 209.691 527.362V528.36H198.002V526.269H208.256L206.793 528.224V527.075C206.793 526.063 206.638 525.225 206.328 524.56C206.027 523.885 205.604 523.384 205.057 523.056C204.519 522.728 203.895 522.563 203.184 522.563C202.482 522.563 201.853 522.737 201.297 523.083C200.741 523.429 200.303 523.94 199.984 524.614C199.665 525.28 199.506 526.1 199.506 527.075V528.224C199.506 529.153 199.661 529.951 199.971 530.616C200.29 531.272 200.741 531.778 201.324 532.134C201.908 532.48 202.596 532.653 203.389 532.653C203.972 532.653 204.487 532.567 204.934 532.394C205.38 532.211 205.749 531.974 206.041 531.683C206.342 531.382 206.551 531.049 206.67 530.685L206.711 530.575H209.527L209.5 530.726C209.382 531.291 209.158 531.833 208.83 532.353C208.502 532.872 208.074 533.341 207.545 533.761C207.025 534.171 206.41 534.494 205.699 534.731C204.988 534.968 204.195 535.087 203.32 535.087ZM211.961 534.8V520.417H214.941V522.878H214.996C215.224 522.03 215.63 521.365 216.213 520.882C216.796 520.39 217.498 520.144 218.318 520.144C218.537 520.144 218.733 520.157 218.906 520.185C219.089 520.203 219.234 520.226 219.344 520.253V523.001C219.225 522.955 219.048 522.919 218.811 522.892C218.574 522.855 218.309 522.837 218.018 522.837C217.389 522.837 216.842 522.974 216.377 523.247C215.912 523.511 215.557 523.899 215.311 524.409C215.064 524.91 214.941 525.517 214.941 526.228V534.8H211.961ZM226.727 535.087C225.323 535.087 224.111 534.786 223.09 534.185C222.078 533.574 221.299 532.713 220.752 531.601C220.214 530.479 219.945 529.162 219.945 527.649V527.636C219.945 526.141 220.219 524.833 220.766 523.712C221.312 522.582 222.083 521.707 223.076 521.087C224.07 520.458 225.236 520.144 226.576 520.144C227.925 520.144 229.083 520.444 230.049 521.046C231.024 521.638 231.776 522.481 232.305 523.575C232.833 524.66 233.098 525.922 233.098 527.362V528.36H221.408V526.269H231.662L230.199 528.224V527.075C230.199 526.063 230.044 525.225 229.734 524.56C229.434 523.885 229.01 523.384 228.463 523.056C227.925 522.728 227.301 522.563 226.59 522.563C225.888 522.563 225.259 522.737 224.703 523.083C224.147 523.429 223.71 523.94 223.391 524.614C223.072 525.28 222.912 526.1 222.912 527.075V528.224C222.912 529.153 223.067 529.951 223.377 530.616C223.696 531.272 224.147 531.778 224.73 532.134C225.314 532.48 226.002 532.653 226.795 532.653C227.378 532.653 227.893 532.567 228.34 532.394C228.786 532.211 229.156 531.974 229.447 531.683C229.748 531.382 229.958 531.049 230.076 530.685L230.117 530.575H232.934L232.906 530.726C232.788 531.291 232.564 531.833 232.236 532.353C231.908 532.872 231.48 533.341 230.951 533.761C230.432 534.171 229.816 534.494 229.105 534.731C228.395 534.968 227.602 535.087 226.727 535.087ZM240.754 535.087C239.533 535.087 238.471 534.782 237.568 534.171C236.666 533.56 235.969 532.699 235.477 531.587C234.984 530.466 234.738 529.14 234.738 527.608V527.595C234.738 526.063 234.984 524.742 235.477 523.63C235.978 522.518 236.675 521.661 237.568 521.06C238.471 520.449 239.523 520.144 240.727 520.144C241.401 520.144 242.03 520.253 242.613 520.472C243.197 520.69 243.712 521.005 244.158 521.415C244.614 521.816 244.983 522.299 245.266 522.864H245.32V515.071H248.301V534.8H245.32V532.366H245.266C244.983 532.931 244.618 533.414 244.172 533.815C243.734 534.216 243.229 534.531 242.654 534.759C242.08 534.978 241.447 535.087 240.754 535.087ZM241.533 532.53C242.281 532.53 242.937 532.33 243.502 531.929C244.076 531.519 244.523 530.944 244.842 530.206C245.17 529.468 245.334 528.602 245.334 527.608V527.595C245.334 526.601 245.17 525.74 244.842 525.011C244.514 524.272 244.067 523.703 243.502 523.302C242.937 522.892 242.281 522.687 241.533 522.687C240.758 522.687 240.089 522.887 239.523 523.288C238.958 523.68 238.521 524.245 238.211 524.983C237.91 525.713 237.76 526.583 237.76 527.595V527.608C237.76 528.62 237.91 529.5 238.211 530.247C238.521 530.985 238.958 531.55 239.523 531.942C240.089 532.334 240.758 532.53 241.533 532.53Z" fill="#99A1AF"/>
<path d="M137.465 573.8V572.347L143.371 566.136C144.129 565.347 144.707 564.694 145.105 564.179C145.512 563.655 145.793 563.187 145.949 562.772C146.105 562.358 146.184 561.917 146.184 561.448V561.425C146.184 560.839 146.051 560.323 145.785 559.878C145.52 559.425 145.148 559.069 144.672 558.812C144.195 558.554 143.645 558.425 143.02 558.425C142.324 558.425 141.703 558.569 141.156 558.858C140.609 559.147 140.18 559.542 139.867 560.042C139.555 560.534 139.398 561.089 139.398 561.706V561.753H137.359V561.694C137.359 560.718 137.609 559.843 138.109 559.069C138.617 558.296 139.297 557.69 140.148 557.253C141.008 556.808 141.965 556.585 143.02 556.585C144.035 556.585 144.941 556.792 145.738 557.206C146.535 557.62 147.16 558.183 147.613 558.894C148.074 559.604 148.305 560.405 148.305 561.296V561.319C148.305 561.937 148.188 562.538 147.953 563.124C147.727 563.702 147.328 564.354 146.758 565.081C146.188 565.8 145.387 566.69 144.355 567.753L139.762 572.464L140.371 571.222V572.464L139.762 571.925H148.586V573.8H137.465ZM156.93 574.081C155.766 574.081 154.75 573.882 153.883 573.483C153.016 573.085 152.328 572.538 151.82 571.843C151.32 571.147 151.031 570.354 150.953 569.464L150.941 569.323H152.969L152.98 569.44C153.043 569.995 153.242 570.483 153.578 570.905C153.922 571.327 154.379 571.659 154.949 571.901C155.52 572.136 156.18 572.253 156.93 572.253C157.672 572.253 158.32 572.124 158.875 571.866C159.438 571.608 159.875 571.253 160.188 570.8C160.5 570.339 160.656 569.812 160.656 569.218V569.194C160.656 568.155 160.309 567.358 159.613 566.804C158.926 566.241 157.988 565.96 156.801 565.96H154.68V564.179H156.707C157.379 564.179 157.973 564.054 158.488 563.804C159.004 563.546 159.406 563.198 159.695 562.761C159.984 562.315 160.129 561.812 160.129 561.249V561.226C160.129 560.632 160.004 560.128 159.754 559.714C159.504 559.3 159.137 558.983 158.652 558.765C158.176 558.546 157.594 558.437 156.906 558.437C156.242 558.437 155.648 558.55 155.125 558.776C154.609 558.995 154.195 559.312 153.883 559.726C153.57 560.14 153.383 560.632 153.32 561.202L153.309 561.319H151.281L151.293 561.202C151.387 560.28 151.676 559.476 152.16 558.788C152.652 558.101 153.301 557.565 154.105 557.183C154.918 556.8 155.852 556.608 156.906 556.608C157.984 556.608 158.922 556.796 159.719 557.171C160.523 557.538 161.145 558.05 161.582 558.706C162.027 559.354 162.25 560.108 162.25 560.968V560.991C162.25 561.687 162.098 562.304 161.793 562.843C161.488 563.382 161.066 563.831 160.527 564.19C159.988 564.55 159.367 564.804 158.664 564.952V564.999C159.898 565.101 160.895 565.519 161.652 566.253C162.418 566.979 162.801 567.944 162.801 569.147V569.171C162.801 570.108 162.547 570.948 162.039 571.69C161.531 572.433 160.836 573.019 159.953 573.448C159.07 573.87 158.062 574.081 156.93 574.081ZM171.109 573.8V556.89H176.816C178.488 556.89 179.918 557.226 181.105 557.897C182.293 558.562 183.203 559.522 183.836 560.78C184.477 562.03 184.797 563.542 184.797 565.315V565.339C184.797 567.112 184.48 568.632 183.848 569.897C183.215 571.163 182.305 572.132 181.117 572.804C179.93 573.468 178.496 573.8 176.816 573.8H171.109ZM173.219 571.901H176.676C177.949 571.901 179.027 571.647 179.91 571.14C180.801 570.632 181.477 569.89 181.938 568.913C182.406 567.937 182.641 566.753 182.641 565.362V565.339C182.641 563.94 182.406 562.753 181.938 561.776C181.477 560.8 180.801 560.058 179.91 559.55C179.027 559.042 177.949 558.788 176.676 558.788H173.219V571.901ZM192.344 574.034C191.172 574.034 190.164 573.776 189.32 573.261C188.477 572.737 187.828 572.003 187.375 571.058C186.922 570.112 186.695 568.999 186.695 567.718V567.706C186.695 566.433 186.922 565.315 187.375 564.354C187.836 563.394 188.477 562.644 189.297 562.104C190.125 561.565 191.098 561.296 192.215 561.296C193.332 561.296 194.293 561.554 195.098 562.069C195.902 562.585 196.52 563.308 196.949 564.237C197.387 565.159 197.605 566.233 197.605 567.46V568.222H187.727V566.628H196.586L195.555 568.104V567.308C195.555 566.354 195.41 565.569 195.121 564.952C194.84 564.327 194.445 563.862 193.938 563.558C193.438 563.253 192.859 563.101 192.203 563.101C191.547 563.101 190.957 563.261 190.434 563.581C189.918 563.901 189.512 564.374 189.215 564.999C188.918 565.624 188.77 566.394 188.77 567.308V568.104C188.77 568.972 188.914 569.714 189.203 570.331C189.5 570.94 189.918 571.409 190.457 571.737C191.004 572.065 191.648 572.229 192.391 572.229C192.914 572.229 193.379 572.151 193.785 571.995C194.199 571.839 194.543 571.628 194.816 571.362C195.09 571.089 195.285 570.784 195.402 570.448L195.438 570.343H197.453L197.43 570.46C197.32 570.944 197.125 571.405 196.844 571.843C196.562 572.272 196.199 572.651 195.754 572.979C195.309 573.308 194.797 573.565 194.219 573.753C193.648 573.94 193.023 574.034 192.344 574.034ZM204.941 574.034C203.785 574.034 202.781 573.772 201.93 573.249C201.078 572.726 200.418 571.987 199.949 571.034C199.488 570.073 199.258 568.944 199.258 567.647V567.636C199.258 566.347 199.492 565.229 199.961 564.284C200.438 563.331 201.098 562.597 201.941 562.081C202.793 561.558 203.785 561.296 204.918 561.296C205.934 561.296 206.805 561.491 207.531 561.882C208.266 562.272 208.844 562.78 209.266 563.405C209.688 564.022 209.945 564.683 210.039 565.386L210.051 565.479H208.047L208.035 565.397C207.879 564.78 207.543 564.245 207.027 563.792C206.52 563.331 205.816 563.101 204.918 563.101C204.207 563.101 203.582 563.288 203.043 563.663C202.512 564.038 202.094 564.565 201.789 565.245C201.492 565.925 201.344 566.729 201.344 567.659V567.671C201.344 568.616 201.496 569.429 201.801 570.108C202.105 570.788 202.523 571.312 203.055 571.679C203.594 572.046 204.223 572.229 204.941 572.229C205.777 572.229 206.457 572.022 206.98 571.608C207.504 571.194 207.855 570.644 208.035 569.956L208.059 569.862H210.062L210.051 569.956C209.934 570.729 209.648 571.425 209.195 572.042C208.742 572.651 208.152 573.136 207.426 573.495C206.707 573.854 205.879 574.034 204.941 574.034ZM217.434 573.8V572.347L223.34 566.136C224.098 565.347 224.676 564.694 225.074 564.179C225.48 563.655 225.762 563.187 225.918 562.772C226.074 562.358 226.152 561.917 226.152 561.448V561.425C226.152 560.839 226.02 560.323 225.754 559.878C225.488 559.425 225.117 559.069 224.641 558.812C224.164 558.554 223.613 558.425 222.988 558.425C222.293 558.425 221.672 558.569 221.125 558.858C220.578 559.147 220.148 559.542 219.836 560.042C219.523 560.534 219.367 561.089 219.367 561.706V561.753H217.328V561.694C217.328 560.718 217.578 559.843 218.078 559.069C218.586 558.296 219.266 557.69 220.117 557.253C220.977 556.808 221.934 556.585 222.988 556.585C224.004 556.585 224.91 556.792 225.707 557.206C226.504 557.62 227.129 558.183 227.582 558.894C228.043 559.604 228.273 560.405 228.273 561.296V561.319C228.273 561.937 228.156 562.538 227.922 563.124C227.695 563.702 227.297 564.354 226.727 565.081C226.156 565.8 225.355 566.69 224.324 567.753L219.73 572.464L220.34 571.222V572.464L219.73 571.925H228.555V573.8H217.434ZM237.039 574.104C235.75 574.104 234.645 573.749 233.723 573.038C232.809 572.319 232.105 571.308 231.613 570.003C231.129 568.698 230.887 567.147 230.887 565.351V565.327C230.887 563.53 231.129 561.979 231.613 560.675C232.105 559.37 232.809 558.362 233.723 557.651C234.645 556.94 235.75 556.585 237.039 556.585C238.328 556.585 239.434 556.94 240.355 557.651C241.277 558.362 241.984 559.37 242.477 560.675C242.977 561.979 243.227 563.53 243.227 565.327V565.351C243.227 567.147 242.977 568.698 242.477 570.003C241.984 571.308 241.277 572.319 240.355 573.038C239.434 573.749 238.328 574.104 237.039 574.104ZM237.039 572.265C237.891 572.265 238.617 571.983 239.219 571.421C239.828 570.858 240.293 570.062 240.613 569.03C240.941 567.999 241.105 566.772 241.105 565.351V565.327C241.105 563.905 240.941 562.683 240.613 561.659C240.293 560.628 239.828 559.835 239.219 559.28C238.617 558.718 237.891 558.437 237.039 558.437C236.195 558.437 235.469 558.718 234.859 559.28C234.258 559.835 233.797 560.628 233.477 561.659C233.164 562.683 233.008 563.905 233.008 565.327V565.351C233.008 566.772 233.164 567.999 233.477 569.03C233.797 570.062 234.258 570.858 234.859 571.421C235.469 571.983 236.195 572.265 237.039 572.265ZM245.676 573.8V572.347L251.582 566.136C252.34 565.347 252.918 564.694 253.316 564.179C253.723 563.655 254.004 563.187 254.16 562.772C254.316 562.358 254.395 561.917 254.395 561.448V561.425C254.395 560.839 254.262 560.323 253.996 559.878C253.73 559.425 253.359 559.069 252.883 558.812C252.406 558.554 251.855 558.425 251.23 558.425C250.535 558.425 249.914 558.569 249.367 558.858C248.82 559.147 248.391 559.542 248.078 560.042C247.766 560.534 247.609 561.089 247.609 561.706V561.753H245.57V561.694C245.57 560.718 245.82 559.843 246.32 559.069C246.828 558.296 247.508 557.69 248.359 557.253C249.219 556.808 250.176 556.585 251.23 556.585C252.246 556.585 253.152 556.792 253.949 557.206C254.746 557.62 255.371 558.183 255.824 558.894C256.285 559.604 256.516 560.405 256.516 561.296V561.319C256.516 561.937 256.398 562.538 256.164 563.124C255.938 563.702 255.539 564.354 254.969 565.081C254.398 565.8 253.598 566.69 252.566 567.753L247.973 572.464L248.582 571.222V572.464L247.973 571.925H256.797V573.8H245.676ZM266.875 573.8V570.284H258.426V568.374C258.91 567.608 259.398 566.843 259.891 566.077C260.383 565.304 260.875 564.534 261.367 563.769C261.867 562.995 262.363 562.226 262.855 561.46C263.348 560.694 263.84 559.933 264.332 559.175C264.832 558.409 265.324 557.647 265.809 556.89H268.914V568.433H271.316V570.284H268.914V573.8H266.875ZM260.523 568.433H266.875V558.718H266.793C266.379 559.358 265.961 559.999 265.539 560.64C265.125 561.272 264.707 561.913 264.285 562.562C263.871 563.202 263.453 563.847 263.031 564.495C262.609 565.144 262.188 565.792 261.766 566.44C261.352 567.081 260.938 567.722 260.523 568.362V568.433Z" fill="#99A1AF"/>
</g>
<defs>
<filter id="filter0_d_1070_22490" x="0" y="-0.000195265" width="748" height="700" filterUnits="userSpaceOnUse" color-interpolation-filters="sRGB">
<feFlood flood-opacity="0" result="BackgroundImageFix"/>
<feColorMatrix in="SourceAlpha" type="matrix" values="0 0 0 0 0 0 0 0 0 0 0 0 0 0 0 0 0 0 127 0" result="hardAlpha"/>
<feOffset dy="3.2"/>
<feGaussianBlur stdDeviation="8"/>
<feComposite in2="hardAlpha" operator="out"/>
<feColorMatrix type="matrix" values="0 0 0 0 0 0 0 0 0 0 0 0 0 0 0 0 0 0 0.15 0"/>
<feBlend mode="normal" in2="BackgroundImageFix" result="effect1_dropShadow_1070_22490"/>
<feBlend mode="normal" in="SourceGraphic" in2="effect1_dropShadow_1070_22490" result="shape"/>
</filter>
<clipPath id="clip0_1070_22490">
<rect x="64" y="104.8" width="48" height="48" rx="24" fill="white"/>
</clipPath>
<clipPath id="clip1_1070_22490">
<rect x="64" y="236.8" width="48" height="48" rx="24" fill="white"/>
</clipPath>
<clipPath id="clip2_1070_22490">
<rect x="64" y="368.8" width="48" height="48" rx="24" fill="white"/>
</clipPath>
<clipPath id="clip3_1070_22490">
<rect x="64" y="500.8" width="48" height="48" rx="24" fill="white"/>
</clipPath>
</defs>
</svg>
