<svg width="640" height="586" viewBox="0 0 640 586" fill="none" xmlns="http://www.w3.org/2000/svg">
<g filter="url(#filter0_d_1070_24312)">
<rect x="12" y="12" width="600" height="546" rx="16" fill="#F3F4F6"/>
<path d="M60.8125 114.781C57.3542 114.781 54.3333 114.26 51.75 113.219C49.1667 112.177 47.125 110.688 45.625 108.75C44.1458 106.812 43.3125 104.5 43.125 101.812L43.0938 101.344H50.7812L50.8438 101.719C51.0729 103.01 51.6354 104.125 52.5312 105.062C53.4271 106 54.6042 106.729 56.0625 107.25C57.5417 107.75 59.2188 108 61.0938 108C62.9896 108 64.625 107.74 66 107.219C67.3958 106.698 68.4688 105.958 69.2188 105C69.9688 104.021 70.3438 102.885 70.3438 101.594V101.562C70.3438 99.875 69.7083 98.5417 68.4375 97.5625C67.1875 96.5833 65.1042 95.7812 62.1875 95.1562L57.3438 94.1562C52.9271 93.2396 49.6146 91.7396 47.4062 89.6562C45.1979 87.5521 44.0938 84.8229 44.0938 81.4688V81.4375C44.1146 78.7708 44.8333 76.4479 46.25 74.4688C47.6875 72.4688 49.6667 70.9167 52.1875 69.8125C54.7083 68.6875 57.5833 68.125 60.8125 68.125C64.0833 68.125 66.9479 68.6667 69.4062 69.75C71.8646 70.8333 73.7917 72.3438 75.1875 74.2812C76.6042 76.2188 77.3854 78.4688 77.5312 81.0312L77.5625 81.5625H69.875L69.8125 81.1562C69.625 79.8438 69.1354 78.7292 68.3438 77.8125C67.5521 76.875 66.5104 76.1562 65.2188 75.6562C63.9271 75.1562 62.4375 74.9062 60.75 74.9062C59 74.9062 57.4792 75.1667 56.1875 75.6875C54.9167 76.1875 53.9271 76.8958 53.2188 77.8125C52.5312 78.7292 52.1875 79.7917 52.1875 81V81.0312C52.1875 82.6146 52.8229 83.9062 54.0938 84.9062C55.3854 85.8854 57.3854 86.6562 60.0938 87.2188L64.9375 88.2188C68.0833 88.8646 70.6458 89.7396 72.625 90.8438C74.6042 91.9479 76.0625 93.3333 77 95C77.9583 96.6667 78.4375 98.6667 78.4375 101V101.031C78.4375 103.823 77.7292 106.25 76.3125 108.312C74.9167 110.375 72.8958 111.969 70.25 113.094C67.625 114.219 64.4792 114.781 60.8125 114.781ZM84.4688 114V68.9062H113.219V75.6875H92.5312V89.0312H111.438V95.5938H92.5312V114H84.4688ZM136 99.0938V92.5938H147.344C150.26 92.5938 152.51 91.8542 154.094 90.375C155.698 88.875 156.5 86.7708 156.5 84.0625V84C156.5 81.2708 155.698 79.1667 154.094 77.6875C152.51 76.2083 150.26 75.4688 147.344 75.4688H136V68.9062H149.344C152.385 68.9062 155.052 69.5312 157.344 70.7812C159.656 72.0312 161.458 73.7917 162.75 76.0625C164.042 78.3125 164.688 80.9479 164.688 83.9688V84.0312C164.688 87.0312 164.042 89.6667 162.75 91.9375C161.458 94.1875 159.656 95.9479 157.344 97.2188C155.052 98.4688 152.385 99.0938 149.344 99.0938H136ZM131.969 114V68.9062H140.031V114H131.969ZM169.812 114V80.875H177.562V86.5938H177.75C178.25 84.5938 179.156 83.0312 180.469 81.9062C181.802 80.7604 183.427 80.1875 185.344 80.1875C185.823 80.1875 186.281 80.2188 186.719 80.2812C187.156 80.3438 187.521 80.4167 187.812 80.5V87.5312C187.5 87.4062 187.052 87.3021 186.469 87.2188C185.906 87.1354 185.292 87.0938 184.625 87.0938C183.167 87.0938 181.906 87.3958 180.844 88C179.781 88.5833 178.969 89.4479 178.406 90.5938C177.844 91.7396 177.562 93.1354 177.562 94.7812V114H169.812ZM205.219 114.656C201.969 114.656 199.146 113.969 196.75 112.594C194.354 111.198 192.49 109.219 191.156 106.656C189.844 104.073 189.188 101 189.188 97.4375V97.375C189.188 93.8333 189.854 90.7812 191.188 88.2188C192.521 85.6354 194.385 83.6562 196.781 82.2812C199.177 80.8854 201.979 80.1875 205.188 80.1875C208.417 80.1875 211.229 80.8854 213.625 82.2812C216.042 83.6562 217.917 85.625 219.25 88.1875C220.583 90.75 221.25 93.8125 221.25 97.375V97.4375C221.25 101.021 220.583 104.104 219.25 106.688C217.938 109.25 216.083 111.219 213.688 112.594C211.292 113.969 208.469 114.656 205.219 114.656ZM205.25 108.375C206.896 108.375 208.323 107.948 209.531 107.094C210.74 106.24 211.667 105 212.312 103.375C212.979 101.729 213.312 99.75 213.312 97.4375V97.375C213.312 95.0833 212.979 93.125 212.312 91.5C211.646 89.875 210.698 88.6354 209.469 87.7812C208.26 86.9271 206.833 86.5 205.188 86.5C203.583 86.5 202.167 86.9271 200.938 87.7812C199.729 88.6354 198.781 89.875 198.094 91.5C197.427 93.125 197.094 95.0833 197.094 97.375V97.4375C197.094 99.75 197.427 101.729 198.094 103.375C198.781 105 199.729 106.24 200.938 107.094C202.167 107.948 203.604 108.375 205.25 108.375Z" fill="#FE6213"/>
<path d="M41.3906 203L49.7812 180.453H51.8594V183.828H51.1406L44.3438 203H41.3906ZM45.2344 196.547L46.1719 194.156H56.1719L57.1094 196.547H45.2344ZM57.9844 203L51.2031 183.828V180.453H52.5625L60.9375 203H57.9844ZM67.8594 203.312C66.7865 203.312 65.8438 203.109 65.0312 202.703C64.2188 202.297 63.5833 201.724 63.125 200.984C62.6771 200.245 62.4531 199.385 62.4531 198.406V198.375C62.4531 197.448 62.6823 196.646 63.1406 195.969C63.6094 195.292 64.2812 194.755 65.1562 194.359C66.0417 193.964 67.1042 193.729 68.3438 193.656L74.3594 193.312V195.422L68.6562 195.766C67.5729 195.828 66.7292 196.089 66.125 196.547C65.5312 197.005 65.2344 197.615 65.2344 198.375V198.406C65.2344 199.188 65.526 199.807 66.1094 200.266C66.7031 200.724 67.4896 200.953 68.4688 200.953C69.3229 200.953 70.0885 200.776 70.7656 200.422C71.4531 200.057 71.9948 199.562 72.3906 198.938C72.7969 198.312 73 197.609 73 196.828V192.031C73 191.042 72.6875 190.266 72.0625 189.703C71.4479 189.13 70.5729 188.844 69.4375 188.844C68.3958 188.844 67.5521 189.073 66.9062 189.531C66.2708 189.979 65.875 190.568 65.7188 191.297L65.6875 191.438H63.0625L63.0781 191.266C63.1615 190.37 63.4635 189.557 63.9844 188.828C64.5156 188.099 65.2448 187.521 66.1719 187.094C67.099 186.656 68.1979 186.438 69.4688 186.438C70.75 186.438 71.8542 186.656 72.7812 187.094C73.7188 187.531 74.4427 188.151 74.9531 188.953C75.4635 189.745 75.7188 190.682 75.7188 191.766V203H73V200.359H72.9375C72.625 200.953 72.2083 201.474 71.6875 201.922C71.1667 202.359 70.5781 202.703 69.9219 202.953C69.276 203.193 68.5885 203.312 67.8594 203.312Z" fill="#101828"/>
<path d="M110.594 203V200.516H117.281C118.969 200.516 120.25 200.182 121.125 199.516C122.01 198.839 122.453 197.854 122.453 196.562V196.531C122.453 195.656 122.25 194.927 121.844 194.344C121.438 193.76 120.828 193.323 120.016 193.031C119.214 192.74 118.214 192.594 117.016 192.594H110.594V190.172H116.219C117.885 190.172 119.156 189.849 120.031 189.203C120.917 188.557 121.359 187.625 121.359 186.406V186.375C121.359 185.26 120.99 184.411 120.25 183.828C119.51 183.234 118.458 182.938 117.094 182.938H110.594V180.453H117.734C119.026 180.453 120.156 180.688 121.125 181.156C122.094 181.625 122.849 182.281 123.391 183.125C123.932 183.969 124.203 184.953 124.203 186.078V186.109C124.203 186.891 124.026 187.635 123.672 188.344C123.318 189.052 122.833 189.651 122.219 190.141C121.604 190.62 120.906 190.917 120.125 191.031V191.094C121.208 191.219 122.141 191.531 122.922 192.031C123.703 192.531 124.302 193.177 124.719 193.969C125.135 194.75 125.344 195.641 125.344 196.641V196.672C125.344 197.995 125.036 199.13 124.422 200.078C123.818 201.016 122.948 201.74 121.812 202.25C120.677 202.75 119.307 203 117.703 203H110.594ZM109.188 203V180.453H112V203H109.188ZM136.188 203.312C135.417 203.312 134.703 203.188 134.047 202.938C133.391 202.688 132.807 202.339 132.297 201.891C131.797 201.432 131.375 200.885 131.031 200.25H130.969V203H128.25V180.453H130.969V189.469H131.031C131.375 188.844 131.802 188.307 132.312 187.859C132.833 187.401 133.427 187.052 134.094 186.812C134.76 186.562 135.474 186.438 136.234 186.438C137.599 186.438 138.792 186.786 139.812 187.484C140.844 188.172 141.646 189.146 142.219 190.406C142.802 191.667 143.094 193.151 143.094 194.859V194.875C143.094 196.583 142.807 198.073 142.234 199.344C141.661 200.604 140.854 201.583 139.812 202.281C138.781 202.969 137.573 203.312 136.188 203.312ZM135.656 200.906C136.615 200.906 137.443 200.667 138.141 200.188C138.839 199.698 139.375 199 139.75 198.094C140.125 197.188 140.312 196.115 140.312 194.875V194.859C140.312 193.62 140.125 192.552 139.75 191.656C139.375 190.76 138.839 190.068 138.141 189.578C137.443 189.089 136.615 188.844 135.656 188.844C134.74 188.844 133.927 189.094 133.219 189.594C132.521 190.094 131.969 190.797 131.562 191.703C131.156 192.599 130.953 193.651 130.953 194.859V194.875C130.953 196.083 131.151 197.141 131.547 198.047C131.953 198.953 132.51 199.656 133.219 200.156C133.927 200.656 134.74 200.906 135.656 200.906Z" fill="#101828"/>
<path d="M184.609 203.375C182.526 203.375 180.708 202.896 179.156 201.938C177.615 200.979 176.422 199.63 175.578 197.891C174.734 196.141 174.312 194.083 174.312 191.719V191.703C174.312 189.339 174.734 187.286 175.578 185.547C176.422 183.807 177.615 182.464 179.156 181.516C180.698 180.557 182.516 180.078 184.609 180.078C186.172 180.078 187.594 180.375 188.875 180.969C190.156 181.562 191.224 182.391 192.078 183.453C192.943 184.516 193.516 185.76 193.797 187.188L193.828 187.344H190.984L190.875 187C190.583 186.083 190.146 185.307 189.562 184.672C188.99 184.026 188.286 183.531 187.453 183.188C186.62 182.844 185.672 182.672 184.609 182.672C183.109 182.672 181.802 183.047 180.688 183.797C179.583 184.536 178.724 185.583 178.109 186.938C177.505 188.281 177.203 189.87 177.203 191.703V191.719C177.203 193.542 177.505 195.135 178.109 196.5C178.724 197.854 179.589 198.906 180.703 199.656C181.818 200.406 183.12 200.781 184.609 200.781C185.661 200.781 186.599 200.609 187.422 200.266C188.255 199.922 188.969 199.417 189.562 198.75C190.156 198.073 190.615 197.24 190.938 196.25L190.984 196.109H193.828L193.797 196.266C193.516 197.703 192.948 198.958 192.094 200.031C191.24 201.094 190.172 201.917 188.891 202.5C187.609 203.083 186.182 203.375 184.609 203.375ZM203.469 203.312C201.938 203.312 200.604 202.969 199.469 202.281C198.344 201.583 197.474 200.604 196.859 199.344C196.245 198.073 195.938 196.578 195.938 194.859V194.844C195.938 193.135 196.25 191.651 196.875 190.391C197.5 189.13 198.375 188.156 199.5 187.469C200.625 186.781 201.938 186.438 203.438 186.438C204.792 186.438 205.953 186.703 206.922 187.234C207.891 187.755 208.651 188.432 209.203 189.266C209.766 190.099 210.104 190.979 210.219 191.906L210.234 192.031H207.578L207.547 191.906C207.349 191.094 206.911 190.38 206.234 189.766C205.568 189.151 204.635 188.844 203.438 188.844C202.5 188.844 201.677 189.094 200.969 189.594C200.26 190.083 199.708 190.781 199.312 191.688C198.917 192.583 198.719 193.646 198.719 194.875V194.891C198.719 196.151 198.917 197.229 199.312 198.125C199.719 199.021 200.276 199.708 200.984 200.188C201.703 200.667 202.531 200.906 203.469 200.906C204.583 200.906 205.484 200.625 206.172 200.062C206.87 199.49 207.333 198.75 207.562 197.844L207.594 197.719H210.266L210.25 197.828C210.104 198.859 209.724 199.792 209.109 200.625C208.505 201.448 207.719 202.104 206.75 202.594C205.792 203.073 204.698 203.312 203.469 203.312Z" fill="#101828"/>
<path d="M241.188 203V180.453H248.766C250.995 180.453 252.901 180.901 254.484 181.797C256.068 182.682 257.281 183.964 258.125 185.641C258.979 187.307 259.406 189.323 259.406 191.688V191.719C259.406 194.083 258.984 196.109 258.141 197.797C257.297 199.484 256.083 200.776 254.5 201.672C252.917 202.557 251.005 203 248.766 203H241.188ZM244 200.469H248.578C250.286 200.469 251.729 200.13 252.906 199.453C254.094 198.776 254.995 197.792 255.609 196.5C256.224 195.198 256.531 193.615 256.531 191.75V191.719C256.531 189.844 256.224 188.255 255.609 186.953C254.995 185.651 254.094 184.667 252.906 184C251.729 183.323 250.286 182.984 248.578 182.984H244V200.469ZM268.594 203.312C267.208 203.312 265.995 202.969 264.953 202.281C263.922 201.583 263.12 200.604 262.547 199.344C261.974 198.073 261.688 196.583 261.688 194.875V194.859C261.688 193.151 261.974 191.667 262.547 190.406C263.13 189.146 263.938 188.172 264.969 187.484C266 186.786 267.193 186.438 268.547 186.438C269.318 186.438 270.031 186.562 270.688 186.812C271.354 187.052 271.948 187.401 272.469 187.859C272.99 188.307 273.417 188.844 273.75 189.469H273.812V180.453H276.531V203H273.812V200.25H273.75C273.417 200.885 272.995 201.432 272.484 201.891C271.974 202.339 271.391 202.688 270.734 202.938C270.089 203.188 269.375 203.312 268.594 203.312ZM269.125 200.906C270.042 200.906 270.854 200.656 271.562 200.156C272.271 199.656 272.823 198.953 273.219 198.047C273.625 197.141 273.828 196.083 273.828 194.875V194.859C273.828 193.651 273.625 192.599 273.219 191.703C272.812 190.797 272.255 190.094 271.547 189.594C270.849 189.094 270.042 188.844 269.125 188.844C268.167 188.844 267.339 189.089 266.641 189.578C265.943 190.068 265.406 190.76 265.031 191.656C264.656 192.552 264.469 193.62 264.469 194.859V194.875C264.469 196.115 264.656 197.188 265.031 198.094C265.406 199 265.943 199.698 266.641 200.188C267.339 200.667 268.167 200.906 269.125 200.906Z" fill="#101828"/>
<path d="M307.188 203V180.453H321.156V182.984H310V190.219H320.578V192.719H310V200.469H321.156V203H307.188ZM331.141 203.312C329.589 203.312 328.25 202.969 327.125 202.281C326.01 201.594 325.151 200.625 324.547 199.375C323.953 198.115 323.656 196.635 323.656 194.938V194.922C323.656 193.245 323.958 191.771 324.562 190.5C325.167 189.219 326.016 188.224 327.109 187.516C328.203 186.797 329.49 186.438 330.969 186.438C332.448 186.438 333.719 186.781 334.781 187.469C335.854 188.146 336.677 189.099 337.25 190.328C337.823 191.557 338.109 192.984 338.109 194.609V195.609H325.016V193.484H336.766L335.391 195.453V194.406C335.391 193.146 335.198 192.104 334.812 191.281C334.438 190.458 333.917 189.849 333.25 189.453C332.583 189.047 331.818 188.844 330.953 188.844C330.089 188.844 329.312 189.057 328.625 189.484C327.938 189.901 327.396 190.526 327 191.359C326.604 192.182 326.406 193.198 326.406 194.406V195.453C326.406 196.599 326.599 197.578 326.984 198.391C327.38 199.203 327.938 199.828 328.656 200.266C329.375 200.693 330.224 200.906 331.203 200.906C331.891 200.906 332.505 200.802 333.047 200.594C333.589 200.385 334.042 200.099 334.406 199.734C334.771 199.37 335.031 198.953 335.188 198.484L335.234 198.344H337.906L337.875 198.5C337.74 199.167 337.479 199.792 337.094 200.375C336.719 200.958 336.234 201.474 335.641 201.922C335.047 202.359 334.37 202.703 333.609 202.953C332.849 203.193 332.026 203.312 331.141 203.312Z" fill="#101828"/>
<path d="M373.188 203V180.453H386.875V182.984H376V190.734H385.984V193.234H376V203H373.188ZM390.547 203V189H388.281V186.75H390.547V184.75C390.547 183.708 390.708 182.849 391.031 182.172C391.365 181.484 391.859 180.974 392.516 180.641C393.172 180.307 394 180.141 395 180.141C395.302 180.141 395.604 180.151 395.906 180.172C396.208 180.193 396.458 180.219 396.656 180.25V182.453C396.49 182.432 396.302 182.417 396.094 182.406C395.896 182.396 395.693 182.391 395.484 182.391C394.734 182.391 394.172 182.589 393.797 182.984C393.422 183.37 393.234 183.964 393.234 184.766V186.75H396.578V189H393.266V203H390.547Z" fill="#101828"/>
<path d="M448.641 203.375C447.068 203.375 445.646 203.104 444.375 202.562C443.104 202.01 442.016 201.219 441.109 200.188C440.214 199.156 439.521 197.917 439.031 196.469C438.552 195.021 438.312 193.401 438.312 191.609V191.594C438.312 189.24 438.734 187.203 439.578 185.484C440.432 183.766 441.63 182.438 443.172 181.5C444.724 180.552 446.547 180.078 448.641 180.078C450.37 180.078 451.865 180.385 453.125 181C454.396 181.604 455.438 182.432 456.25 183.484C457.062 184.526 457.641 185.714 457.984 187.047L458.062 187.344H455.109L455.047 187.172C454.526 185.745 453.724 184.641 452.641 183.859C451.557 183.068 450.224 182.672 448.641 182.672C447.099 182.672 445.771 183.031 444.656 183.75C443.542 184.458 442.682 185.479 442.078 186.812C441.484 188.146 441.188 189.74 441.188 191.594V191.609C441.188 193.026 441.359 194.302 441.703 195.438C442.047 196.562 442.542 197.526 443.188 198.328C443.844 199.12 444.63 199.729 445.547 200.156C446.464 200.573 447.495 200.781 448.641 200.781C449.974 200.781 451.146 200.516 452.156 199.984C453.177 199.443 453.969 198.693 454.531 197.734C455.104 196.776 455.391 195.667 455.391 194.406V194H449.031V191.531H458.203V193.672C458.203 195.193 457.984 196.552 457.547 197.75C457.12 198.948 456.495 199.969 455.672 200.812C454.849 201.646 453.844 202.281 452.656 202.719C451.479 203.156 450.141 203.375 448.641 203.375ZM468.266 208.781C466.932 208.781 465.766 208.589 464.766 208.203C463.776 207.828 462.974 207.312 462.359 206.656C461.755 206.01 461.365 205.286 461.188 204.484L461.156 204.344H463.891L463.953 204.484C464.214 205.068 464.714 205.526 465.453 205.859C466.203 206.203 467.13 206.375 468.234 206.375C469.661 206.375 470.766 206.005 471.547 205.266C472.328 204.536 472.719 203.542 472.719 202.281V200.203H472.656C472.333 200.807 471.917 201.328 471.406 201.766C470.896 202.203 470.307 202.547 469.641 202.797C468.984 203.036 468.266 203.156 467.484 203.156C466.12 203.156 464.917 202.812 463.875 202.125C462.844 201.427 462.036 200.453 461.453 199.203C460.88 197.943 460.594 196.469 460.594 194.781V194.766C460.594 193.078 460.885 191.615 461.469 190.375C462.062 189.125 462.88 188.156 463.922 187.469C464.964 186.781 466.172 186.438 467.547 186.438C468.318 186.438 469.026 186.568 469.672 186.828C470.318 187.089 470.891 187.448 471.391 187.906C471.901 188.365 472.323 188.896 472.656 189.5H472.719V186.75H475.438V202.547C475.438 203.807 475.146 204.901 474.562 205.828C473.979 206.766 473.151 207.49 472.078 208C471.005 208.521 469.734 208.781 468.266 208.781ZM468.078 200.75C469.005 200.75 469.812 200.505 470.5 200.016C471.198 199.516 471.74 198.818 472.125 197.922C472.521 197.026 472.719 195.979 472.719 194.781V194.766C472.719 193.568 472.521 192.526 472.125 191.641C471.74 190.755 471.198 190.068 470.5 189.578C469.802 189.089 468.995 188.844 468.078 188.844C467.12 188.844 466.286 189.089 465.578 189.578C464.87 190.057 464.323 190.74 463.938 191.625C463.562 192.51 463.375 193.557 463.375 194.766V194.781C463.375 196.01 463.562 197.073 463.938 197.969C464.323 198.854 464.87 199.542 465.578 200.031C466.286 200.51 467.12 200.75 468.078 200.75Z" fill="#101828"/>
<path d="M505.188 203V180.453H508V190.203H520.375V180.453H523.188V203H520.375V192.734H508V203H505.188ZM527.281 203V180.453H530V189.344H530.062C530.5 188.427 531.151 187.714 532.016 187.203C532.88 186.693 533.917 186.438 535.125 186.438C536.281 186.438 537.292 186.719 538.156 187.281C539.031 187.833 539.714 188.604 540.203 189.594C540.693 190.583 540.938 191.734 540.938 193.047V203H538.219V193.516C538.219 192.047 537.865 190.901 537.156 190.078C536.448 189.255 535.458 188.844 534.188 188.844C533.354 188.844 532.62 189.042 531.984 189.438C531.359 189.833 530.87 190.38 530.516 191.078C530.172 191.776 530 192.589 530 193.516V203H527.281Z" fill="#101828"/>
<path d="M43.1875 275V252.453H46V275H43.1875ZM50.125 275V258.75H52.8438V275H50.125ZM51.4844 256C51.0156 256 50.6146 255.833 50.2812 255.5C49.9479 255.167 49.7812 254.766 49.7812 254.297C49.7812 253.818 49.9479 253.417 50.2812 253.094C50.6146 252.76 51.0156 252.594 51.4844 252.594C51.9635 252.594 52.3646 252.76 52.6875 253.094C53.0208 253.417 53.1875 253.818 53.1875 254.297C53.1875 254.766 53.0208 255.167 52.6875 255.5C52.3646 255.833 51.9635 256 51.4844 256Z" fill="#101828"/>
<path d="M114.016 275.375C113.036 275.375 112.167 275.234 111.406 274.953C110.646 274.672 110 274.276 109.469 273.766C108.938 273.255 108.521 272.656 108.219 271.969C107.917 271.281 107.734 270.531 107.672 269.719L107.656 269.5H110.469L110.484 269.656C110.547 270.219 110.714 270.74 110.984 271.219C111.255 271.688 111.641 272.068 112.141 272.359C112.641 272.641 113.26 272.781 114 272.781C115.25 272.781 116.203 272.422 116.859 271.703C117.516 270.974 117.844 269.922 117.844 268.547V252.453H120.656V268.578C120.656 269.995 120.391 271.214 119.859 272.234C119.339 273.245 118.583 274.021 117.594 274.562C116.604 275.104 115.411 275.375 114.016 275.375ZM122.438 280.484C122.354 280.484 122.271 280.484 122.188 280.484C122.094 280.484 122.005 280.479 121.922 280.469V278.078C121.995 278.078 122.068 278.078 122.141 278.078C122.203 278.078 122.271 278.078 122.344 278.078C123.229 278.078 123.849 277.911 124.203 277.578C124.568 277.245 124.75 276.625 124.75 275.719V258.75H127.469V275.688C127.469 277.333 127.062 278.542 126.25 279.312C125.448 280.094 124.177 280.484 122.438 280.484ZM126.109 256C125.641 256 125.24 255.833 124.906 255.5C124.573 255.167 124.406 254.766 124.406 254.297C124.406 253.818 124.573 253.417 124.906 253.094C125.24 252.76 125.641 252.594 126.109 252.594C126.589 252.594 126.99 252.76 127.312 253.094C127.646 253.417 127.812 253.818 127.812 254.297C127.812 254.766 127.646 255.167 127.312 255.5C126.99 255.833 126.589 256 126.109 256Z" fill="#101828"/>
<path d="M177.766 267.375V263.516H178.094L187.656 252.453H191.188L182.219 262.625H182.078L177.766 267.375ZM175.188 275V252.453H178V275H175.188ZM188.422 275L180.25 264.25L182.234 262.25L192.016 275H188.422ZM194.203 275V252.453H196.922V275H194.203ZM204.469 275L198.281 267.234L200.094 265.422L207.625 275H204.469ZM196.312 269.453V265.922H196.984L204.109 258.75H207.406L199.703 266.422H199.484L196.312 269.453Z" fill="#101828"/>
<path d="M241.188 275V252.453H244V272.469H254.875V275H241.188ZM257.688 275V252.453H260.406V275H257.688Z" fill="#101828"/>
<path d="M307.188 275V252.453H310.438L318.25 271.453H318.344L326.156 252.453H329.406V275H326.781V257.578H325.5L328.547 253.078L319.484 275H317.109L308.047 253.078L311.094 257.578H309.812V275H307.188ZM333.359 275V258.75H336.078V261.125H336.141C336.505 260.323 337.078 259.677 337.859 259.188C338.641 258.688 339.552 258.438 340.594 258.438C341.333 258.438 342 258.562 342.594 258.812C343.198 259.052 343.719 259.406 344.156 259.875C344.594 260.333 344.927 260.896 345.156 261.562H345.219C345.521 260.906 345.922 260.349 346.422 259.891C346.932 259.422 347.516 259.062 348.172 258.812C348.839 258.562 349.552 258.438 350.312 258.438C351.385 258.438 352.318 258.661 353.109 259.109C353.901 259.547 354.516 260.167 354.953 260.969C355.391 261.76 355.609 262.698 355.609 263.781V275H352.891V264.406C352.891 263.656 352.755 263.016 352.484 262.484C352.224 261.953 351.844 261.547 351.344 261.266C350.844 260.984 350.234 260.844 349.516 260.844C348.797 260.844 348.161 261.01 347.609 261.344C347.057 261.667 346.625 262.12 346.312 262.703C346 263.276 345.844 263.932 345.844 264.672V275H343.125V264.109C343.125 263.453 342.984 262.88 342.703 262.391C342.432 261.901 342.047 261.521 341.547 261.25C341.057 260.979 340.474 260.844 339.797 260.844C339.078 260.844 338.438 261.021 337.875 261.375C337.323 261.719 336.885 262.188 336.562 262.781C336.24 263.375 336.078 264.052 336.078 264.812V275H333.359Z" fill="#101828"/>
<path d="M393.188 275V252.453H395.922L410.719 273.688L407.156 270.25H408.406V252.453H411.188V275H408.453L393.656 253.766L397.219 257.203H395.969V275H393.188ZM415.141 275V258.75H417.859V261.062H417.922C418.359 260.302 418.995 259.677 419.828 259.188C420.661 258.688 421.693 258.438 422.922 258.438C424.703 258.438 426.083 258.979 427.062 260.062C428.052 261.135 428.547 262.599 428.547 264.453V275H425.828V264.938C425.828 263.615 425.516 262.604 424.891 261.906C424.276 261.198 423.344 260.844 422.094 260.844C421.24 260.844 420.495 261.036 419.859 261.422C419.224 261.797 418.729 262.328 418.375 263.016C418.031 263.703 417.859 264.51 417.859 265.438V275H415.141Z" fill="#101828"/>
<path d="M468.719 275.375C466.583 275.375 464.734 274.901 463.172 273.953C461.62 273.005 460.422 271.661 459.578 269.922C458.734 268.182 458.312 266.12 458.312 263.734V263.703C458.312 261.318 458.734 259.26 459.578 257.531C460.432 255.792 461.635 254.448 463.188 253.5C464.75 252.552 466.594 252.078 468.719 252.078C470.844 252.078 472.682 252.552 474.234 253.5C475.786 254.448 476.984 255.792 477.828 257.531C478.672 259.26 479.094 261.318 479.094 263.703V263.734C479.094 266.12 478.672 268.182 477.828 269.922C476.984 271.661 475.786 273.005 474.234 273.953C472.693 274.901 470.854 275.375 468.719 275.375ZM468.719 272.781C470.271 272.781 471.604 272.411 472.719 271.672C473.844 270.922 474.708 269.87 475.312 268.516C475.917 267.161 476.219 265.568 476.219 263.734V263.703C476.219 261.859 475.911 260.26 475.297 258.906C474.693 257.552 473.828 256.51 472.703 255.781C471.578 255.042 470.25 254.672 468.719 254.672C467.188 254.672 465.854 255.042 464.719 255.781C463.594 256.51 462.724 257.552 462.109 258.906C461.495 260.25 461.188 261.849 461.188 263.703V263.734C461.188 265.578 461.495 267.177 462.109 268.531C462.724 269.885 463.594 270.932 464.719 271.672C465.844 272.411 467.177 272.781 468.719 272.781ZM488.906 275.312C487.406 275.312 486.089 274.969 484.953 274.281C483.828 273.594 482.948 272.62 482.312 271.359C481.688 270.089 481.375 268.594 481.375 266.875V266.844C481.375 265.115 481.688 263.625 482.312 262.375C482.948 261.115 483.828 260.146 484.953 259.469C486.089 258.781 487.401 258.438 488.891 258.438C490.391 258.438 491.703 258.781 492.828 259.469C493.964 260.146 494.844 261.115 495.469 262.375C496.104 263.625 496.422 265.115 496.422 266.844V266.875C496.422 268.604 496.104 270.099 495.469 271.359C494.844 272.62 493.969 273.594 492.844 274.281C491.719 274.969 490.406 275.312 488.906 275.312ZM488.922 272.906C489.88 272.906 490.708 272.672 491.406 272.203C492.115 271.724 492.661 271.036 493.047 270.141C493.443 269.234 493.641 268.146 493.641 266.875V266.844C493.641 265.573 493.443 264.49 493.047 263.594C492.661 262.698 492.109 262.016 491.391 261.547C490.682 261.078 489.849 260.844 488.891 260.844C487.953 260.844 487.125 261.083 486.406 261.562C485.698 262.031 485.146 262.714 484.75 263.609C484.354 264.495 484.156 265.573 484.156 266.844V266.875C484.156 268.146 484.354 269.234 484.75 270.141C485.146 271.036 485.698 271.724 486.406 272.203C487.125 272.672 487.964 272.906 488.922 272.906Z" fill="#101828"/>
<path d="M44.5938 338.953V336.453H50.5C52.1146 336.453 53.3646 336.036 54.25 335.203C55.1354 334.359 55.5781 333.198 55.5781 331.719V331.688C55.5781 330.198 55.1354 329.036 54.25 328.203C53.3646 327.37 52.1146 326.953 50.5 326.953H44.5938V324.453H51.2188C52.6354 324.453 53.8854 324.755 54.9688 325.359C56.0521 325.964 56.901 326.807 57.5156 327.891C58.1406 328.974 58.4531 330.229 58.4531 331.656V331.688C58.4531 333.115 58.1406 334.375 57.5156 335.469C56.901 336.562 56.0521 337.417 54.9688 338.031C53.8854 338.646 52.6354 338.953 51.2188 338.953H44.5938ZM43.1875 347V324.453H46V347H43.1875ZM61.2656 352.469V330.75H63.9844V333.5H64.0469C64.3906 332.865 64.8125 332.323 65.3125 331.875C65.8229 331.417 66.4062 331.062 67.0625 330.812C67.7188 330.562 68.4323 330.438 69.2031 330.438C70.5885 330.438 71.7969 330.786 72.8281 331.484C73.8698 332.172 74.6771 333.151 75.25 334.422C75.8229 335.682 76.1094 337.167 76.1094 338.875V338.891C76.1094 340.599 75.8177 342.083 75.2344 343.344C74.6615 344.604 73.8594 345.583 72.8281 346.281C71.8073 346.969 70.6146 347.312 69.25 347.312C68.4896 347.312 67.776 347.193 67.1094 346.953C66.4427 346.703 65.849 346.354 65.3281 345.906C64.8177 345.448 64.3906 344.906 64.0469 344.281H63.9844V352.469H61.2656ZM68.6719 344.906C69.6302 344.906 70.4583 344.661 71.1562 344.172C71.8542 343.682 72.3906 342.99 72.7656 342.094C73.1406 341.188 73.3281 340.12 73.3281 338.891V338.875C73.3281 337.625 73.1406 336.552 72.7656 335.656C72.3906 334.75 71.8542 334.057 71.1562 333.578C70.4583 333.089 69.6302 332.844 68.6719 332.844C67.7552 332.844 66.9427 333.094 66.2344 333.594C65.526 334.094 64.9688 334.797 64.5625 335.703C64.1667 336.599 63.9688 337.656 63.9688 338.875V338.891C63.9688 340.099 64.1719 341.156 64.5781 342.062C64.9844 342.958 65.5365 343.656 66.2344 344.156C66.9427 344.656 67.7552 344.906 68.6719 344.906Z" fill="#101828"/>
<path d="M118.719 347.375C116.583 347.375 114.734 346.901 113.172 345.953C111.62 345.005 110.422 343.661 109.578 341.922C108.734 340.182 108.312 338.12 108.312 335.734V335.703C108.312 333.318 108.734 331.26 109.578 329.531C110.432 327.792 111.635 326.448 113.188 325.5C114.75 324.552 116.594 324.078 118.719 324.078C120.844 324.078 122.682 324.552 124.234 325.5C125.786 326.448 126.984 327.792 127.828 329.531C128.672 331.26 129.094 333.318 129.094 335.703V335.734C129.094 338.12 128.672 340.182 127.828 341.922C126.984 343.661 125.786 345.005 124.234 345.953C122.693 346.901 120.854 347.375 118.719 347.375ZM118.719 344.781C120.271 344.781 121.604 344.411 122.719 343.672C123.833 342.922 124.693 341.87 125.297 340.516C125.901 339.161 126.203 337.568 126.203 335.734V335.703C126.203 333.859 125.896 332.26 125.281 330.906C124.677 329.552 123.812 328.51 122.688 327.781C121.573 327.042 120.25 326.672 118.719 326.672C117.188 326.672 115.859 327.042 114.734 327.781C113.609 328.51 112.74 329.552 112.125 330.906C111.51 332.25 111.203 333.849 111.203 335.703V335.734C111.203 337.578 111.505 339.177 112.109 340.531C112.724 341.885 113.594 342.932 114.719 343.672C115.844 344.411 117.177 344.781 118.719 344.781ZM124.828 349.547L118.281 340.547H121.438L127.984 349.547H124.828ZM143.5 352.469V344.359H143.438C143.115 344.953 142.698 345.469 142.188 345.906C141.677 346.344 141.089 346.682 140.422 346.922C139.766 347.161 139.047 347.281 138.266 347.281C136.901 347.281 135.698 346.938 134.656 346.25C133.625 345.552 132.818 344.573 132.234 343.312C131.661 342.042 131.375 340.557 131.375 338.859V338.844C131.375 337.146 131.667 335.672 132.25 334.422C132.844 333.172 133.661 332.203 134.703 331.516C135.745 330.818 136.953 330.469 138.328 330.469C139.099 330.469 139.807 330.599 140.453 330.859C141.099 331.109 141.672 331.464 142.172 331.922C142.682 332.37 143.104 332.896 143.438 333.5H143.5V330.75H146.219V352.469H143.5ZM138.859 344.875C139.786 344.875 140.594 344.63 141.281 344.141C141.979 343.641 142.521 342.938 142.906 342.031C143.302 341.125 143.5 340.068 143.5 338.859V338.844C143.5 337.635 143.302 336.589 142.906 335.703C142.521 334.807 141.979 334.115 141.281 333.625C140.583 333.125 139.776 332.875 138.859 332.875C137.901 332.875 137.068 333.12 136.359 333.609C135.651 334.099 135.104 334.792 134.719 335.688C134.344 336.573 134.156 337.625 134.156 338.844V338.859C134.156 340.099 134.344 341.172 134.719 342.078C135.104 342.974 135.651 343.667 136.359 344.156C137.068 344.635 137.901 344.875 138.859 344.875Z" fill="#101828"/>
<path d="M175.188 347V324.453H183.641C185.089 324.453 186.349 324.734 187.422 325.297C188.505 325.849 189.344 326.63 189.938 327.641C190.531 328.641 190.828 329.818 190.828 331.172V331.203C190.828 332.766 190.422 334.12 189.609 335.266C188.807 336.401 187.703 337.193 186.297 337.641L191.516 347H188.219L183.391 338.078C183.359 338.078 183.328 338.078 183.297 338.078C183.276 338.078 183.25 338.078 183.219 338.078H178V347H175.188ZM178 335.594H183.391C184.839 335.594 185.953 335.219 186.734 334.469C187.526 333.719 187.922 332.651 187.922 331.266V331.234C187.922 329.891 187.505 328.844 186.672 328.094C185.849 327.333 184.714 326.953 183.266 326.953H178V335.594ZM193.953 347V330.75H196.672V333.5H196.734C197.005 332.562 197.474 331.818 198.141 331.266C198.807 330.714 199.599 330.438 200.516 330.438C200.755 330.438 200.969 330.453 201.156 330.484C201.354 330.505 201.505 330.526 201.609 330.547V333.188C201.505 333.146 201.318 333.109 201.047 333.078C200.786 333.047 200.49 333.031 200.156 333.031C199.458 333.031 198.844 333.188 198.312 333.5C197.792 333.812 197.385 334.266 197.094 334.859C196.812 335.443 196.672 336.146 196.672 336.969V347H193.953Z" fill="#101828"/>
<path d="M248.562 347.375C246.938 347.375 245.505 347.125 244.266 346.625C243.036 346.115 242.057 345.391 241.328 344.453C240.609 343.516 240.203 342.406 240.109 341.125L240.094 340.906H242.906L242.938 341.125C243.052 341.875 243.359 342.526 243.859 343.078C244.359 343.62 245.021 344.042 245.844 344.344C246.677 344.635 247.635 344.781 248.719 344.781C249.802 344.781 250.74 344.63 251.531 344.328C252.323 344.016 252.932 343.573 253.359 343C253.797 342.427 254.016 341.755 254.016 340.984V340.969C254.016 339.979 253.672 339.188 252.984 338.594C252.297 338 251.177 337.531 249.625 337.188L247.125 336.641C244.927 336.151 243.297 335.401 242.234 334.391C241.182 333.37 240.656 332.036 240.656 330.391V330.375C240.667 329.135 241.01 328.047 241.688 327.109C242.365 326.161 243.297 325.422 244.484 324.891C245.682 324.349 247.052 324.078 248.594 324.078C250.062 324.078 251.375 324.344 252.531 324.875C253.688 325.396 254.609 326.125 255.297 327.062C255.995 328 256.385 329.083 256.469 330.312L256.484 330.547H253.672L253.641 330.328C253.526 329.557 253.245 328.901 252.797 328.359C252.349 327.818 251.76 327.401 251.031 327.109C250.312 326.818 249.474 326.672 248.516 326.672C247.516 326.672 246.641 326.823 245.891 327.125C245.141 327.427 244.557 327.849 244.141 328.391C243.734 328.932 243.531 329.568 243.531 330.297V330.312C243.531 331.229 243.88 331.984 244.578 332.578C245.276 333.172 246.359 333.63 247.828 333.953L250.328 334.5C251.87 334.833 253.12 335.276 254.078 335.828C255.047 336.38 255.755 337.068 256.203 337.891C256.661 338.703 256.891 339.682 256.891 340.828V340.844C256.891 342.177 256.552 343.333 255.875 344.312C255.208 345.292 254.25 346.047 253 346.578C251.76 347.109 250.281 347.375 248.562 347.375ZM265.531 347.312C264.26 347.312 263.161 347.109 262.234 346.703C261.307 346.297 260.573 345.729 260.031 345C259.5 344.271 259.177 343.422 259.062 342.453L259.047 342.312H261.766L261.797 342.469C261.964 343.281 262.354 343.917 262.969 344.375C263.583 344.823 264.443 345.047 265.547 345.047C266.286 345.047 266.917 344.953 267.438 344.766C267.958 344.568 268.359 344.292 268.641 343.938C268.922 343.573 269.062 343.146 269.062 342.656V342.641C269.062 342.057 268.885 341.589 268.531 341.234C268.177 340.88 267.536 340.589 266.609 340.359L264.031 339.734C263.01 339.484 262.161 339.161 261.484 338.766C260.818 338.359 260.318 337.865 259.984 337.281C259.651 336.698 259.484 336.016 259.484 335.234V335.219C259.484 334.281 259.734 333.453 260.234 332.734C260.745 332.016 261.448 331.453 262.344 331.047C263.25 330.641 264.286 330.438 265.453 330.438C266.641 330.438 267.672 330.651 268.547 331.078C269.432 331.495 270.125 332.068 270.625 332.797C271.135 333.516 271.422 334.328 271.484 335.234L271.5 335.438H268.906L268.891 335.328C268.786 334.536 268.438 333.901 267.844 333.422C267.26 332.943 266.464 332.703 265.453 332.703C264.797 332.703 264.229 332.802 263.75 333C263.271 333.198 262.901 333.479 262.641 333.844C262.391 334.198 262.266 334.615 262.266 335.094V335.109C262.266 335.474 262.349 335.807 262.516 336.109C262.693 336.401 262.969 336.656 263.344 336.875C263.719 337.094 264.203 337.276 264.797 337.422L267.375 338.047C269.021 338.443 270.177 338.99 270.844 339.688C271.51 340.375 271.844 341.297 271.844 342.453V342.469C271.844 343.417 271.568 344.255 271.016 344.984C270.474 345.714 269.724 346.286 268.766 346.703C267.818 347.109 266.74 347.312 265.531 347.312Z" fill="#101828"/>
<path d="M312.891 347V326.984H305.781V324.453H322.812V326.984H315.703V347H312.891ZM330.641 347.312C329.151 347.312 328.036 346.958 327.297 346.25C326.557 345.542 326.188 344.411 326.188 342.859V333H323.812V330.75H326.188V326.359H329V330.75H332.094V333H329V342.844C329 343.708 329.188 344.297 329.562 344.609C329.938 344.911 330.49 345.062 331.219 345.062C331.385 345.062 331.542 345.057 331.688 345.047C331.844 345.026 331.979 345.01 332.094 345V347.203C331.927 347.224 331.708 347.245 331.438 347.266C331.177 347.297 330.911 347.312 330.641 347.312Z" fill="#101828"/>
<path d="M382.156 347.375C380.292 347.375 378.688 347.026 377.344 346.328C376.01 345.63 374.984 344.661 374.266 343.422C373.547 342.172 373.188 340.729 373.188 339.094V324.453H376V338.906C376 340.062 376.24 341.083 376.719 341.969C377.208 342.844 377.911 343.531 378.828 344.031C379.745 344.531 380.854 344.781 382.156 344.781C383.458 344.781 384.562 344.531 385.469 344.031C386.385 343.531 387.083 342.844 387.562 341.969C388.042 341.083 388.281 340.062 388.281 338.906V324.453H391.094V339.094C391.094 340.729 390.734 342.172 390.016 343.422C389.307 344.661 388.286 345.63 386.953 346.328C385.62 347.026 384.021 347.375 382.156 347.375ZM400.594 347.312C399.406 347.312 398.391 347.068 397.547 346.578C396.714 346.089 396.073 345.396 395.625 344.5C395.188 343.594 394.969 342.526 394.969 341.297V330.75H397.688V340.812C397.688 342.135 397.995 343.151 398.609 343.859C399.234 344.557 400.172 344.906 401.422 344.906C402.068 344.906 402.646 344.797 403.156 344.578C403.677 344.359 404.125 344.052 404.5 343.656C404.875 343.25 405.161 342.766 405.359 342.203C405.557 341.63 405.656 341 405.656 340.312V330.75H408.375V347H405.656V344.688H405.594C405.302 345.188 404.922 345.635 404.453 346.031C403.995 346.427 403.443 346.74 402.797 346.969C402.151 347.198 401.417 347.312 400.594 347.312Z" fill="#101828"/>
<path d="M445.703 347L437.391 324.453H440.344L447.062 343.625H447.125L453.844 324.453H456.797L448.484 347H445.703ZM463.062 347L457.078 330.75H459.938L464.422 344.109H464.484L468.984 330.75H471.812L465.844 347H463.062Z" fill="#101828"/>
<path d="M47.8438 419L41.7031 396.453H44.6406L49.1875 414.969H49.25L54.3594 396.453H57.2031L62.3125 414.969H62.375L66.9219 396.453H69.8594L63.7188 419H61.0625L55.8125 400.938H55.75L50.5 419H47.8438ZM75.5469 419L71 402.75H73.7031L76.9531 415.969H77.0156L80.6875 402.75H83.3125L87 415.969H87.0625L90.3125 402.75H93L88.4688 419H85.7031L82.0312 406.422H81.9688L78.3125 419H75.5469Z" fill="#101828"/>
<path d="M125.703 419L134.062 406.688L133.391 408.859V407.609L125.797 396.453H129.188L135.219 405.531H136.5L134.641 406.531L141.406 396.453H144.609L136.812 407.75V409L136.141 406.828L144.438 419H141.062L135.062 410H133.781L135.641 409.016L128.891 419H125.703ZM145.812 419L151.344 410.875L145.906 402.75H148.938L152.844 408.844H152.906L156.766 402.75H159.797L154.312 410.766L159.719 419H156.703L152.812 412.812H152.75L148.828 419H145.812Z" fill="#101828"/>
<path d="M199.391 419V409.297L191.391 396.453H194.594L200.75 406.578H200.844L207 396.453H210.203L202.203 409.297V419H199.391ZM212.984 424.469C212.724 424.469 212.458 424.453 212.188 424.422C211.927 424.401 211.708 424.375 211.531 424.344V422.125C211.646 422.146 211.776 422.167 211.922 422.188C212.078 422.208 212.24 422.219 212.406 422.219C213.271 422.219 213.958 422.068 214.469 421.766C214.99 421.464 215.411 420.854 215.734 419.938L216.062 419.016L210.031 402.75H212.938L217.625 416.906L217.047 416.281H217.859L217.281 416.906L221.984 402.75H224.844L218.5 420.016C218.115 421.047 217.682 421.891 217.203 422.547C216.724 423.203 216.146 423.688 215.469 424C214.792 424.312 213.964 424.469 212.984 424.469Z" fill="#101828"/>
<path d="M258.531 419V417L271.422 399.047V398.984H258.969V396.453H274.938V398.453L262.109 416.406V416.469H275.203V419H258.531ZM278.172 419V417.062L287.156 405.047V405H278.188V402.75H290.25V404.734L281.328 416.703V416.75H290.297V419H278.172Z" fill="#101828"/>
<path d="M50.6875 499.375C48.9583 499.375 47.474 498.901 46.2344 497.953C45.0052 497.005 44.0625 495.661 43.4062 493.922C42.75 492.182 42.4219 490.12 42.4219 487.734V487.703C42.4219 485.318 42.75 483.255 43.4062 481.516C44.0625 479.776 45.0052 478.438 46.2344 477.5C47.474 476.552 48.9583 476.078 50.6875 476.078C52.4167 476.078 53.901 476.552 55.1406 477.5C56.3802 478.438 57.3281 479.776 57.9844 481.516C58.651 483.255 58.9844 485.318 58.9844 487.703V487.734C58.9844 490.12 58.651 492.182 57.9844 493.922C57.3281 495.661 56.3802 497.005 55.1406 497.953C53.901 498.901 52.4167 499.375 50.6875 499.375ZM50.6875 496.922C51.8333 496.922 52.8125 496.552 53.625 495.812C54.4479 495.062 55.0729 494 55.5 492.625C55.9375 491.25 56.1562 489.62 56.1562 487.734V487.703C56.1562 485.818 55.9375 484.193 55.5 482.828C55.0729 481.453 54.4479 480.396 53.625 479.656C52.8125 478.917 51.8333 478.547 50.6875 478.547C49.5417 478.547 48.5625 478.917 47.75 479.656C46.9375 480.396 46.3177 481.453 45.8906 482.828C45.4635 484.193 45.25 485.818 45.25 487.703V487.734C45.25 489.62 45.4635 491.25 45.8906 492.625C46.3177 494 46.9375 495.062 47.75 495.812C48.5625 496.552 49.5417 496.922 50.6875 496.922Z" fill="#101828"/>
<path d="M92.5781 499V479.438H92.5156L86.5469 483.594V480.766L92.5469 476.453H95.2969V499H92.5781Z" fill="#101828"/>
<path d="M130.828 499V497.062L138.766 488.781C139.786 487.719 140.562 486.844 141.094 486.156C141.635 485.458 142.005 484.833 142.203 484.281C142.411 483.729 142.516 483.141 142.516 482.516V482.484C142.516 481.714 142.333 481.031 141.969 480.438C141.615 479.844 141.12 479.38 140.484 479.047C139.859 478.703 139.135 478.531 138.312 478.531C137.375 478.531 136.536 478.729 135.797 479.125C135.057 479.51 134.474 480.031 134.047 480.688C133.62 481.344 133.406 482.078 133.406 482.891V482.969H130.688V482.875C130.688 481.573 131.026 480.411 131.703 479.391C132.38 478.359 133.292 477.552 134.438 476.969C135.594 476.375 136.87 476.078 138.266 476.078C139.63 476.078 140.844 476.354 141.906 476.906C142.969 477.458 143.802 478.208 144.406 479.156C145.021 480.104 145.328 481.167 145.328 482.344V482.375C145.328 483.198 145.172 483.995 144.859 484.766C144.557 485.536 144.026 486.406 143.266 487.375C142.505 488.333 141.432 489.521 140.047 490.938L133.859 497.281L134.688 495.547V497.281L133.859 496.5H145.703V499H130.828Z" fill="#101828"/>
<path d="M186.422 499.375C184.87 499.375 183.516 499.109 182.359 498.578C181.203 498.047 180.286 497.318 179.609 496.391C178.943 495.464 178.557 494.406 178.453 493.219L178.438 493.031H181.141L181.156 493.188C181.24 493.927 181.505 494.578 181.953 495.141C182.411 495.703 183.021 496.146 183.781 496.469C184.542 496.781 185.422 496.938 186.422 496.938C187.411 496.938 188.276 496.766 189.016 496.422C189.766 496.078 190.349 495.604 190.766 495C191.182 494.385 191.391 493.682 191.391 492.891V492.859C191.391 491.474 190.927 490.411 190 489.672C189.083 488.922 187.833 488.547 186.25 488.547H183.422V486.172H186.125C187.021 486.172 187.812 486.005 188.5 485.672C189.188 485.328 189.724 484.865 190.109 484.281C190.495 483.688 190.688 483.016 190.688 482.266V482.234C190.688 481.443 190.521 480.771 190.188 480.219C189.854 479.667 189.365 479.245 188.719 478.953C188.083 478.661 187.307 478.516 186.391 478.516C185.505 478.516 184.714 478.667 184.016 478.969C183.328 479.26 182.776 479.682 182.359 480.234C181.943 480.786 181.693 481.443 181.609 482.203L181.594 482.359H178.891L178.906 482.203C179.031 480.974 179.417 479.901 180.062 478.984C180.719 478.068 181.583 477.354 182.656 476.844C183.74 476.333 184.984 476.078 186.391 476.078C187.828 476.078 189.078 476.328 190.141 476.828C191.214 477.318 192.042 478 192.625 478.875C193.219 479.74 193.516 480.745 193.516 481.891V481.922C193.516 482.849 193.312 483.672 192.906 484.391C192.5 485.109 191.938 485.708 191.219 486.188C190.5 486.667 189.672 487.005 188.734 487.203V487.266C190.38 487.401 191.708 487.958 192.719 488.938C193.74 489.906 194.25 491.193 194.25 492.797V492.828C194.25 494.078 193.911 495.198 193.234 496.188C192.557 497.177 191.63 497.958 190.453 498.531C189.276 499.094 187.932 499.375 186.422 499.375Z" fill="#101828"/>
<path d="M229.547 499V494.312H218.219V491.766C218.875 490.745 219.531 489.724 220.188 488.703C220.854 487.682 221.516 486.661 222.172 485.641C222.839 484.62 223.5 483.599 224.156 482.578C224.812 481.557 225.469 480.536 226.125 479.516C226.792 478.495 227.453 477.474 228.109 476.453H232.266V491.844H235.453V494.312H232.266V499H229.547ZM221 491.844H229.547V478.859H229.453C228.891 479.724 228.328 480.589 227.766 481.453C227.203 482.307 226.641 483.167 226.078 484.031C225.516 484.885 224.948 485.745 224.375 486.609C223.812 487.474 223.25 488.339 222.688 489.203C222.125 490.057 221.562 490.917 221 491.781V491.844Z" fill="#101828"/>
<path d="M270.578 499.375C269.141 499.375 267.859 499.099 266.734 498.547C265.62 497.995 264.724 497.24 264.047 496.281C263.37 495.323 262.974 494.234 262.859 493.016L262.844 492.844H265.609L265.625 492.969C265.719 493.708 265.99 494.38 266.438 494.984C266.885 495.578 267.469 496.047 268.188 496.391C268.906 496.734 269.714 496.906 270.609 496.906C271.63 496.906 272.531 496.688 273.312 496.25C274.094 495.812 274.703 495.208 275.141 494.438C275.578 493.656 275.797 492.76 275.797 491.75V491.719C275.797 490.729 275.573 489.854 275.125 489.094C274.688 488.323 274.083 487.719 273.312 487.281C272.542 486.844 271.656 486.625 270.656 486.625C269.896 486.625 269.188 486.74 268.531 486.969C267.885 487.188 267.312 487.526 266.812 487.984C266.615 488.172 266.422 488.375 266.234 488.594C266.057 488.812 265.896 489.052 265.75 489.312H263.266L264.422 476.453H277.328V478.953H266.734L265.969 486.531H266.031C266.385 486.021 266.823 485.594 267.344 485.25C267.865 484.906 268.448 484.646 269.094 484.469C269.74 484.292 270.427 484.203 271.156 484.203C272.604 484.203 273.885 484.526 275 485.172C276.125 485.818 277.005 486.703 277.641 487.828C278.286 488.943 278.609 490.224 278.609 491.672V491.703C278.609 493.203 278.266 494.531 277.578 495.688C276.891 496.844 275.943 497.75 274.734 498.406C273.526 499.052 272.141 499.375 270.578 499.375Z" fill="#101828"/>
<path d="M314.984 499.375C313.943 499.375 312.917 499.182 311.906 498.797C310.896 498.401 309.974 497.766 309.141 496.891C308.318 496.016 307.656 494.865 307.156 493.438C306.667 492 306.422 490.234 306.422 488.141V488.109C306.422 485.578 306.766 483.417 307.453 481.625C308.151 479.823 309.151 478.448 310.453 477.5C311.766 476.552 313.339 476.078 315.172 476.078C316.453 476.078 317.604 476.307 318.625 476.766C319.656 477.214 320.516 477.849 321.203 478.672C321.891 479.495 322.359 480.453 322.609 481.547L322.656 481.75H319.797L319.734 481.578C319.516 480.953 319.193 480.417 318.766 479.969C318.339 479.521 317.818 479.177 317.203 478.938C316.599 478.688 315.911 478.562 315.141 478.562C313.745 478.562 312.615 478.969 311.75 479.781C310.885 480.594 310.245 481.667 309.828 483C309.422 484.333 309.198 485.792 309.156 487.375C309.146 487.479 309.141 487.583 309.141 487.688C309.141 487.781 309.141 487.88 309.141 487.984L309.812 491.688C309.812 492.646 310.036 493.521 310.484 494.312C310.943 495.094 311.562 495.719 312.344 496.188C313.125 496.646 313.995 496.875 314.953 496.875C315.911 496.875 316.781 496.651 317.562 496.203C318.344 495.745 318.964 495.13 319.422 494.359C319.88 493.589 320.109 492.729 320.109 491.781V491.75C320.109 490.771 319.891 489.901 319.453 489.141C319.016 488.38 318.411 487.786 317.641 487.359C316.87 486.922 315.99 486.703 315 486.703C314.021 486.703 313.135 486.917 312.344 487.344C311.562 487.771 310.943 488.359 310.484 489.109C310.036 489.859 309.812 490.714 309.812 491.672V491.688H308.875V487.859H309.203C309.505 487.193 309.953 486.589 310.547 486.047C311.151 485.495 311.87 485.057 312.703 484.734C313.536 484.401 314.464 484.234 315.484 484.234C316.922 484.234 318.203 484.557 319.328 485.203C320.453 485.849 321.339 486.734 321.984 487.859C322.641 488.984 322.969 490.26 322.969 491.688V491.719C322.969 493.198 322.62 494.516 321.922 495.672C321.234 496.818 320.292 497.724 319.094 498.391C317.896 499.047 316.526 499.375 314.984 499.375Z" fill="#101828"/>
<path d="M352.125 499L362.328 479.016V478.953H350.188V476.453H365.109V479.062L355.078 499H352.125Z" fill="#101828"/>
<path d="M402.594 499.375C401 499.375 399.589 499.099 398.359 498.547C397.13 497.995 396.161 497.234 395.453 496.266C394.755 495.286 394.406 494.167 394.406 492.906V492.875C394.406 491.948 394.609 491.089 395.016 490.297C395.422 489.505 395.99 488.833 396.719 488.281C397.448 487.719 398.292 487.328 399.25 487.109V487.047C398.021 486.661 397.042 486.026 396.312 485.141C395.583 484.255 395.219 483.219 395.219 482.031V482C395.219 480.865 395.536 479.854 396.172 478.969C396.807 478.073 397.682 477.37 398.797 476.859C399.911 476.339 401.177 476.078 402.594 476.078C404.021 476.078 405.286 476.339 406.391 476.859C407.505 477.37 408.38 478.073 409.016 478.969C409.651 479.854 409.969 480.865 409.969 482V482.031C409.969 483.219 409.604 484.255 408.875 485.141C408.156 486.026 407.177 486.661 405.938 487.047V487.109C406.906 487.328 407.75 487.719 408.469 488.281C409.198 488.833 409.766 489.505 410.172 490.297C410.578 491.089 410.781 491.948 410.781 492.875V492.906C410.781 494.167 410.432 495.286 409.734 496.266C409.036 497.234 408.068 497.995 406.828 498.547C405.599 499.099 404.188 499.375 402.594 499.375ZM402.594 496.922C403.635 496.922 404.552 496.745 405.344 496.391C406.146 496.026 406.776 495.531 407.234 494.906C407.693 494.271 407.922 493.547 407.922 492.734V492.703C407.922 491.88 407.693 491.151 407.234 490.516C406.786 489.88 406.161 489.38 405.359 489.016C404.557 488.651 403.635 488.469 402.594 488.469C401.552 488.469 400.63 488.651 399.828 489.016C399.026 489.38 398.396 489.88 397.938 490.516C397.49 491.151 397.266 491.88 397.266 492.703V492.734C397.266 493.547 397.495 494.271 397.953 494.906C398.411 495.531 399.042 496.026 399.844 496.391C400.646 496.745 401.562 496.922 402.594 496.922ZM402.594 486C403.5 486 404.297 485.844 404.984 485.531C405.672 485.208 406.208 484.766 406.594 484.203C406.979 483.641 407.172 482.995 407.172 482.266V482.234C407.172 481.505 406.979 480.859 406.594 480.297C406.208 479.734 405.672 479.297 404.984 478.984C404.297 478.661 403.5 478.5 402.594 478.5C401.688 478.5 400.891 478.661 400.203 478.984C399.516 479.297 398.979 479.734 398.594 480.297C398.208 480.859 398.016 481.505 398.016 482.234V482.266C398.016 482.995 398.208 483.641 398.594 484.203C398.979 484.766 399.516 485.208 400.203 485.531C400.891 485.844 401.688 486 402.594 486Z" fill="#101828"/>
<path d="M446.766 476.078C447.807 476.078 448.833 476.276 449.844 476.672C450.854 477.057 451.771 477.688 452.594 478.562C453.427 479.438 454.089 480.594 454.578 482.031C455.078 483.458 455.328 485.219 455.328 487.312V487.344C455.328 489.875 454.979 492.042 454.281 493.844C453.594 495.635 452.599 497.005 451.297 497.953C449.995 498.901 448.422 499.375 446.578 499.375C445.307 499.375 444.156 499.146 443.125 498.688C442.094 498.229 441.234 497.594 440.547 496.781C439.859 495.958 439.391 495 439.141 493.906L439.094 493.703H441.953L442.016 493.875C442.245 494.49 442.568 495.026 442.984 495.484C443.411 495.932 443.927 496.281 444.531 496.531C445.146 496.771 445.839 496.891 446.609 496.891C448.016 496.891 449.146 496.484 450 495.672C450.865 494.859 451.5 493.786 451.906 492.453C452.323 491.109 452.552 489.651 452.594 488.078C452.604 487.974 452.609 487.875 452.609 487.781C452.609 487.677 452.609 487.573 452.609 487.469L451.938 483.766C451.938 482.797 451.708 481.922 451.25 481.141C450.802 480.359 450.188 479.74 449.406 479.281C448.635 478.812 447.766 478.578 446.797 478.578C445.839 478.578 444.969 478.807 444.188 479.266C443.406 479.714 442.786 480.323 442.328 481.094C441.87 481.865 441.641 482.724 441.641 483.672V483.703C441.641 484.682 441.859 485.552 442.297 486.312C442.734 487.073 443.339 487.672 444.109 488.109C444.88 488.536 445.76 488.75 446.75 488.75C447.74 488.75 448.625 488.536 449.406 488.109C450.188 487.682 450.802 487.094 451.25 486.344C451.708 485.594 451.938 484.74 451.938 483.781V483.766H452.875V487.594H452.547C452.245 488.26 451.797 488.87 451.203 489.422C450.609 489.964 449.891 490.401 449.047 490.734C448.214 491.057 447.286 491.219 446.266 491.219C444.839 491.219 443.557 490.896 442.422 490.25C441.297 489.604 440.406 488.719 439.75 487.594C439.104 486.469 438.781 485.193 438.781 483.766V483.734C438.781 482.255 439.125 480.943 439.812 479.797C440.51 478.641 441.458 477.734 442.656 477.078C443.854 476.411 445.224 476.078 446.766 476.078Z" fill="#101828"/>
</g>
<defs>
<filter id="filter0_d_1070_24312" x="0" y="0" width="640" height="586" filterUnits="userSpaceOnUse" color-interpolation-filters="sRGB">
<feFlood flood-opacity="0" result="BackgroundImageFix"/>
<feColorMatrix in="SourceAlpha" type="matrix" values="0 0 0 0 0 0 0 0 0 0 0 0 0 0 0 0 0 0 127 0" result="hardAlpha"/>
<feOffset dx="8" dy="8"/>
<feGaussianBlur stdDeviation="10"/>
<feComposite in2="hardAlpha" operator="out"/>
<feColorMatrix type="matrix" values="0 0 0 0 0 0 0 0 0 0 0 0 0 0 0 0 0 0 0.1 0"/>
<feBlend mode="normal" in2="BackgroundImageFix" result="effect1_dropShadow_1070_24312"/>
<feBlend mode="normal" in="SourceGraphic" in2="effect1_dropShadow_1070_24312" result="shape"/>
</filter>
</defs>
</svg>
