<svg width="699" height="305" viewBox="0 0 699 305" fill="none" xmlns="http://www.w3.org/2000/svg">
<g filter="url(#filter0_i_1331_4913)">
<path d="M212.694 120.407C217.764 40.4103 202.786 29.1119 137.763 81.198C56.8535 50.2313 42.1333 65.2856 66.2229 145.287C17.8898 211.448 29.2256 228.315 112.927 224.991C151.843 292.635 171.386 288.152 202.57 211.556C281.319 186.716 282.622 166.605 212.694 120.407Z" fill="#6145DE"/>
</g>
<path d="M212.694 120.407C217.764 40.4103 202.786 29.1119 137.763 81.198C56.8535 50.2313 42.1333 65.2856 66.2229 145.287C17.8898 211.448 29.2256 228.315 112.927 224.991C151.843 292.635 171.386 288.152 202.57 211.556C281.319 186.716 282.622 166.605 212.694 120.407Z" stroke="#8C76EF" stroke-width="8.51056"/>
<path d="M114.351 156.19H111.663L110.039 162.196H112.755L112.139 164.464H109.451L108.219 169H105.867L107.099 164.464H100.869L99.651 169H97.299L98.517 164.464H95.815L96.431 162.196H99.119L100.743 156.19H98.027L98.643 153.922H101.345L102.549 149.4H104.901L103.697 153.922H109.927L111.117 149.4H113.469L112.279 153.922H114.967L114.351 156.19ZM107.687 162.196L109.311 156.19H103.095L101.471 162.196H107.687ZM123.582 169.364C122.396 169.364 121.342 169.098 120.418 168.566C119.503 168.025 118.784 167.306 118.262 166.41C117.739 165.505 117.478 164.501 117.478 163.4H119.83C119.83 164.063 119.984 164.669 120.292 165.22C120.6 165.761 121.034 166.195 121.594 166.522C122.154 166.849 122.816 167.012 123.582 167.012C124.244 167.012 124.86 166.849 125.43 166.522C126.008 166.195 126.475 165.761 126.83 165.22C127.184 164.669 127.362 164.063 127.362 163.4C127.362 162.569 127.147 161.879 126.718 161.328C126.298 160.768 125.71 160.353 124.954 160.082C124.207 159.802 123.353 159.662 122.392 159.662V157.772C123.717 157.772 124.776 157.497 125.57 156.946C126.372 156.395 126.774 155.583 126.774 154.51C126.774 153.941 126.62 153.418 126.312 152.942C126.004 152.466 125.598 152.088 125.094 151.808C124.599 151.519 124.067 151.374 123.498 151.374C122.919 151.374 122.364 151.519 121.832 151.808C121.3 152.088 120.866 152.466 120.53 152.942C120.194 153.418 120.026 153.941 120.026 154.51H117.674C117.674 153.754 117.828 153.045 118.136 152.382C118.453 151.719 118.882 151.136 119.424 150.632C119.974 150.128 120.595 149.736 121.286 149.456C121.976 149.167 122.704 149.022 123.47 149.022C124.468 149.022 125.397 149.269 126.256 149.764C127.114 150.259 127.805 150.921 128.328 151.752C128.86 152.583 129.126 153.502 129.126 154.51C129.126 155.415 128.897 156.251 128.44 157.016C127.982 157.781 127.362 158.318 126.578 158.626C127.259 158.859 127.833 159.223 128.3 159.718C128.766 160.203 129.116 160.763 129.35 161.398C129.592 162.033 129.714 162.7 129.714 163.4C129.714 164.492 129.429 165.491 128.86 166.396C128.3 167.301 127.553 168.025 126.62 168.566C125.696 169.098 124.683 169.364 123.582 169.364ZM138.06 169.364C136.874 169.364 135.82 169.098 134.896 168.566C133.981 168.025 133.262 167.306 132.74 166.41C132.217 165.505 131.956 164.501 131.956 163.4H134.308C134.308 164.063 134.462 164.669 134.77 165.22C135.078 165.761 135.512 166.195 136.072 166.522C136.632 166.849 137.294 167.012 138.06 167.012C138.722 167.012 139.338 166.849 139.908 166.522C140.486 166.195 140.953 165.761 141.308 165.22C141.662 164.669 141.84 164.063 141.84 163.4C141.84 162.569 141.625 161.879 141.196 161.328C140.776 160.768 140.188 160.353 139.432 160.082C138.685 159.802 137.831 159.662 136.87 159.662V157.772C138.195 157.772 139.254 157.497 140.048 156.946C140.85 156.395 141.252 155.583 141.252 154.51C141.252 153.941 141.098 153.418 140.79 152.942C140.482 152.466 140.076 152.088 139.572 151.808C139.077 151.519 138.545 151.374 137.976 151.374C137.397 151.374 136.842 151.519 136.31 151.808C135.778 152.088 135.344 152.466 135.008 152.942C134.672 153.418 134.504 153.941 134.504 154.51H132.152C132.152 153.754 132.306 153.045 132.614 152.382C132.931 151.719 133.36 151.136 133.902 150.632C134.452 150.128 135.073 149.736 135.764 149.456C136.454 149.167 137.182 149.022 137.948 149.022C138.946 149.022 139.875 149.269 140.734 149.764C141.592 150.259 142.283 150.921 142.806 151.752C143.338 152.583 143.604 153.502 143.604 154.51C143.604 155.415 143.375 156.251 142.918 157.016C142.46 157.781 141.84 158.318 141.056 158.626C141.737 158.859 142.311 159.223 142.778 159.718C143.244 160.203 143.594 160.763 143.828 161.398C144.07 162.033 144.192 162.7 144.192 163.4C144.192 164.492 143.907 165.491 143.338 166.396C142.778 167.301 142.031 168.025 141.098 168.566C140.174 169.098 139.161 169.364 138.06 169.364ZM148.912 169V151.752H146.714L147.372 149.4H151.264V169H148.912ZM161.546 169.364C160.305 169.364 159.171 169.056 158.144 168.44C157.117 167.824 156.296 167.003 155.68 165.976C155.064 164.94 154.756 163.797 154.756 162.546C154.756 161.846 154.835 161.235 154.994 160.712C155.162 160.189 155.409 159.625 155.736 159.018L161.28 149.4H164.01L160.048 156.274C160.851 156.022 161.649 155.933 162.442 156.008C163.235 156.083 163.987 156.297 164.696 156.652C165.415 157.007 166.049 157.473 166.6 158.052C167.151 158.631 167.585 159.303 167.902 160.068C168.219 160.824 168.378 161.65 168.378 162.546C168.378 163.489 168.196 164.371 167.832 165.192C167.477 166.013 166.987 166.737 166.362 167.362C165.746 167.987 165.023 168.477 164.192 168.832C163.361 169.187 162.479 169.364 161.546 169.364ZM161.546 167.012C162.405 167.012 163.17 166.802 163.842 166.382C164.523 165.962 165.055 165.411 165.438 164.73C165.83 164.049 166.026 163.321 166.026 162.546C166.026 161.734 165.825 160.992 165.424 160.32C165.032 159.648 164.495 159.111 163.814 158.71C163.142 158.299 162.395 158.094 161.574 158.094C160.715 158.094 159.95 158.304 159.278 158.724C158.606 159.144 158.074 159.69 157.682 160.362C157.299 161.034 157.108 161.762 157.108 162.546C157.108 163.395 157.313 164.156 157.724 164.828C158.135 165.5 158.676 166.032 159.348 166.424C160.029 166.816 160.762 167.012 161.546 167.012ZM171.445 169V149.4H178.207C179.177 149.4 180.059 149.601 180.853 150.002C181.655 150.394 182.29 150.968 182.757 151.724C183.223 152.48 183.457 153.385 183.457 154.44C183.457 155.009 183.359 155.56 183.163 156.092C182.976 156.615 182.715 157.067 182.379 157.45C182.052 157.823 181.679 158.075 181.259 158.206C181.847 158.355 182.346 158.621 182.757 159.004C183.167 159.377 183.499 159.816 183.751 160.32C184.012 160.824 184.199 161.351 184.311 161.902C184.423 162.453 184.479 162.985 184.479 163.498C184.479 164.581 184.231 165.537 183.737 166.368C183.251 167.189 182.598 167.833 181.777 168.3C180.955 168.767 180.05 169 179.061 169H171.445ZM173.797 166.928H178.851C179.495 166.928 180.078 166.765 180.601 166.438C181.133 166.102 181.557 165.645 181.875 165.066C182.192 164.487 182.351 163.834 182.351 163.106C182.351 162.462 182.192 161.855 181.875 161.286C181.557 160.707 181.133 160.241 180.601 159.886C180.078 159.531 179.495 159.354 178.851 159.354H173.797V166.928ZM173.797 157.324H177.983C178.841 157.324 179.574 157.072 180.181 156.568C180.797 156.055 181.105 155.341 181.105 154.426C181.105 153.437 180.797 152.699 180.181 152.214C179.574 151.719 178.841 151.472 177.983 151.472H173.797V157.324ZM193.647 169.364C192.405 169.364 191.271 169.056 190.245 168.44C189.218 167.824 188.397 167.003 187.781 165.976C187.165 164.94 186.857 163.797 186.857 162.546C186.857 161.846 186.936 161.235 187.095 160.712C187.263 160.189 187.51 159.625 187.837 159.018L193.381 149.4H196.111L192.149 156.274C192.951 156.022 193.749 155.933 194.543 156.008C195.336 156.083 196.087 156.297 196.797 156.652C197.515 157.007 198.15 157.473 198.701 158.052C199.251 158.631 199.685 159.303 200.003 160.068C200.32 160.824 200.479 161.65 200.479 162.546C200.479 163.489 200.297 164.371 199.933 165.192C199.578 166.013 199.088 166.737 198.463 167.362C197.847 167.987 197.123 168.477 196.293 168.832C195.462 169.187 194.58 169.364 193.647 169.364ZM193.647 167.012C194.505 167.012 195.271 166.802 195.943 166.382C196.624 165.962 197.156 165.411 197.539 164.73C197.931 164.049 198.127 163.321 198.127 162.546C198.127 161.734 197.926 160.992 197.525 160.32C197.133 159.648 196.596 159.111 195.915 158.71C195.243 158.299 194.496 158.094 193.675 158.094C192.816 158.094 192.051 158.304 191.379 158.724C190.707 159.144 190.175 159.69 189.783 160.362C189.4 161.034 189.209 161.762 189.209 162.546C189.209 163.395 189.414 164.156 189.825 164.828C190.235 165.5 190.777 166.032 191.449 166.424C192.13 166.816 192.863 167.012 193.647 167.012Z" fill="white"/>
<g filter="url(#filter1_i_1331_4913)">
<path d="M429.732 144.772C432.744 74.1449 419.331 64.4562 362.949 111.567C291.045 85.7396 278.341 99.2818 301.04 169.381C259.631 228.598 269.934 243.263 343.674 238.805C379.221 297.737 396.37 293.429 422.468 225.324C491.45 201.985 492.232 184.23 429.732 144.772Z" fill="#FF66B3"/>
</g>
<path d="M429.732 144.772C432.744 74.1449 419.331 64.4562 362.949 111.567C291.045 85.7396 278.341 99.2818 301.04 169.381C259.631 228.598 269.934 243.263 343.674 238.805C379.221 297.737 396.37 293.429 422.468 225.324C491.45 201.985 492.232 184.23 429.732 144.772Z" stroke="#FF99CC" stroke-width="10"/>
<path d="M337.034 183.287L334.73 183.334L333.445 188.51L335.773 188.462L335.285 190.416L332.981 190.464L332.006 194.373L329.99 194.415L330.966 190.506L325.627 190.616L324.664 194.525L322.648 194.567L323.611 190.658L321.296 190.706L321.784 188.751L324.087 188.704L325.372 183.528L323.045 183.576L323.532 181.621L325.848 181.574L326.8 177.677L328.815 177.635L327.864 181.532L333.202 181.421L334.142 177.525L336.158 177.483L335.218 181.38L337.521 181.332L337.034 183.287ZM331.43 188.552L332.715 183.376L327.388 183.486L326.103 188.662L331.43 188.552ZM348.441 194.345C347.305 194.368 346.233 194.167 345.224 193.739C344.215 193.304 343.322 192.698 342.546 191.922C341.777 191.138 341.166 190.223 340.713 189.176C340.267 188.129 340.032 187.005 340.007 185.806C339.982 184.606 340.17 183.474 340.573 182.409C340.983 181.344 341.555 180.408 342.291 179.601C343.034 178.785 343.901 178.143 344.892 177.675C345.882 177.198 346.945 176.948 348.081 176.925C349.44 176.897 350.699 177.187 351.856 177.795C353.012 178.403 353.978 179.223 354.751 180.255L352.983 181.252C352.408 180.528 351.688 179.959 350.823 179.545C349.967 179.122 349.066 178.921 348.122 178.94C347.251 178.958 346.438 179.151 345.686 179.519C344.941 179.886 344.291 180.384 343.736 181.011C343.181 181.639 342.752 182.36 342.449 183.175C342.146 183.989 342.003 184.852 342.022 185.764C342.041 186.684 342.219 187.544 342.556 188.345C342.9 189.146 343.363 189.849 343.944 190.453C344.532 191.057 345.206 191.527 345.965 191.864C346.732 192.192 347.544 192.347 348.399 192.329C349.375 192.309 350.274 192.071 351.097 191.613C351.928 191.148 352.616 190.55 353.16 189.818L354.968 190.753C354.238 191.817 353.308 192.676 352.177 193.331C351.046 193.979 349.801 194.317 348.441 194.345ZM365.652 193.989C364.516 194.012 363.444 193.811 362.435 193.383C361.425 192.948 360.533 192.342 359.756 191.566C358.988 190.782 358.377 189.866 357.923 188.82C357.477 187.773 357.242 186.649 357.217 185.45C357.193 184.25 357.381 183.118 357.783 182.053C358.193 180.988 358.766 180.052 359.502 179.245C360.245 178.429 361.112 177.787 362.102 177.319C363.093 176.842 364.156 176.592 365.291 176.569C366.651 176.54 367.909 176.831 369.066 177.439C370.223 178.047 371.188 178.867 371.962 179.899L370.194 180.896C369.619 180.172 368.899 179.603 368.034 179.188C367.177 178.766 366.277 178.565 365.333 178.584C364.461 178.602 363.649 178.795 362.897 179.163C362.152 179.53 361.502 180.028 360.947 180.655C360.392 181.283 359.963 182.004 359.659 182.818C359.356 183.633 359.214 184.496 359.233 185.408C359.252 186.328 359.43 187.188 359.766 187.989C360.111 188.79 360.574 189.493 361.154 190.097C361.743 190.701 362.417 191.171 363.176 191.508C363.943 191.836 364.754 191.991 365.61 191.973C366.586 191.953 367.485 191.714 368.308 191.257C369.138 190.792 369.826 190.194 370.371 189.462L372.179 190.397C371.449 191.46 370.518 192.32 369.388 192.975C368.257 193.623 367.012 193.961 365.652 193.989ZM381.116 193.669C380.116 193.69 379.216 193.484 378.415 193.053C377.614 192.613 376.921 191.999 376.336 191.211C375.752 190.423 375.301 189.508 374.983 188.467C374.665 187.417 374.494 186.292 374.469 185.093C374.444 183.893 374.569 182.762 374.843 181.7C375.117 180.638 375.53 179.705 376.082 178.902C376.633 178.09 377.3 177.452 378.082 176.988C378.865 176.516 379.756 176.269 380.756 176.249C381.748 176.228 382.644 176.438 383.445 176.877C384.254 177.309 384.943 177.918 385.512 178.707C386.088 179.487 386.535 180.402 386.853 181.452C387.178 182.501 387.354 183.626 387.379 184.825C387.403 186.025 387.275 187.156 386.993 188.218C386.718 189.272 386.31 190.205 385.766 191.016C385.231 191.827 384.568 192.469 383.778 192.942C382.995 193.406 382.108 193.648 381.116 193.669ZM381.074 191.653C382.074 191.633 382.904 191.307 383.563 190.678C384.23 190.04 384.721 189.209 385.036 188.187C385.35 187.164 385.496 186.057 385.471 184.865C385.445 183.609 385.246 182.481 384.873 181.481C384.508 180.472 383.979 179.679 383.287 179.101C382.603 178.523 381.773 178.244 380.797 178.264C380.03 178.28 379.361 178.474 378.793 178.846C378.233 179.217 377.771 179.719 377.408 180.351C377.045 180.982 376.776 181.704 376.6 182.516C376.433 183.32 376.359 184.165 376.377 185.053C376.402 186.245 376.596 187.349 376.962 188.366C377.326 189.374 377.851 190.18 378.536 190.782C379.228 191.383 380.075 191.674 381.074 191.653ZM395.609 193.369C394.609 193.39 393.708 193.184 392.907 192.753C392.106 192.313 391.413 191.7 390.829 190.911C390.244 190.123 389.793 189.208 389.476 188.167C389.158 187.117 388.987 185.992 388.962 184.793C388.937 183.593 389.062 182.462 389.336 181.4C389.61 180.338 390.023 179.406 390.574 178.602C391.125 177.79 391.792 177.153 392.575 176.688C393.357 176.216 394.248 175.969 395.248 175.949C396.24 175.928 397.137 176.138 397.938 176.577C398.747 177.009 399.436 177.619 400.004 178.407C400.58 179.187 401.027 180.102 401.345 181.152C401.671 182.201 401.846 183.326 401.871 184.526C401.896 185.725 401.767 186.856 401.485 187.918C401.211 188.972 400.802 189.905 400.259 190.716C399.723 191.528 399.061 192.169 398.27 192.642C397.488 193.106 396.6 193.349 395.609 193.369ZM395.567 191.354C396.567 191.333 397.396 191.008 398.055 190.378C398.722 189.74 399.213 188.91 399.528 187.887C399.843 186.864 399.988 185.757 399.963 184.565C399.937 183.309 399.738 182.181 399.365 181.181C399 180.172 398.472 179.379 397.78 178.801C397.096 178.223 396.266 177.944 395.29 177.964C394.522 177.98 393.854 178.174 393.286 178.546C392.725 178.918 392.263 179.419 391.9 180.051C391.537 180.683 391.268 181.404 391.093 182.216C390.926 183.02 390.851 183.865 390.869 184.753C390.894 185.945 391.089 187.049 391.454 188.066C391.819 189.075 392.344 189.88 393.028 190.482C393.721 191.084 394.567 191.374 395.567 191.354ZM409.661 193.078C408.598 193.1 407.62 192.857 406.73 192.347C405.839 191.837 405.121 191.148 404.574 190.279C404.028 189.402 403.744 188.428 403.722 187.356C403.709 186.756 403.767 186.231 403.893 185.78C404.028 185.329 404.23 184.841 404.499 184.315L409.079 175.975L411.419 175.926L408.146 181.887C408.829 181.657 409.511 181.567 410.192 181.617C410.874 181.667 411.521 181.837 412.135 182.129C412.758 182.42 413.31 182.809 413.792 183.295C414.274 183.781 414.658 184.349 414.943 184.999C415.229 185.642 415.379 186.347 415.395 187.114C415.412 187.922 415.272 188.681 414.974 189.392C414.685 190.102 414.278 190.73 413.753 191.277C413.236 191.824 412.625 192.257 411.919 192.576C411.214 192.894 410.461 193.062 409.661 193.078ZM409.62 191.063C410.356 191.048 411.008 190.854 411.576 190.482C412.153 190.11 412.599 189.629 412.915 189.038C413.238 188.447 413.393 187.82 413.38 187.156C413.365 186.46 413.18 185.828 412.824 185.259C412.477 184.69 412.007 184.24 411.416 183.908C410.833 183.568 410.189 183.405 409.486 183.42C408.75 183.435 408.098 183.629 407.529 184.001C406.961 184.372 406.515 184.85 406.191 185.433C405.874 186.015 405.723 186.642 405.737 187.314C405.752 188.042 405.942 188.69 406.306 189.259C406.67 189.828 407.143 190.274 407.726 190.598C408.317 190.922 408.948 191.077 409.62 191.063ZM423.123 192.8C422.059 192.822 421.082 192.578 420.191 192.068C419.3 191.559 418.582 190.869 418.036 190C417.49 189.124 417.205 188.149 417.183 187.077C417.171 186.478 417.228 185.952 417.355 185.502C417.489 185.051 417.691 184.562 417.961 184.037L422.541 175.696L424.88 175.648L421.607 181.609C422.29 181.379 422.973 181.288 423.654 181.338C424.335 181.388 424.983 181.559 425.597 181.85C426.219 182.142 426.771 182.53 427.253 183.016C427.736 183.502 428.119 184.071 428.405 184.721C428.69 185.363 428.841 186.068 428.857 186.836C428.873 187.644 428.733 188.403 428.436 189.113C428.146 189.823 427.739 190.452 427.215 190.999C426.698 191.546 426.087 191.978 425.381 192.297C424.675 192.616 423.923 192.783 423.123 192.8ZM423.081 190.784C423.817 190.769 424.469 190.576 425.038 190.204C425.614 189.832 426.06 189.35 426.376 188.76C426.7 188.169 426.855 187.542 426.841 186.878C426.827 186.182 426.642 185.549 426.286 184.981C425.938 184.412 425.469 183.961 424.878 183.63C424.294 183.29 423.651 183.127 422.947 183.141C422.211 183.157 421.559 183.35 420.991 183.722C420.422 184.094 419.976 184.571 419.652 185.154C419.336 185.737 419.185 186.364 419.199 187.036C419.214 187.764 419.403 188.412 419.767 188.98C420.131 189.549 420.604 189.995 421.187 190.319C421.778 190.643 422.409 190.798 423.081 190.784Z" fill="white"/>
<path d="M632.313 155.048C622.207 90.6014 608.312 84.2724 565.86 137.139C496.113 126.835 487.079 141.395 520.351 200.693C493.645 261.792 505.63 273.188 571.537 255.758C614.404 302.619 629.137 295.605 640.376 229.246C698.546 195.599 696.028 179.393 632.313 155.048Z" fill="#7BE4EA" stroke="#A7EDF1" stroke-width="8.78475"/>
<path d="M550.815 197.353L548.512 197.401L547.226 202.577L549.554 202.528L549.066 204.483L546.763 204.531L545.787 208.44L543.772 208.481L544.747 204.572L539.408 204.683L538.445 208.592L536.429 208.633L537.393 204.724L535.077 204.772L535.565 202.818L537.868 202.77L539.154 197.595L536.826 197.643L537.314 195.688L539.629 195.64L540.581 191.744L542.596 191.702L541.645 195.599L546.984 195.488L547.923 191.592L549.939 191.55L548.999 195.446L551.303 195.399L550.815 197.353ZM545.211 202.618L546.496 197.443L541.169 197.553L539.884 202.729L545.211 202.618ZM555.845 208.232L555.54 193.451L553.656 193.49L554.178 191.462L557.513 191.393L557.861 208.19L555.845 208.232ZM569.474 208.262C568.339 208.285 567.266 208.083 566.257 207.656C565.248 207.221 564.355 206.615 563.579 205.839C562.811 205.055 562.199 204.139 561.746 203.092C561.3 202.045 561.065 200.922 561.04 199.722C561.015 198.523 561.204 197.39 561.606 196.326C562.016 195.261 562.589 194.325 563.324 193.518C564.067 192.702 564.934 192.06 565.925 191.591C566.915 191.115 567.978 190.865 569.114 190.841C570.474 190.813 571.732 191.103 572.889 191.711C574.046 192.32 575.011 193.14 575.784 194.172L574.016 195.169C573.441 194.445 572.721 193.875 571.857 193.461C571 193.039 570.099 192.837 569.156 192.857C568.284 192.875 567.472 193.068 566.719 193.435C565.974 193.803 565.325 194.3 564.77 194.928C564.214 195.556 563.785 196.277 563.482 197.091C563.179 197.906 563.037 198.769 563.055 199.681C563.074 200.6 563.252 201.461 563.589 202.262C563.934 203.063 564.396 203.766 564.977 204.37C565.565 204.974 566.239 205.444 566.998 205.78C567.765 206.108 568.577 206.264 569.433 206.246C570.408 206.226 571.308 205.987 572.13 205.53C572.961 205.065 573.649 204.466 574.194 203.735L576.001 204.67C575.271 205.733 574.341 206.593 573.21 207.248C572.079 207.896 570.834 208.233 569.474 208.262ZM584.019 190.845L586.455 190.795L592.909 207.465L590.774 207.509L589.455 204.103L581.573 204.267L580.408 207.723L578.26 207.768L584.019 190.845ZM582.275 202.236L588.669 202.103L585.285 193.399L582.275 202.236ZM600.724 207.615C599.724 207.636 598.808 207.427 597.975 206.988C597.149 206.549 596.485 205.954 595.981 205.205C595.486 204.447 595.228 203.604 595.209 202.676C595.191 201.812 595.403 201.016 595.844 200.286C596.284 199.549 596.868 198.961 597.595 198.522C596.988 198.15 596.481 197.653 596.076 197.029C595.679 196.397 595.473 195.709 595.457 194.965C595.44 194.101 595.647 193.313 596.081 192.6C596.522 191.887 597.114 191.314 597.858 190.883C598.609 190.443 599.444 190.214 600.364 190.195C601.284 190.176 602.124 190.37 602.884 190.779C603.653 191.179 604.268 191.726 604.731 192.421C605.201 193.115 605.445 193.894 605.463 194.758C605.479 195.502 605.301 196.198 604.93 196.846C604.56 197.486 604.07 198.004 603.462 198.4C604.231 198.809 604.847 199.372 605.31 200.091C605.78 200.801 606.025 201.588 606.043 202.452C606.062 203.372 605.835 204.221 605.363 204.999C604.891 205.776 604.248 206.402 603.434 206.875C602.627 207.348 601.724 207.594 600.724 207.615ZM600.683 205.599C601.29 205.587 601.835 205.44 602.318 205.158C602.808 204.875 603.196 204.503 603.483 204.041C603.769 203.571 603.907 203.056 603.895 202.496C603.883 201.929 603.725 201.42 603.419 200.97C603.114 200.52 602.711 200.164 602.209 199.903C601.716 199.641 601.165 199.516 600.557 199.529C599.957 199.541 599.412 199.689 598.922 199.971C598.431 200.253 598.043 200.625 597.757 201.087C597.47 201.549 597.333 202.064 597.344 202.632C597.356 203.192 597.515 203.701 597.82 204.158C598.125 204.608 598.529 204.964 599.03 205.226C599.532 205.487 600.083 205.612 600.683 205.599ZM600.515 197.513C601.043 197.502 601.521 197.372 601.947 197.124C602.374 196.875 602.712 196.548 602.959 196.142C603.215 195.737 603.338 195.29 603.328 194.802C603.318 194.307 603.176 193.865 602.904 193.479C602.64 193.084 602.29 192.772 601.853 192.541C601.416 192.309 600.933 192.199 600.406 192.21C599.878 192.221 599.4 192.351 598.973 192.6C598.546 192.849 598.205 193.176 597.949 193.581C597.702 193.979 597.583 194.425 597.593 194.921C597.603 195.409 597.74 195.85 598.004 196.245C598.277 196.639 598.631 196.952 599.068 197.183C599.505 197.414 599.987 197.524 600.515 197.513ZM609.014 207.131L608.667 190.335L614.461 190.215C615.293 190.198 616.052 190.354 616.739 190.684C617.434 191.006 617.988 191.487 618.402 192.126C618.815 192.766 619.031 193.537 619.05 194.441C619.06 194.929 618.986 195.403 618.827 195.862C618.676 196.313 618.46 196.706 618.179 197.04C617.906 197.365 617.59 197.588 617.233 197.707C617.739 197.825 618.172 198.044 618.531 198.365C618.889 198.677 619.181 199.047 619.406 199.475C619.639 199.902 619.808 200.351 619.914 200.821C620.02 201.291 620.077 201.746 620.086 202.185C620.105 203.113 619.91 203.937 619.501 204.658C619.1 205.37 618.551 205.934 617.856 206.348C617.16 206.763 616.388 206.979 615.541 206.996L609.014 207.131ZM610.993 205.314L615.324 205.225C615.876 205.213 616.373 205.063 616.815 204.774C617.265 204.476 617.621 204.077 617.882 203.575C618.144 203.074 618.268 202.511 618.256 201.887C618.244 201.335 618.097 200.818 617.815 200.336C617.533 199.846 617.161 199.453 616.699 199.159C616.245 198.864 615.742 198.723 615.19 198.734L610.859 198.824L610.993 205.314ZM610.823 197.084L614.41 197.01C615.146 196.994 615.769 196.766 616.28 196.323C616.799 195.872 617.05 195.255 617.034 194.471C617.016 193.623 616.739 192.997 616.203 192.592C615.674 192.179 615.042 191.98 614.306 191.995L610.719 192.069L610.823 197.084ZM628.815 207.034C627.815 207.055 626.914 206.849 626.113 206.418C625.312 205.978 624.619 205.364 624.035 204.576C623.45 203.788 622.999 202.873 622.682 201.832C622.364 200.782 622.193 199.657 622.168 198.458C622.143 197.258 622.268 196.127 622.542 195.065C622.816 194.003 623.229 193.07 623.78 192.267C624.331 191.455 624.998 190.817 625.781 190.353C626.563 189.881 627.454 189.634 628.454 189.614C629.446 189.593 630.342 189.803 631.144 190.242C631.953 190.673 632.642 191.283 633.21 192.072C633.786 192.852 634.233 193.767 634.551 194.817C634.877 195.866 635.052 196.991 635.077 198.19C635.102 199.39 634.973 200.521 634.691 201.583C634.417 202.637 634.008 203.57 633.465 204.381C632.929 205.192 632.266 205.834 631.476 206.307C630.694 206.771 629.806 207.013 628.815 207.034ZM628.773 205.018C629.773 204.998 630.602 204.672 631.261 204.043C631.928 203.405 632.419 202.574 632.734 201.552C633.049 200.529 633.194 199.422 633.169 198.23C633.143 196.974 632.944 195.846 632.571 194.846C632.206 193.837 631.678 193.044 630.986 192.466C630.302 191.888 629.472 191.609 628.496 191.629C627.728 191.645 627.06 191.839 626.491 192.211C625.931 192.582 625.469 193.084 625.106 193.716C624.743 194.347 624.474 195.069 624.299 195.881C624.131 196.685 624.057 197.53 624.075 198.418C624.1 199.61 624.295 200.714 624.66 201.731C625.025 202.739 625.55 203.545 626.234 204.147C626.927 204.748 627.773 205.039 628.773 205.018Z" fill="#292929"/>
<defs>
<filter id="filter0_i_1331_4913" x="33.3965" y="45.1982" width="234.328" height="235.036" filterUnits="userSpaceOnUse" color-interpolation-filters="sRGB">
<feFlood flood-opacity="0" result="BackgroundImageFix"/>
<feBlend mode="normal" in="SourceGraphic" in2="BackgroundImageFix" result="shape"/>
<feColorMatrix in="SourceAlpha" type="matrix" values="0 0 0 0 0 0 0 0 0 0 0 0 0 0 0 0 0 0 127 0" result="hardAlpha"/>
<feOffset dy="3.40423"/>
<feGaussianBlur stdDeviation="1.70211"/>
<feComposite in2="hardAlpha" operator="arithmetic" k2="-1" k3="1"/>
<feColorMatrix type="matrix" values="0 0 0 0 0 0 0 0 0 0 0 0 0 0 0 0 0 0 0.25 0"/>
<feBlend mode="normal" in2="shape" result="effect1_innerShadow_1331_4913"/>
</filter>
<filter id="filter1_i_1331_4913" x="271.875" y="77.5459" width="208.577" height="211.395" filterUnits="userSpaceOnUse" color-interpolation-filters="sRGB">
<feFlood flood-opacity="0" result="BackgroundImageFix"/>
<feBlend mode="normal" in="SourceGraphic" in2="BackgroundImageFix" result="shape"/>
<feColorMatrix in="SourceAlpha" type="matrix" values="0 0 0 0 0 0 0 0 0 0 0 0 0 0 0 0 0 0 127 0" result="hardAlpha"/>
<feOffset dy="4"/>
<feGaussianBlur stdDeviation="2"/>
<feComposite in2="hardAlpha" operator="arithmetic" k2="-1" k3="1"/>
<feColorMatrix type="matrix" values="0 0 0 0 0 0 0 0 0 0 0 0 0 0 0 0 0 0 0.25 0"/>
<feBlend mode="normal" in2="shape" result="effect1_innerShadow_1331_4913"/>
</filter>
</defs>
</svg>
