<svg width="576" height="284" viewBox="0 0 576 284" fill="none" xmlns="http://www.w3.org/2000/svg">
<path d="M139.557 102.434C130.476 44.5259 117.99 38.8389 79.8451 86.3423C17.1737 77.0833 9.05628 90.1664 38.9533 143.449C14.9563 198.349 25.7259 208.589 84.946 192.927C123.464 235.034 136.702 228.732 146.801 169.105C199.07 138.871 196.807 124.309 139.557 102.434Z" fill="#32383E" stroke="#2E3338" stroke-width="7.89353"/>
<path d="M65.5964 141.683L63.2929 141.73L62.0077 146.906L64.3352 146.858L63.8475 148.813L61.544 148.86L60.5686 152.769L58.5531 152.811L59.5284 148.902L54.1896 149.012L53.2262 152.921L51.2106 152.963L52.174 149.054L49.8585 149.102L50.3462 147.147L52.6497 147.1L53.9349 141.924L51.6074 141.972L52.0951 140.018L54.4106 139.97L55.3622 136.073L57.3777 136.032L56.4261 139.928L61.765 139.818L62.7046 135.921L64.7202 135.88L63.7806 139.776L66.0841 139.728L65.5964 141.683ZM59.9921 146.948L61.2773 141.772L55.9504 141.882L54.6652 147.058L59.9921 146.948ZM73.7404 152.809C72.7246 152.83 71.8161 152.621 71.0148 152.181C70.2214 151.733 69.5928 151.13 69.129 150.372C68.665 149.605 68.4233 148.75 68.4038 147.806L70.4193 147.764C70.4311 148.332 70.5738 148.849 70.8475 149.316C71.1211 149.774 71.5007 150.138 71.9864 150.409C72.4721 150.679 73.0428 150.807 73.6987 150.793C74.2666 150.781 74.7916 150.631 75.2737 150.34C75.7638 150.05 76.156 149.67 76.4503 149.2C76.7445 148.722 76.8857 148.199 76.874 147.631C76.8592 146.919 76.663 146.331 76.2853 145.867C75.9155 145.394 75.4042 145.049 74.7516 144.83C74.1067 144.603 73.3724 144.499 72.5486 144.516L72.5151 142.896C73.6508 142.872 74.5538 142.618 75.2239 142.132C75.9019 141.646 76.2315 140.943 76.2124 140.023C76.2023 139.535 76.0611 139.09 75.7887 138.687C75.5163 138.285 75.1617 137.968 74.7248 137.737C74.2958 137.498 73.8373 137.383 73.3494 137.394C72.8535 137.404 72.3802 137.538 71.9294 137.795C71.4785 138.044 71.1133 138.376 70.8338 138.79C70.5543 139.204 70.4196 139.655 70.4297 140.143L68.4141 140.184C68.4007 139.536 68.5201 138.926 68.7723 138.352C69.0325 137.779 69.3901 137.271 69.845 136.83C70.308 136.388 70.8329 136.041 71.4198 135.789C72.0066 135.529 72.6279 135.392 73.2837 135.378C74.1396 135.361 74.9398 135.556 75.6844 135.965C76.429 136.374 77.0326 136.929 77.4953 137.632C77.9659 138.334 78.2101 139.117 78.228 139.981C78.2441 140.757 78.0629 141.477 77.6846 142.141C77.3062 142.805 76.7839 143.276 76.1175 143.554C76.7055 143.741 77.2038 144.043 77.6125 144.459C78.021 144.866 78.3309 145.34 78.5421 145.88C78.7613 146.42 78.8771 146.989 78.8895 147.589C78.9089 148.525 78.6826 149.386 78.2108 150.172C77.747 150.957 77.1199 151.591 76.3297 152.071C75.5473 152.543 74.6842 152.789 73.7404 152.809ZM81.15 152.343L81.1131 150.556C81.7175 149.991 82.3966 149.361 83.1504 148.665C83.904 147.961 84.653 147.23 85.3975 146.47C86.1497 145.703 86.8382 144.944 87.4628 144.195C88.0875 143.446 88.589 142.739 88.9673 142.075C89.3455 141.404 89.5295 140.82 89.5192 140.324C89.507 139.732 89.3518 139.195 89.0538 138.713C88.7556 138.223 88.3595 137.835 87.8655 137.549C87.3794 137.263 86.8405 137.126 86.2486 137.139C85.6567 137.151 85.1159 137.31 84.6262 137.616C84.1444 137.922 83.7607 138.326 83.475 138.828C83.1971 139.322 83.0643 139.865 83.0766 140.457L81.061 140.499C81.0407 139.515 81.2622 138.622 81.7258 137.82C82.1891 137.011 82.8119 136.366 83.5941 135.885C84.3762 135.397 85.2471 135.143 86.2069 135.123C87.1667 135.103 88.0434 135.321 88.837 135.777C89.6386 136.232 90.2836 136.855 90.7721 137.645C91.2603 138.427 91.5146 139.306 91.5348 140.282C91.5464 140.842 91.4229 141.449 91.1643 142.102C90.9056 142.748 90.5474 143.415 90.0895 144.105C89.6317 144.794 89.11 145.493 88.5246 146.202C87.9389 146.902 87.3211 147.595 86.6712 148.28C86.0212 148.966 85.3747 149.623 84.7316 150.253L91.954 150.103L91.9957 152.119L81.15 152.343ZM99.8667 152.268C98.8509 152.289 97.9424 152.08 97.1411 151.64C96.3477 151.193 95.7191 150.59 95.2553 149.831C94.7913 149.065 94.5496 148.209 94.5301 147.266L96.5456 147.224C96.5574 147.792 96.7001 148.309 96.9738 148.775C97.2473 149.234 97.627 149.598 98.1126 149.868C98.5983 150.138 99.1691 150.266 99.825 150.253C100.393 150.241 100.918 150.09 101.4 149.8C101.89 149.51 102.282 149.13 102.577 148.659C102.871 148.181 103.012 147.658 103 147.09C102.986 146.378 102.789 145.79 102.412 145.326C102.042 144.854 101.531 144.508 100.878 144.29C100.233 144.063 99.4987 143.958 98.6749 143.975L98.6414 142.355C99.7771 142.332 100.68 142.077 101.35 141.591C102.028 141.105 102.358 140.402 102.339 139.482C102.329 138.994 102.187 138.549 101.915 138.147C101.643 137.744 101.288 137.428 100.851 137.197C100.422 136.957 99.9636 136.843 99.4757 136.853C98.9798 136.863 98.5065 136.997 98.0557 137.254C97.6048 137.504 97.2396 137.835 96.9601 138.249C96.6806 138.663 96.5459 139.114 96.556 139.602L94.5404 139.644C94.527 138.996 94.6464 138.385 94.8986 137.812C95.1588 137.238 95.5164 136.731 95.9713 136.289C96.4343 135.848 96.9592 135.501 97.5461 135.249C98.1329 134.988 98.7542 134.851 99.41 134.838C100.266 134.82 101.066 135.016 101.811 135.424C102.555 135.833 103.159 136.389 103.622 137.091C104.092 137.794 104.336 138.577 104.354 139.441C104.37 140.216 104.189 140.936 103.811 141.6C103.433 142.264 102.91 142.735 102.244 143.013C102.832 143.201 103.33 143.503 103.739 143.918C104.147 144.326 104.457 144.8 104.668 145.339C104.888 145.879 105.003 146.449 105.016 147.049C105.035 147.984 104.809 148.845 104.337 149.631C103.873 150.417 103.246 151.05 102.456 151.53C101.674 152.003 100.81 152.249 99.8667 152.268ZM112.694 152.003C111.694 152.024 110.777 151.814 109.944 151.376C109.119 150.937 108.454 150.342 107.951 149.592C107.455 148.835 107.197 147.992 107.178 147.064C107.16 146.2 107.372 145.403 107.813 144.674C108.254 143.937 108.838 143.349 109.565 142.91C108.957 142.538 108.451 142.04 108.046 141.417C107.648 140.785 107.442 140.097 107.427 139.353C107.409 138.489 107.617 137.701 108.05 136.988C108.491 136.274 109.084 135.702 109.827 135.271C110.578 134.831 111.413 134.602 112.333 134.583C113.253 134.564 114.093 134.758 114.854 135.167C115.622 135.567 116.238 136.114 116.7 136.809C117.171 137.503 117.415 138.282 117.433 139.146C117.448 139.89 117.27 140.586 116.9 141.234C116.529 141.873 116.04 142.392 115.432 142.788C116.2 143.196 116.816 143.76 117.279 144.478C117.75 145.189 117.994 145.976 118.012 146.84C118.031 147.76 117.804 148.608 117.332 149.386C116.86 150.164 116.217 150.79 115.403 151.263C114.596 151.735 113.693 151.982 112.694 152.003ZM112.652 149.987C113.26 149.975 113.805 149.827 114.287 149.545C114.777 149.263 115.166 148.891 115.452 148.429C115.739 147.959 115.876 147.444 115.864 146.884C115.853 146.316 115.694 145.807 115.389 145.358C115.083 144.908 114.68 144.552 114.178 144.29C113.685 144.029 113.134 143.904 112.526 143.917C111.926 143.929 111.381 144.076 110.891 144.358C110.401 144.641 110.012 145.013 109.726 145.475C109.439 145.937 109.302 146.452 109.314 147.02C109.325 147.58 109.484 148.088 109.789 148.546C110.095 148.996 110.498 149.352 111 149.613C111.501 149.875 112.052 150 112.652 149.987ZM112.485 141.901C113.013 141.89 113.49 141.76 113.917 141.511C114.344 141.262 114.681 140.935 114.929 140.53C115.184 140.125 115.307 139.678 115.297 139.19C115.287 138.694 115.146 138.253 114.874 137.867C114.609 137.472 114.259 137.159 113.822 136.928C113.385 136.697 112.903 136.587 112.375 136.598C111.847 136.609 111.37 136.739 110.943 136.988C110.516 137.237 110.174 137.564 109.919 137.969C109.671 138.366 109.552 138.813 109.562 139.309C109.572 139.797 109.71 140.238 109.974 140.633C110.246 141.027 110.601 141.34 111.037 141.571C111.474 141.802 111.957 141.912 112.485 141.901ZM125.501 151.738C124.485 151.759 123.577 151.55 122.775 151.11C121.982 150.662 121.353 150.059 120.889 149.301C120.426 148.534 120.184 147.679 120.164 146.735L122.18 146.693C122.192 147.261 122.334 147.779 122.608 148.245C122.882 148.703 123.261 149.068 123.747 149.338C124.233 149.608 124.803 149.736 125.459 149.722C126.027 149.711 126.552 149.56 127.034 149.27C127.524 148.979 127.916 148.599 128.211 148.129C128.505 147.651 128.646 147.128 128.634 146.56C128.62 145.848 128.424 145.26 128.046 144.796C127.676 144.323 127.165 143.978 126.512 143.759C125.867 143.533 125.133 143.428 124.309 143.445L124.276 141.825C125.411 141.802 126.314 141.547 126.984 141.061C127.662 140.575 127.992 139.872 127.973 138.952C127.963 138.464 127.822 138.019 127.549 137.616C127.277 137.214 126.922 136.897 126.485 136.666C126.056 136.427 125.598 136.313 125.11 136.323C124.614 136.333 124.141 136.467 123.69 136.724C123.239 136.973 122.874 137.305 122.594 137.719C122.315 138.133 122.18 138.584 122.19 139.072L120.175 139.113C120.161 138.465 120.281 137.855 120.533 137.282C120.793 136.708 121.151 136.201 121.606 135.759C122.068 135.317 122.593 134.97 123.18 134.718C123.767 134.458 124.388 134.321 125.044 134.308C125.9 134.29 126.7 134.485 127.445 134.894C128.189 135.303 128.793 135.858 129.256 136.561C129.726 137.263 129.971 138.046 129.989 138.91C130.005 139.686 129.823 140.406 129.445 141.07C129.067 141.734 128.544 142.205 127.878 142.483C128.466 142.671 128.964 142.972 129.373 143.388C129.782 143.796 130.091 144.269 130.303 144.809C130.522 145.349 130.638 145.918 130.65 146.518C130.669 147.454 130.443 148.315 129.971 149.101C129.507 149.887 128.88 150.52 128.09 151C127.308 151.472 126.445 151.718 125.501 151.738ZM133.39 151.263L133.043 134.466L143.349 134.253L143.39 136.268L135.1 136.44L135.199 141.215L141.99 141.074L142.031 143.09L135.241 143.231L135.364 149.205L143.655 149.034L143.696 151.049L133.39 151.263Z" fill="white"/>
<g filter="url(#filter0_i_1331_4914)">
<path d="M508.526 135.859C521.577 84.2842 513.181 75.0885 464.414 101.152C415.398 71.0939 403.961 79.1229 409.934 134.252C370.342 171.531 375.683 183.916 430.698 191.942C447.849 240.814 461.145 240.27 490.819 194.094C545.223 187.479 548.522 174.517 508.526 135.859Z" fill="#5599DD"/>
</g>
<path d="M508.526 135.859C521.577 84.2842 513.181 75.0885 464.414 101.152C415.398 71.0939 403.961 79.1229 409.934 134.252C370.342 171.531 375.683 183.916 430.698 191.942C447.849 240.814 461.145 240.27 490.819 194.094C545.223 187.479 548.522 174.517 508.526 135.859Z" stroke="#7FB3E6" stroke-width="10"/>
<path d="M427.795 154.622L425.491 154.602L424.054 159.737L426.382 159.758L425.837 161.697L423.533 161.676L422.442 165.555L420.426 165.537L421.517 161.659L416.177 161.611L415.099 165.49L413.083 165.472L414.161 161.594L411.845 161.573L412.39 159.634L414.694 159.654L416.132 154.519L413.804 154.498L414.349 152.559L416.665 152.579L417.731 148.713L419.747 148.73L418.681 152.597L424.021 152.644L425.075 148.778L427.091 148.795L426.036 152.662L428.34 152.683L427.795 154.622ZM422.038 159.719L423.475 154.584L418.148 154.537L416.71 159.672L422.038 159.719ZM430.138 165.623L430.154 163.835C430.775 163.289 431.472 162.679 432.246 162.006C433.02 161.324 433.791 160.615 434.557 159.878C435.332 159.133 436.042 158.395 436.689 157.665C437.335 156.934 437.857 156.243 438.255 155.59C438.653 154.93 438.854 154.352 438.859 153.856C438.864 153.264 438.725 152.723 438.441 152.232C438.157 151.733 437.773 151.334 437.287 151.034C436.81 150.734 436.275 150.581 435.683 150.576C435.091 150.57 434.546 150.713 434.048 151.005C433.557 151.297 433.161 151.689 432.861 152.183C432.569 152.668 432.42 153.207 432.415 153.799L430.399 153.781C430.408 152.797 430.655 151.911 431.142 151.123C431.629 150.328 432.271 149.701 433.067 149.244C433.863 148.779 434.741 148.551 435.701 148.56C436.661 148.568 437.531 148.812 438.311 149.291C439.099 149.77 439.725 150.411 440.19 151.215C440.655 152.012 440.883 152.898 440.874 153.874C440.869 154.434 440.728 155.036 440.45 155.682C440.173 156.319 439.795 156.976 439.317 157.652C438.839 158.328 438.297 159.011 437.691 159.702C437.085 160.384 436.447 161.059 435.777 161.725C435.107 162.391 434.441 163.029 433.78 163.639L441.003 163.703L440.986 165.719L430.138 165.623ZM443.38 165.74L443.396 163.952C444.016 163.406 444.714 162.796 445.488 162.123C446.262 161.442 447.032 160.732 447.799 159.995C448.573 159.25 449.284 158.512 449.93 157.782C450.577 157.052 451.099 156.36 451.497 155.708C451.895 155.047 452.096 154.469 452.1 153.973C452.105 153.381 451.966 152.84 451.683 152.349C451.399 151.851 451.014 151.451 450.529 151.151C450.052 150.851 449.517 150.698 448.925 150.693C448.333 150.687 447.788 150.831 447.289 151.122C446.799 151.414 446.403 151.806 446.103 152.3C445.81 152.785 445.662 153.324 445.656 153.916L443.641 153.898C443.649 152.914 443.897 152.028 444.384 151.241C444.871 150.445 445.513 149.818 446.309 149.361C447.105 148.897 447.983 148.668 448.943 148.677C449.903 148.685 450.773 148.929 451.553 149.408C452.34 149.887 452.967 150.528 453.432 151.333C453.897 152.129 454.125 153.015 454.116 153.991C454.111 154.551 453.97 155.153 453.692 155.799C453.414 156.437 453.037 157.093 452.559 157.769C452.081 158.445 451.539 159.128 450.932 159.819C450.326 160.501 449.688 161.176 449.018 161.842C448.349 162.508 447.683 163.146 447.021 163.756L454.245 163.82L454.227 165.836L443.38 165.74ZM462.078 166.218C461.014 166.208 460.045 165.936 459.17 165.4C458.294 164.864 457.597 164.154 457.076 163.269C456.556 162.377 456.301 161.394 456.31 160.322C456.316 159.722 456.388 159.199 456.528 158.752C456.676 158.306 456.893 157.823 457.177 157.306L462.002 149.104L464.342 149.125L460.894 154.987C461.584 154.777 462.268 154.707 462.948 154.777C463.627 154.847 464.269 155.037 464.875 155.346C465.488 155.655 466.028 156.06 466.496 156.56C466.964 157.061 467.331 157.64 467.597 158.298C467.863 158.949 467.993 159.658 467.986 160.426C467.979 161.234 467.816 161.988 467.498 162.689C467.188 163.391 466.762 164.007 466.221 164.538C465.689 165.07 465.065 165.484 464.35 165.782C463.636 166.079 462.878 166.225 462.078 166.218ZM462.096 164.202C462.832 164.208 463.49 164.034 464.069 163.679C464.656 163.324 465.116 162.856 465.449 162.275C465.791 161.694 465.964 161.072 465.97 160.408C465.976 159.712 465.81 159.074 465.471 158.495C465.14 157.916 464.684 157.452 464.103 157.103C463.53 156.746 462.892 156.564 462.188 156.558C461.452 156.552 460.794 156.726 460.215 157.081C459.636 157.436 459.176 157.9 458.835 158.473C458.502 159.046 458.332 159.668 458.326 160.34C458.32 161.068 458.49 161.722 458.837 162.301C459.184 162.88 459.644 163.34 460.217 163.681C460.798 164.022 461.424 164.196 462.096 164.202ZM475.062 166.333C473.998 166.323 473.029 166.051 472.153 165.515C471.278 164.979 470.58 164.269 470.06 163.384C469.54 162.492 469.285 161.509 469.294 160.437C469.3 159.837 469.372 159.314 469.512 158.867C469.66 158.42 469.876 157.938 470.161 157.421L474.986 149.219L477.326 149.24L473.878 155.102C474.568 154.892 475.252 154.822 475.932 154.892C476.611 154.962 477.253 155.151 477.859 155.461C478.472 155.77 479.012 156.175 479.48 156.675C479.948 157.175 480.314 157.755 480.581 158.413C480.847 159.063 480.977 159.773 480.97 160.541C480.963 161.349 480.8 162.103 480.482 162.804C480.172 163.506 479.746 164.122 479.205 164.653C478.673 165.184 478.049 165.599 477.334 165.897C476.62 166.194 475.862 166.34 475.062 166.333ZM475.08 164.317C475.816 164.323 476.474 164.149 477.053 163.794C477.64 163.439 478.1 162.971 478.433 162.39C478.774 161.809 478.948 161.187 478.954 160.523C478.96 159.827 478.794 159.189 478.455 158.61C478.124 158.031 477.668 157.567 477.087 157.218C476.514 156.861 475.876 156.679 475.172 156.673C474.436 156.667 473.778 156.841 473.199 157.196C472.62 157.551 472.16 158.015 471.819 158.588C471.486 159.161 471.316 159.783 471.31 160.455C471.304 161.183 471.474 161.837 471.821 162.416C472.168 162.995 472.628 163.455 473.201 163.796C473.782 164.137 474.408 164.311 475.08 164.317ZM488.846 149.342L491.281 149.363L497.241 166.217L495.105 166.198L493.887 162.755L486.003 162.685L484.737 166.106L482.589 166.087L488.846 149.342ZM486.765 160.676L493.161 160.732L490.035 151.932L486.765 160.676ZM504.782 149.483L507.218 149.504L513.177 166.358L511.042 166.339L509.824 162.896L501.94 162.826L500.674 166.247L498.526 166.228L504.782 149.483ZM502.702 160.817L509.098 160.873L505.972 152.073L502.702 160.817Z" fill="white"/>
<g filter="url(#filter1_i_1331_4914)">
<path d="M335.721 154.488C372.703 116.244 369.995 104.09 314.725 102.435C287.161 51.9739 273.245 53.2482 250.998 104.042C198.106 116.68 196.578 130.081 240.307 164.415C230.869 215.342 242.673 221.485 291.388 196.195C341.871 217.524 351.182 207.922 335.721 154.488Z" fill="#FFE999"/>
</g>
<path d="M335.721 154.488C372.703 116.244 369.995 104.09 314.725 102.435C287.161 51.9739 273.245 53.2482 250.998 104.042C198.106 116.68 196.578 130.081 240.307 164.415C230.869 215.342 242.673 221.485 291.388 196.195C341.871 217.524 351.182 207.922 335.721 154.488Z" stroke="#FFDE66" stroke-width="10"/>
<path d="M255.295 142.456L252.996 142.308L251.276 147.356L253.599 147.506L252.948 149.412L250.648 149.264L249.345 153.076L247.333 152.947L248.636 149.135L243.308 148.792L242.016 152.605L240.004 152.475L241.296 148.662L238.984 148.514L239.636 146.608L241.935 146.755L243.655 141.707L241.332 141.558L241.984 139.652L244.295 139.801L245.574 135.999L247.585 136.128L246.307 139.93L251.636 140.273L252.902 136.47L254.914 136.6L253.648 140.402L255.947 140.55L255.295 142.456ZM249.264 147.227L250.984 142.179L245.667 141.837L243.947 146.885L249.264 147.227ZM257.504 153.601L258.583 136.836L268.414 137.468L268.285 139.48L260.465 138.977L260.159 143.743L266.829 144.173L266.699 146.184L260.029 145.755L259.516 153.731L257.504 153.601ZM269.152 154.351L270.231 137.585L280.062 138.218L279.933 140.23L272.113 139.727L271.806 144.493L278.477 144.922L278.347 146.934L271.677 146.505L271.164 154.48L269.152 154.351ZM280.8 155.1L281.878 138.335L287.423 138.692C288.581 138.766 289.652 139.055 290.638 139.56C291.624 140.056 292.475 140.716 293.192 141.54C293.909 142.356 294.451 143.284 294.816 144.326C295.191 145.36 295.341 146.456 295.266 147.614C295.192 148.771 294.902 149.843 294.398 150.828C293.902 151.807 293.246 152.658 292.43 153.383C291.614 154.1 290.685 154.646 289.643 155.02C288.601 155.386 287.502 155.531 286.344 155.457L280.8 155.1ZM282.941 153.218L286.474 153.445C287.352 153.502 288.185 153.391 288.972 153.113C289.768 152.827 290.476 152.412 291.097 151.867C291.717 151.321 292.215 150.676 292.592 149.931C292.977 149.178 293.198 148.362 293.254 147.484C293.311 146.606 293.196 145.773 292.91 144.985C292.633 144.189 292.217 143.481 291.664 142.86C291.119 142.24 290.473 141.742 289.728 141.365C288.983 140.98 288.172 140.76 287.293 140.703L283.761 140.476L282.941 153.218ZM296.868 156.134L297.947 139.369L308.233 140.031L308.104 142.042L299.829 141.51L299.522 146.276L306.3 146.712L306.171 148.724L299.393 148.288L299.009 154.252L307.284 154.784L307.155 156.796L296.868 156.134ZM314.729 157.596C313.667 157.527 312.714 157.202 311.869 156.618C311.025 156.035 310.368 155.287 309.897 154.375C309.427 153.455 309.227 152.46 309.296 151.39C309.334 150.791 309.436 150.273 309.6 149.834C309.773 149.397 310.015 148.927 310.328 148.426L315.6 140.504L317.935 140.655L314.168 146.316C314.868 146.145 315.556 146.113 316.23 146.221C316.904 146.328 317.535 146.553 318.123 146.896C318.718 147.239 319.235 147.673 319.674 148.198C320.113 148.723 320.448 149.322 320.677 149.994C320.907 150.658 320.997 151.373 320.948 152.14C320.896 152.946 320.692 153.691 320.335 154.373C319.986 155.056 319.528 155.648 318.958 156.148C318.397 156.649 317.751 157.029 317.021 157.286C316.291 157.544 315.527 157.647 314.729 157.596ZM314.858 155.584C315.592 155.631 316.259 155.494 316.857 155.171C317.462 154.85 317.948 154.408 318.313 153.846C318.685 153.285 318.893 152.673 318.936 152.01C318.981 151.316 318.85 150.67 318.543 150.073C318.245 149.477 317.816 148.988 317.255 148.607C316.703 148.219 316.075 148.002 315.373 147.957C314.638 147.91 313.972 148.048 313.374 148.37C312.776 148.692 312.291 149.13 311.919 149.683C311.554 150.237 311.351 150.849 311.308 151.52C311.261 152.246 311.395 152.908 311.709 153.505C312.023 154.103 312.457 154.588 313.01 154.96C313.571 155.333 314.187 155.541 314.858 155.584ZM327.686 158.429C326.624 158.361 325.671 158.035 324.827 157.452C323.983 156.868 323.325 156.121 322.855 155.209C322.385 154.289 322.185 153.294 322.253 152.224C322.292 151.625 322.393 151.107 322.558 150.668C322.73 150.23 322.973 149.761 323.286 149.26L328.557 141.338L330.892 141.488L327.125 147.15C327.826 146.979 328.513 146.947 329.188 147.054C329.862 147.162 330.493 147.387 331.08 147.729C331.675 148.072 332.193 148.506 332.632 149.032C333.071 149.557 333.405 150.156 333.634 150.828C333.864 151.492 333.955 152.207 333.905 152.974C333.853 153.78 333.649 154.524 333.293 155.207C332.944 155.89 332.485 156.482 331.916 156.982C331.354 157.483 330.709 157.862 329.979 158.12C329.249 158.378 328.484 158.481 327.686 158.429ZM327.816 156.418C328.55 156.465 329.216 156.327 329.814 156.005C330.42 155.683 330.905 155.242 331.27 154.68C331.643 154.119 331.851 153.507 331.893 152.844C331.938 152.15 331.807 151.504 331.501 150.907C331.203 150.311 330.773 149.822 330.212 149.441C329.66 149.053 329.033 148.836 328.33 148.791C327.596 148.744 326.93 148.881 326.332 149.203C325.734 149.526 325.249 149.964 324.876 150.517C324.512 151.071 324.308 151.683 324.265 152.353C324.218 153.08 324.352 153.742 324.667 154.339C324.981 154.937 325.415 155.421 325.968 155.794C326.529 156.167 327.145 156.375 327.816 156.418Z" fill="#292929"/>
<defs>
<filter id="filter0_i_1331_4914" x="379.156" y="78.8789" width="161.359" height="158.784" filterUnits="userSpaceOnUse" color-interpolation-filters="sRGB">
<feFlood flood-opacity="0" result="BackgroundImageFix"/>
<feBlend mode="normal" in="SourceGraphic" in2="BackgroundImageFix" result="shape"/>
<feColorMatrix in="SourceAlpha" type="matrix" values="0 0 0 0 0 0 0 0 0 0 0 0 0 0 0 0 0 0 127 0" result="hardAlpha"/>
<feOffset dy="4"/>
<feGaussianBlur stdDeviation="2"/>
<feComposite in2="hardAlpha" operator="arithmetic" k2="-1" k3="1"/>
<feColorMatrix type="matrix" values="0 0 0 0 0 0 0 0 0 0 0 0 0 0 0 0 0 0 0.25 0"/>
<feBlend mode="normal" in2="shape" result="effect1_innerShadow_1331_4914"/>
</filter>
<filter id="filter1_i_1331_4914" x="204.272" y="60.2598" width="161.124" height="159.422" filterUnits="userSpaceOnUse" color-interpolation-filters="sRGB">
<feFlood flood-opacity="0" result="BackgroundImageFix"/>
<feBlend mode="normal" in="SourceGraphic" in2="BackgroundImageFix" result="shape"/>
<feColorMatrix in="SourceAlpha" type="matrix" values="0 0 0 0 0 0 0 0 0 0 0 0 0 0 0 0 0 0 127 0" result="hardAlpha"/>
<feOffset dy="4"/>
<feGaussianBlur stdDeviation="2"/>
<feComposite in2="hardAlpha" operator="arithmetic" k2="-1" k3="1"/>
<feColorMatrix type="matrix" values="0 0 0 0 0 0 0 0 0 0 0 0 0 0 0 0 0 0 0.25 0"/>
<feBlend mode="normal" in2="shape" result="effect1_innerShadow_1331_4914"/>
</filter>
</defs>
</svg>
